<svg width="22" height="23" viewBox="0 0 22 23" fill="none" xmlns="http://www.w3.org/2000/svg">
<g clip-path="url(#clip0_1231_277)">
<path d="M22 20.0557C22 21.4056 20.9055 22.5001 19.5556 22.5001H2.44444C1.0945 22.5001 0 21.4056 0 20.0557V6.00011C0 4.65016 1.0945 3.55566 2.44444 3.55566H19.5556C20.9055 3.55566 22 4.65016 22 6.00011V20.0557Z" fill="white"/>
<path d="M20.7778 0.5H18.7752C18.8803 0.680278 18.9444 0.887444 18.9444 1.11111C18.9444 1.78578 18.3969 2.33333 17.7222 2.33333C17.0476 2.33333 16.5 1.78578 16.5 1.11111C16.5 0.887444 16.5642 0.680278 16.6693 0.5H5.33072C5.43583 0.680278 5.5 0.887444 5.5 1.11111C5.5 1.78578 4.95244 2.33333 4.27778 2.33333C3.60311 2.33333 3.05556 1.78578 3.05556 1.11111C3.05556 0.887444 3.11972 0.680278 3.22483 0.5H1.22222C0.547556 0.5 0 1.04756 0 1.72222V8.44444H22V1.72222C22 1.04756 21.4524 0.5 20.7778 0.5Z" fill="#DD2F45"/>
<path d="M14.4759 12.1107H14.1704C13.5073 12.1107 13.2305 11.664 13.2305 11.194C13.2305 10.71 13.5757 10.2773 14.1704 10.2773H15.4017C15.9957 10.2773 16.3276 10.7057 16.3276 11.2582V19.1201C16.3276 19.8107 15.9866 20.1975 15.3926 20.1975C14.7986 20.1975 14.4759 19.8107 14.4759 19.1201V12.1107Z" fill="#66757F"/>
<path d="M20.1658 7.22125C20.5033 7.22125 20.7769 6.94764 20.7769 6.61013C20.7769 6.27263 20.5033 5.99902 20.1658 5.99902C19.8283 5.99902 19.5547 6.27263 19.5547 6.61013C19.5547 6.94764 19.8283 7.22125 20.1658 7.22125Z" fill="#F3AAB9"/>
<path d="M20.1658 5.38824C20.5033 5.38824 20.7769 5.11463 20.7769 4.77713C20.7769 4.43962 20.5033 4.16602 20.1658 4.16602C19.8283 4.16602 19.5547 4.43962 19.5547 4.77713C19.5547 5.11463 19.8283 5.38824 20.1658 5.38824Z" fill="#F3AAB9"/>
<path d="M18.3299 7.22125C18.6674 7.22125 18.941 6.94764 18.941 6.61013C18.941 6.27263 18.6674 5.99902 18.3299 5.99902C17.9924 5.99902 17.7188 6.27263 17.7188 6.61013C17.7188 6.94764 17.9924 7.22125 18.3299 7.22125Z" fill="#F3AAB9"/>
<path d="M18.3299 5.38824C18.6674 5.38824 18.941 5.11463 18.941 4.77713C18.941 4.43962 18.6674 4.16602 18.3299 4.16602C17.9924 4.16602 17.7188 4.43962 17.7188 4.77713C17.7188 5.11463 17.9924 5.38824 18.3299 5.38824Z" fill="#F3AAB9"/>
<path d="M16.4978 7.22125C16.8353 7.22125 17.1089 6.94764 17.1089 6.61013C17.1089 6.27263 16.8353 5.99902 16.4978 5.99902C16.1603 5.99902 15.8867 6.27263 15.8867 6.61013C15.8867 6.94764 16.1603 7.22125 16.4978 7.22125Z" fill="#F3AAB9"/>
<path d="M16.4978 5.38824C16.8353 5.38824 17.1089 5.11463 17.1089 4.77713C17.1089 4.43962 16.8353 4.16602 16.4978 4.16602C16.1603 4.16602 15.8867 4.43962 15.8867 4.77713C15.8867 5.11463 16.1603 5.38824 16.4978 5.38824Z" fill="#F3AAB9"/>
<path d="M1.50781 3.51896C1.50781 3.2519 1.71926 3.04046 1.98631 3.04046H2.09203C2.29676 3.04046 2.43976 3.14618 2.52653 3.28857L3.68215 5.17079L4.84326 3.28307C4.94226 3.12174 5.07915 3.04107 5.27165 3.04107H5.37676C5.64381 3.04107 5.85526 3.25251 5.85526 3.51957V6.97235C5.85526 7.2394 5.64381 7.45085 5.37676 7.45085C5.11581 7.45085 4.90498 7.23329 4.90498 6.97235V4.80474L4.06653 6.09663C3.96753 6.24513 3.84348 6.33863 3.66931 6.33863C3.49515 6.33863 3.37109 6.24574 3.27209 6.09663L2.44587 4.82307V6.98457C2.44587 7.24552 2.23442 7.45024 1.97409 7.45024C1.71376 7.45024 1.50842 7.24552 1.50842 6.98457V3.51896H1.50781ZM6.34965 6.79818L7.86459 3.37596C7.97031 3.14007 8.16281 2.99707 8.42376 2.99707H8.47937C8.74031 2.99707 8.9267 3.14007 9.03242 3.37596L10.5474 6.79818C10.5785 6.86601 10.5969 6.92835 10.5969 6.99068C10.5969 7.24552 10.3983 7.45024 10.1434 7.45024C9.91976 7.45024 9.77065 7.32007 9.68387 7.12085L9.39237 6.43763H7.47959L7.17526 7.15202C7.09459 7.3384 6.93326 7.45024 6.73403 7.45024C6.48531 7.45024 6.29281 7.25163 6.29281 7.0029C6.29342 6.93446 6.31848 6.86601 6.34965 6.79818ZM9.03853 5.59307L8.43659 4.15818L7.83403 5.59307H9.03853ZM11.0411 3.54401C11.0411 3.27696 11.2526 3.06551 11.5196 3.06551H13.0291C13.5815 3.06551 14.0099 3.22074 14.2953 3.50674C14.5373 3.74874 14.6681 4.09035 14.6681 4.5004V4.51324C14.6681 5.19646 14.3265 5.61874 13.7985 5.83629L14.4628 6.64357C14.5563 6.76152 14.6186 6.86113 14.6186 7.01024C14.6186 7.27729 14.3949 7.45146 14.1651 7.45146C13.9482 7.45146 13.8046 7.34574 13.6934 7.20274L12.762 6.02268H11.9981V6.97296C11.9981 7.24002 11.7867 7.45146 11.5203 7.45146C11.2532 7.45146 11.0418 7.24002 11.0418 6.97296V3.54401H11.0411ZM12.9668 5.17751C13.4324 5.17751 13.6995 4.92879 13.6995 4.56274V4.5499C13.6995 4.14046 13.4135 3.92901 12.9478 3.92901H11.9975V5.17751H12.9668Z" fill="white"/>
<path d="M5.37826 18.1058L8.15392 15.8318C9.36759 14.8418 9.84181 14.2973 9.84181 13.4882C9.84181 12.6657 9.29792 12.2189 8.53098 12.2189C7.91742 12.2189 7.48476 12.4842 6.94087 13.0696C6.80153 13.223 6.55037 13.377 6.21548 13.377C5.67159 13.377 5.23892 12.9443 5.23892 12.4004C5.23892 12.1633 5.3367 11.9122 5.49009 11.7307C6.27109 10.8238 7.19203 10.2939 8.67031 10.2939C10.6931 10.2939 12.032 11.4795 12.032 13.3067V13.3348C12.032 14.9665 11.1954 15.7756 9.46537 17.1146L7.87526 18.3423H11.2785C11.7949 18.3423 12.2135 18.7609 12.2135 19.2767C12.2135 19.7924 11.7949 20.1976 11.2785 20.1976H5.97837C5.30859 20.1976 4.82031 19.8212 4.82031 19.1795C4.82031 18.7609 5.01587 18.3985 5.37826 18.1058Z" fill="#66757F"/>
</g>
<defs>
<clipPath id="clip0_1231_277">
<rect width="22" height="22" fill="white" transform="translate(0 0.5)"/>
</clipPath>
</defs>
</svg>
