<svg width="22" height="23" viewBox="0 0 22 23" fill="none" xmlns="http://www.w3.org/2000/svg">
<path d="M21.0837 15.7747C21.0837 17.1247 19.9892 16.9969 18.6392 16.9969H3.36144C2.01149 16.9969 0.916992 17.1247 0.916992 15.7747L2.13921 7.22222C2.31827 6.15278 2.75033 6 3.36144 6H18.6392C19.2503 6 19.7337 6.12711 19.8614 7.22222L21.0837 15.7747Z" fill="#8CCAF7"/>
<path d="M17.4163 10.5827C17.4163 11.0893 17.0057 11.4993 16.4997 11.4993H5.49967C4.99306 11.4993 4.58301 11.0893 4.58301 10.5827C4.58301 10.0761 4.99367 9.66602 5.49967 9.66602H16.4997C17.0057 9.66602 17.4163 10.0761 17.4163 10.5827Z" fill="#292F33"/>
<path d="M16.0412 11.0043V2.44878C16.0412 1.77351 15.4943 1.22656 14.819 1.22656H6.87457C6.1999 1.22656 5.65234 1.77351 5.65234 2.44878V11.0043H16.0412Z" fill="#FFD983"/>
<path d="M21.0837 15.7769C21.0837 15.1022 20.5361 14.5547 19.8614 14.5547H2.13921C1.46455 14.5547 0.916992 15.1022 0.916992 15.7769V20.6658C0.916992 21.3405 1.46455 21.888 2.13921 21.888H19.8614C20.5361 21.888 21.0837 21.3405 21.0837 20.6658V15.7769Z" fill="#5DADEC"/>
<path d="M8.25 14.5547V18.2214C8.25 18.896 8.79756 19.4436 9.47222 19.4436H12.5278C13.2031 19.4436 13.75 18.896 13.75 18.2214V14.5547H8.25Z" fill="#4289C1"/>
<path d="M13.75 14.556V13.9449C13.75 13.2702 13.2031 12.7227 12.5278 12.7227H9.47222C8.79756 12.7227 8.25 13.2702 8.25 13.9449V14.556H13.75ZM11.9167 17.306C11.9167 17.812 11.506 18.2227 11 18.2227C10.4934 18.2227 10.0833 17.812 10.0833 17.306V16.6949C10.0833 16.1889 10.4934 15.7782 11 15.7782C11.506 15.7782 11.9167 16.1889 11.9167 16.6949V17.306Z" fill="#5DADEC"/>
<path d="M14.6671 3.55556C14.6671 3.72422 14.5302 3.86111 14.3615 3.86111H9.77821C9.60955 3.86111 9.47266 3.72422 9.47266 3.55556C9.47266 3.38689 9.60955 3.25 9.77821 3.25H14.3615C14.5302 3.25 14.6671 3.38689 14.6671 3.55556ZM14.6671 6C14.6671 6.16867 14.5302 6.30556 14.3615 6.30556H9.77821C9.60955 6.30556 9.47266 6.16867 9.47266 6C9.47266 5.83133 9.60955 5.69444 9.77821 5.69444H14.3615C14.5302 5.69444 14.6671 5.83133 14.6671 6ZM14.6671 8.44444C14.6671 8.61311 14.5302 8.75 14.3615 8.75H9.77821C9.60955 8.75 9.47266 8.61311 9.47266 8.44444C9.47266 8.27578 9.60955 8.13889 9.77821 8.13889H14.3615C14.5302 8.13889 14.6671 8.27578 14.6671 8.44444Z" fill="#C1694F"/>
<path d="M7.94412 4.16753C8.28163 4.16753 8.55523 3.89393 8.55523 3.55642C8.55523 3.21892 8.28163 2.94531 7.94412 2.94531C7.60661 2.94531 7.33301 3.21892 7.33301 3.55642C7.33301 3.89393 7.60661 4.16753 7.94412 4.16753Z" fill="#C1694F"/>
<path d="M7.94412 6.61285C8.28163 6.61285 8.55523 6.33924 8.55523 6.00174C8.55523 5.66423 8.28163 5.39062 7.94412 5.39062C7.60661 5.39062 7.33301 5.66423 7.33301 6.00174C7.33301 6.33924 7.60661 6.61285 7.94412 6.61285Z" fill="#C1694F"/>
<path d="M7.94412 9.05621C8.28163 9.05621 8.55523 8.7826 8.55523 8.4451C8.55523 8.10759 8.28163 7.83398 7.94412 7.83398C7.60661 7.83398 7.33301 8.10759 7.33301 8.4451C7.33301 8.7826 7.60661 9.05621 7.94412 9.05621Z" fill="#C1694F"/>
</svg>
