<svg width="50" height="50" viewBox="0 0 50 50" fill="none" xmlns="http://www.w3.org/2000/svg">
<g clip-path="url(#clip0_1580_5525)">
<path d="M27.7777 8.39167C27.7777 9.93611 26.5236 11.1889 24.9999 11.1889C23.4763 11.1889 22.2222 9.93611 22.2222 8.39167V2.79722C22.2222 1.25139 23.4763 0 24.9999 0C26.5236 0 27.7777 1.25139 27.7777 2.79722V8.39167Z" fill="#FFCC4D"/>
<path d="M12.7527 49.9992C12.4416 49.9992 12.125 49.927 11.8277 49.7783C10.8055 49.2589 10.3902 48.0006 10.9013 46.9631L23.318 21.7867C23.668 21.0756 24.3847 20.627 25.1694 20.627C25.9541 20.627 26.6708 21.0756 27.0208 21.7867L39.4388 46.9631C39.95 48.0006 39.5361 49.2589 38.5138 49.7783C37.4916 50.295 36.2486 49.8756 35.7375 48.8395L25.1708 27.4158L14.6055 48.8395C14.2416 49.5742 13.5111 49.9992 12.7527 49.9992Z" fill="#FFAC33"/>
<path d="M25.1705 28.3216C24.8052 28.3216 24.4539 28.1744 24.1955 27.9119L4.88024 8.32995C4.34135 7.78273 4.34135 6.898 4.88024 6.35217C5.41913 5.80634 6.29274 5.80634 6.83024 6.35217L25.1705 24.9438L43.508 6.35078C44.0483 5.80495 44.9205 5.80495 45.4594 6.35078C45.9983 6.898 45.9983 7.78273 45.4594 8.32856L26.1469 27.9119C25.8872 28.173 25.5372 28.3216 25.1705 28.3216Z" fill="#7586A9"/>
<path d="M47.2411 26.9241C47.2411 39.2824 37.3592 49.3005 25.1661 49.3005C12.9759 49.3005 3.09253 39.2824 3.09253 26.9241C3.09253 14.563 12.9759 4.54492 25.1661 4.54492C37.3578 4.54353 47.2411 14.563 47.2411 26.9241Z" fill="#29CA0F"/>
<path d="M41.7252 26.9234C41.7252 36.1928 34.3155 43.7067 25.1696 43.7067C16.0266 43.7067 8.61548 36.1928 8.61548 26.9234C8.61548 17.6526 16.0266 10.1387 25.1696 10.1387C34.3155 10.1373 41.7252 17.6526 41.7252 26.9234Z" fill="white"/>
<path d="M41.7222 1.74609C39.4361 1.74609 37.3681 2.68498 35.8694 4.20443L47.5764 16.0711C49.0736 14.553 50 12.4558 50 10.1378C50 5.50443 46.2931 1.74609 41.7222 1.74609ZM8.27778 1.74609C10.5625 1.74609 12.6319 2.68498 14.1306 4.20443L2.42361 16.0711C0.926389 14.553 0 12.4558 0 10.1378C0 5.50443 3.70556 1.74609 8.27778 1.74609Z" fill="#FFCC4D"/>
<path d="M31.9444 27.7778H25C24.2333 27.7778 23.6111 27.1569 23.6111 26.3889V13.8889C23.6111 13.1222 24.2333 12.5 25 12.5C25.7666 12.5 26.3889 13.1222 26.3889 13.8889V25H31.9444C32.7125 25 33.3333 25.6222 33.3333 26.3889C33.3333 27.1569 32.7125 27.7778 31.9444 27.7778Z" fill="#655F8A"/>
</g>
<defs>
<clipPath id="clip0_1580_5525">
<rect width="50" height="50" fill="white"/>
</clipPath>
</defs>
</svg>
