<svg width="50" height="50" viewBox="0 0 50 50" fill="none" xmlns="http://www.w3.org/2000/svg">
<g clip-path="url(#clip0_887_1215)">
<path d="M47.2222 43.0547H2.77778C1.24444 43.0547 0 44.2991 0 45.8325V49.9991H50V45.8325C50 44.2991 48.7556 43.0547 47.2222 43.0547Z" fill="#FFAC33"/>
<path d="M23.6085 45.139C23.3654 46.2626 22.2543 46.9765 21.1307 46.732C20.0057 46.4876 19.2918 45.3778 19.5362 44.2542L27.7862 2.0834C28.0307 0.958401 29.1404 0.245901 30.264 0.488957C31.3876 0.733401 32.1015 1.84312 31.8571 2.96673L23.6085 45.139Z" fill="#66757F"/>
<path d="M29.6725 3.20446C17.3044 0.521127 5.56274 6.24335 3.44746 15.9892C3.44746 15.9892 2.85857 18.7031 4.21551 18.9989C5.57246 19.2933 8.87662 17.1683 8.87662 17.1683L42.8086 24.5336C42.8086 24.5336 44.9336 27.8378 46.2919 28.1322C47.6488 28.4267 48.2377 25.7128 48.2377 25.7128C50.3544 15.9656 42.0419 5.88918 29.6725 3.20446Z" fill="#DD2E44"/>
<path d="M29.6687 3.20396C20.2993 1.17063 10.9895 7.42201 8.87425 17.1665C8.87425 17.1665 8.28536 19.8817 10.9993 20.4706C13.7131 21.0595 18.3743 19.229 18.3743 19.229L33.3034 22.4692C33.3034 22.4692 36.7868 26.0665 39.502 26.6567C42.2159 27.2456 42.8048 24.5317 42.8048 24.5317C44.9215 14.7859 39.0381 5.23729 29.6687 3.20396Z" fill="#E1E8ED"/>
<path d="M29.6694 3.20489C24.7972 2.14794 20.4903 9.48406 18.375 19.2299C18.375 19.2299 21.8569 22.8285 24.5722 23.4174L25.9292 23.7118C28.6444 24.3007 33.3042 22.4702 33.3042 22.4702C35.4208 12.7257 34.5431 4.26322 29.6694 3.20489Z" fill="#DD2E44"/>
</g>
<defs>
<clipPath id="clip0_887_1215">
<rect width="50" height="50" fill="white"/>
</clipPath>
</defs>
</svg>
