<svg width="54" height="54" viewBox="0 0 54 54" fill="none" xmlns="http://www.w3.org/2000/svg">
<path d="M8.26495 21.0142C8.26495 18.7867 8.26495 17.6729 8.71523 16.6939C9.16551 15.7149 10.0111 14.9901 11.7024 13.5405L13.343 12.1342C16.3999 9.514 17.9284 8.20389 19.7491 8.20389C21.5698 8.20389 23.0982 9.514 26.1552 12.1342L27.7958 13.5405C29.487 14.9901 30.3327 15.7149 30.7829 16.6939C31.2332 17.6729 31.2332 18.7867 31.2332 21.0142V27.971C31.2332 31.0645 31.2332 32.6113 30.2722 33.5723C29.3111 34.5333 27.7644 34.5333 24.6708 34.5333H14.8273C11.7338 34.5333 10.187 34.5333 9.22599 33.5723C8.26495 32.6113 8.26495 31.0645 8.26495 27.971V21.0142Z" stroke="#5142FF" stroke-width="2.55203"/>
<path d="M23.8505 34.5331V26.3302C23.8505 25.4241 23.116 24.6896 22.2099 24.6896H17.2882C16.3821 24.6896 15.6476 25.4241 15.6476 26.3302V34.5331" stroke="#5142FF" stroke-width="2.55203" stroke-linecap="round" stroke-linejoin="round"/>
</svg>
