<svg xmlns="http://www.w3.org/2000/svg" width="54" height="54" viewBox="0 0 54 54" fill="none">
  <path d="M27.8958 44.5589L28.7016 46.1124L28.7016 46.1124L27.8958 44.5589ZM26.1047 44.5589L25.2989 46.1124L25.2989 46.1124L26.1047 44.5589ZM41.0002 24.75C41.0002 29.7592 38.4492 33.8613 35.3315 37.0059C32.2155 40.1489 28.6798 42.1809 27.0901 43.0055L28.7016 46.1124C30.4484 45.2063 34.34 42.9772 37.817 39.4701C41.2924 35.9646 44.5002 31.0275 44.5002 24.75H41.0002ZM27.0002 10.75C34.7322 10.75 41.0002 17.018 41.0002 24.75H44.5002C44.5002 15.085 36.6652 7.25 27.0002 7.25V10.75ZM13.0002 24.75C13.0002 17.018 19.2683 10.75 27.0002 10.75V7.25C17.3353 7.25 9.50024 15.085 9.50024 24.75H13.0002ZM26.9104 43.0055C25.3206 42.1809 21.785 40.1489 18.669 37.0059C15.5513 33.8613 13.0002 29.7592 13.0002 24.75H9.50024C9.50024 31.0275 12.7081 35.9646 16.1835 39.4701C19.6605 42.9772 23.5521 45.2063 25.2989 46.1124L26.9104 43.0055ZM27.0901 43.0055C27.051 43.0257 27.0213 43.0303 27.0002 43.0303C26.9791 43.0303 26.9495 43.0257 26.9104 43.0055L25.2989 46.1124C26.3731 46.6695 27.6274 46.6695 28.7016 46.1124L27.0901 43.0055ZM32.0002 24.75C32.0002 27.5114 29.7617 29.75 27.0002 29.75V33.25C31.6947 33.25 35.5002 29.4444 35.5002 24.75H32.0002ZM27.0002 19.75C29.7617 19.75 32.0002 21.9886 32.0002 24.75H35.5002C35.5002 20.0556 31.6947 16.25 27.0002 16.25V19.75ZM22.0002 24.75C22.0002 21.9886 24.2388 19.75 27.0002 19.75V16.25C22.3058 16.25 18.5002 20.0556 18.5002 24.75H22.0002ZM27.0002 29.75C24.2388 29.75 22.0002 27.5114 22.0002 24.75H18.5002C18.5002 29.4444 22.3058 33.25 27.0002 33.25V29.75Z" fill="white"/>
</svg>