<svg xmlns="http://www.w3.org/2000/svg" width="54" height="54" viewBox="0 0 54 54" fill="none">
  <path d="M9.00024 21.7279C9.00024 19.8885 9.00024 18.9689 9.34279 18.1419C9.68533 17.3149 10.3356 16.6646 11.6363 15.364L13.1142 13.886C14.4148 12.5854 15.0652 11.9351 15.8921 11.5925C16.7191 11.25 17.6388 11.25 19.4782 11.25H34.5223C36.3617 11.25 37.2814 11.25 38.1084 11.5925C38.9353 11.9351 39.5856 12.5854 40.8863 13.886L42.3642 15.364C43.6648 16.6646 44.3152 17.3149 44.6577 18.1419C45.0002 18.9689 45.0002 19.8885 45.0002 21.7279V36C45.0002 40.2426 45.0002 42.364 43.6822 43.682C42.3642 45 40.2429 45 36.0002 45H18.0002C13.7576 45 11.6363 45 10.3183 43.682C9.00024 42.364 9.00024 40.2426 9.00024 36V21.7279Z" stroke="white" stroke-width="3.5"/>
  <path d="M9 19.5H45" stroke="white" stroke-width="3.5" stroke-linecap="round"/>
  <path d="M33.3748 18.25L20.6248 18.25C20.0944 18.25 19.8293 18.25 19.6645 18.4148C19.4998 18.5795 19.4998 18.8447 19.4998 19.375L19.4998 28.75C19.4998 30.4708 19.4998 31.3312 19.7223 31.7937C20.2191 32.826 21.4122 33.3202 22.4935 32.9415C22.9778 32.7719 23.5863 32.1635 24.8031 30.9467C25.3666 30.3831 25.6484 30.1013 25.948 29.9429C26.606 29.595 27.3935 29.595 28.0515 29.9429C28.3511 30.1013 28.6329 30.3831 29.1965 30.9467C30.4133 32.1635 31.0217 32.7719 31.506 32.9415C32.5873 33.3202 33.7804 32.826 34.2772 31.7937C34.4998 31.3312 34.4998 30.4708 34.4998 28.75V19.375C34.4998 18.8447 34.4998 18.5795 34.335 18.4148C34.1703 18.25 33.9051 18.25 33.3748 18.25Z" fill="white"/>
</svg>