<svg width="54" height="54" viewBox="0 0 54 54" fill="none" xmlns="http://www.w3.org/2000/svg">
<path d="M9.00024 21.7279C9.00024 19.8885 9.00024 18.9688 9.34279 18.1418C9.68533 17.3149 10.3356 16.6645 11.6363 15.3639L13.1142 13.886C14.4148 12.5853 15.0652 11.935 15.8921 11.5925C16.7191 11.2499 17.6388 11.2499 19.4782 11.2499H34.5223C36.3617 11.2499 37.2814 11.2499 38.1084 11.5925C38.9353 11.935 39.5856 12.5853 40.8863 13.886L42.3642 15.3639C43.6648 16.6645 44.3152 17.3149 44.6577 18.1418C45.0002 18.9688 45.0002 19.8885 45.0002 21.7279V35.9999C45.0002 40.2426 45.0002 42.3639 43.6822 43.6819C42.3642 44.9999 40.2429 44.9999 36.0002 44.9999H18.0002C13.7576 44.9999 11.6363 44.9999 10.3183 43.6819C9.00024 42.3639 9.00024 40.2426 9.00024 35.9999V21.7279Z" stroke="#5142FF" stroke-width="3.5"/>
<path d="M9 19.4999H45" stroke="#5142FF" stroke-width="3.5" stroke-linecap="round"/>
<path d="M33.3748 18.2499L20.6248 18.2499C20.0944 18.2499 19.8293 18.2499 19.6645 18.4147C19.4998 18.5794 19.4998 18.8446 19.4998 19.3749L19.4998 28.7499C19.4998 30.4708 19.4998 31.3312 19.7223 31.7936C20.2191 32.826 21.4122 33.3202 22.4935 32.9415C22.9778 32.7718 23.5863 32.1634 24.8031 30.9466C25.3666 30.3831 25.6484 30.1013 25.948 29.9429C26.606 29.5949 27.3935 29.5949 28.0515 29.9429C28.3511 30.1013 28.6329 30.3831 29.1965 30.9466C30.4133 32.1634 31.0217 32.7718 31.506 32.9415C32.5873 33.3202 33.7804 32.826 34.2772 31.7936C34.4998 31.3312 34.4998 30.4708 34.4998 28.7499V19.3749C34.4998 18.8446 34.4998 18.5794 34.335 18.4147C34.1703 18.2499 33.9051 18.2499 33.3748 18.2499Z" fill="#5142FF"/>
</svg>
