<svg width="42" height="42" viewBox="0 0 42 42" fill="none" xmlns="http://www.w3.org/2000/svg">
<g clip-path="url(#clip0_35_5919)">
<path d="M23.1266 7.36252C23.1266 8.62329 22.1028 9.64596 20.859 9.64596C19.6152 9.64596 18.5914 8.62329 18.5914 7.36252V2.79562C18.5914 1.53372 19.6152 0.512177 20.859 0.512177C22.1028 0.512177 23.1266 1.53372 23.1266 2.79562V7.36252Z" fill="#FFCC4D"/>
<path d="M10.8604 41.3278C10.6064 41.3278 10.3479 41.2689 10.1053 41.1475C9.27079 40.7235 8.93179 39.6963 9.34903 38.8494L19.4851 18.2972C19.7708 17.7167 20.3558 17.3505 20.9964 17.3505C21.637 17.3505 22.222 17.7167 22.5078 18.2972L32.6449 38.8494C33.0622 39.6963 32.7243 40.7235 31.8898 41.1475C31.0554 41.5693 30.0406 41.2269 29.6234 40.3811L20.9976 22.8924L12.3728 40.3811C12.0758 40.9809 11.4794 41.3278 10.8604 41.3278Z" fill="#FFAC33"/>
<path d="M20.9972 23.6326C20.699 23.6326 20.4122 23.5124 20.2013 23.2982L4.43372 7.3129C3.99381 6.86619 3.99381 6.14396 4.43372 5.69839C4.87363 5.25281 5.58678 5.25281 6.02556 5.69839L20.9972 20.8753L35.9666 5.69725C36.4076 5.25167 37.1197 5.25167 37.5596 5.69725C37.9995 6.14396 37.9995 6.86619 37.5596 7.31176L21.7943 23.2982C21.5822 23.5113 21.2965 23.6326 20.9972 23.6326Z" fill="#7586A9"/>
<path d="M39.0151 22.4909C39.0151 32.5793 30.9482 40.7573 20.9947 40.7573C11.0435 40.7573 2.97543 32.5793 2.97543 22.4909C2.97543 12.4002 11.0435 4.22217 20.9947 4.22217C30.9471 4.22103 39.0151 12.4002 39.0151 22.4909Z" fill="#29CA0F"/>
<path d="M34.5122 22.4905C34.5122 30.0574 28.4634 36.1912 20.9974 36.1912C13.5337 36.1912 7.48381 30.0574 7.48381 22.4905C7.48381 14.9225 13.5337 8.7887 20.9974 8.7887C28.4634 8.78756 34.5122 14.9225 34.5122 22.4905Z" fill="white"/>
<path d="M34.5098 1.93741C32.6436 1.93741 30.9554 2.70385 29.7321 3.94421L39.2887 13.6313C40.511 12.3921 41.2672 10.68 41.2672 8.78775C41.2672 5.00544 38.2411 1.93741 34.5098 1.93741ZM7.20825 1.93741C9.07333 1.93741 10.7627 2.70385 11.986 3.94421L2.42934 13.6313C1.20712 12.3921 0.450882 10.68 0.450882 8.78775C0.450882 5.00544 3.47583 1.93741 7.20825 1.93741Z" fill="#FFCC4D"/>
<path d="M26.5276 23.1879H20.8587C20.2328 23.1879 19.7249 22.6811 19.7249 22.0541V11.85C19.7249 11.2242 20.2328 10.7162 20.8587 10.7162C21.4845 10.7162 21.9925 11.2242 21.9925 11.85V20.9203H26.5276C27.1546 20.9203 27.6614 21.4283 27.6614 22.0541C27.6614 22.6811 27.1546 23.1879 26.5276 23.1879Z" fill="#655F8A"/>
</g>
<defs>
<clipPath id="clip0_35_5919">
<rect width="40.8163" height="40.8163" fill="white" transform="translate(0.450195 0.51239)"/>
</clipPath>
</defs>
</svg>
