<svg width="42" height="42" viewBox="0 0 42 42" fill="none" xmlns="http://www.w3.org/2000/svg">
<g clip-path="url(#clip0_35_5933)">
<path d="M17.2342 35.6596C17.2342 38.1642 16.3374 40.1948 13.833 40.1948H5.89684C1.3619 40.1948 1.3619 24.3217 5.89684 24.3217H13.833C16.3374 24.3217 17.2342 26.3524 17.2342 28.8569V35.6596Z" fill="#553788"/>
<path d="M38.7725 37.9272H37.6387V26.5894H38.7725C39.3994 26.5894 39.9062 26.0826 39.9062 25.4556C39.9062 24.8286 39.3994 24.3218 38.7725 24.3218H11.5628C7.02785 24.3218 7.02785 40.1948 11.5628 40.1948H38.7725C39.3994 40.1948 39.9062 39.688 39.9062 39.061C39.9062 38.4341 39.3994 37.9272 38.7725 37.9272Z" fill="#9266CC"/>
<path d="M38.9708 37.928H12.6999C10.4324 37.928 10.4324 26.5902 12.6999 26.5902H38.9708C40.2224 26.5902 40.2224 37.928 38.9708 37.928Z" fill="#CCD6DD"/>
<path d="M13.2659 28.8578H39.7386C39.5855 27.5256 39.3305 26.5902 38.9699 26.5902H12.699C10.8272 26.5902 10.5018 34.309 11.7206 37.0074C11.2762 33.6525 11.7909 28.8578 13.2659 28.8578Z" fill="#99AAB5"/>
<path d="M13.831 9.58113C13.831 12.0857 11.8004 14.1163 9.29601 14.1163H4.76107C0.226128 14.1163 0.226128 1.64462 4.76107 1.64462H9.29601C11.8004 1.64462 13.831 3.67523 13.831 6.17977V9.58113Z" fill="#226699"/>
<path d="M35.3716 11.8489H34.2379V3.91241H35.3716C35.9986 3.91241 36.5054 3.40561 36.5054 2.77862C36.5054 2.15164 35.9986 1.64484 35.3716 1.64484H8.16198C3.62704 1.64484 3.62704 14.1165 8.16198 14.1165H35.3716C35.9986 14.1165 36.5054 13.6097 36.5054 12.9827C36.5054 12.3557 35.9986 11.8489 35.3716 11.8489Z" fill="#55ACEE"/>
<path d="M35.5699 11.8501H9.29893C7.03146 11.8501 7.03146 3.91354 9.29893 3.91354H35.5699C36.8215 3.91354 36.8215 11.8501 35.5699 11.8501Z" fill="#CCD6DD"/>
<path d="M9.29277 6.18112H36.4174C36.2881 4.90561 36.0047 3.91354 35.5637 3.91354H9.29277C7.94022 3.91354 7.40056 6.73554 7.66246 9.01558C7.83932 7.4759 8.37784 6.18112 9.29277 6.18112Z" fill="#99AAB5"/>
<path d="M22.8983 19.7867C22.8983 22.2912 20.8677 24.3218 18.3633 24.3218H7.02596C2.49102 24.3218 2.49102 14.1177 7.02596 14.1177H18.3633C20.8677 14.1177 22.8983 16.1483 22.8983 18.6529V19.7867Z" fill="#F4900C"/>
<path d="M39.9044 22.0542H38.7707V16.3852H39.9044C40.5314 16.3852 41.0382 15.8784 41.0382 15.2514C41.0382 14.6244 40.5314 14.1176 39.9044 14.1176H17.2297C12.6948 14.1176 12.6948 24.3217 17.2297 24.3217H39.9044C40.5314 24.3217 41.0382 23.8149 41.0382 23.1879C41.0382 22.561 40.5314 22.0542 39.9044 22.0542Z" fill="#FFAC33"/>
<path d="M40.1012 22.0551H18.3652C16.0977 22.0551 16.0977 16.3861 18.3652 16.3861H40.1012C41.3528 16.3861 41.3528 22.0551 40.1012 22.0551Z" fill="#CCD6DD"/>
<path d="M18.3686 18.6537H41.0252C40.9515 17.4496 40.6465 16.3861 40.1046 16.3861H18.3686C16.9242 16.3861 16.4038 18.6843 16.8007 20.3543C17.0251 19.4031 17.5455 18.6537 18.3686 18.6537Z" fill="#99AAB5"/>
</g>
<defs>
<clipPath id="clip0_35_5933">
<rect width="40.8145" height="40.8163" fill="white" transform="translate(0.219696 0.512177)"/>
</clipPath>
</defs>
</svg>
