<svg width="42" height="42" viewBox="0 0 42 42" fill="none" xmlns="http://www.w3.org/2000/svg">
<g clip-path="url(#clip0_35_5983)">
<path d="M41.5866 36.7934C41.5866 39.2979 39.556 41.3285 37.0514 41.3285H5.30541C2.80088 41.3285 0.770264 39.2979 0.770264 36.7934V10.7163C0.770264 8.21173 2.80088 6.18112 5.30541 6.18112H37.0514C39.556 6.18112 41.5866 8.21173 41.5866 10.7163V36.7934Z" fill="white"/>
<path d="M39.319 0.512207H35.6036C35.7986 0.846674 35.9177 1.23103 35.9177 1.64599C35.9177 2.89769 34.9018 3.91357 33.6501 3.91357C32.3984 3.91357 31.3825 2.89769 31.3825 1.64599C31.3825 1.23103 31.5016 0.846674 31.6966 0.512207H10.6603C10.8553 0.846674 10.9743 1.23103 10.9743 1.64599C10.9743 2.89769 9.95847 3.91357 8.70677 3.91357C7.45507 3.91357 6.4392 2.89769 6.4392 1.64599C6.4392 1.23103 6.55825 0.846674 6.75326 0.512207H3.03784C1.78614 0.512207 0.770264 1.52808 0.770264 2.77978V15.2514H41.5866V2.77978C41.5866 1.52808 40.5707 0.512207 39.319 0.512207Z" fill="#DD2F45"/>
<path d="M27.6272 22.0533H27.0604C25.8302 22.0533 25.3166 21.2245 25.3166 20.3527C25.3166 19.4547 25.9572 18.652 27.0604 18.652H29.3449C30.447 18.652 31.0626 19.4468 31.0626 20.4717V35.0579C31.0626 36.3391 30.43 37.0567 29.3279 37.0567C28.2259 37.0567 27.6272 36.3391 27.6272 35.0579V22.0533Z" fill="#66757F"/>
<path d="M38.1836 12.9821C38.8098 12.9821 39.3174 12.4744 39.3174 11.8483C39.3174 11.2221 38.8098 10.7145 38.1836 10.7145C37.5574 10.7145 37.0498 11.2221 37.0498 11.8483C37.0498 12.4744 37.5574 12.9821 38.1836 12.9821Z" fill="#F3AAB9"/>
<path d="M38.1836 9.58129C38.8098 9.58129 39.3174 9.07368 39.3174 8.44751C39.3174 7.82133 38.8098 7.31372 38.1836 7.31372C37.5574 7.31372 37.0498 7.82133 37.0498 8.44751C37.0498 9.07368 37.5574 9.58129 38.1836 9.58129Z" fill="#F3AAB9"/>
<path d="M34.7774 12.9821C35.4036 12.9821 35.9112 12.4744 35.9112 11.8483C35.9112 11.2221 35.4036 10.7145 34.7774 10.7145C34.1512 10.7145 33.6436 11.2221 33.6436 11.8483C33.6436 12.4744 34.1512 12.9821 34.7774 12.9821Z" fill="#F3AAB9"/>
<path d="M34.7774 9.58129C35.4036 9.58129 35.9112 9.07368 35.9112 8.44751C35.9112 7.82133 35.4036 7.31372 34.7774 7.31372C34.1512 7.31372 33.6436 7.82133 33.6436 8.44751C33.6436 9.07368 34.1512 9.58129 34.7774 9.58129Z" fill="#F3AAB9"/>
<path d="M31.3785 12.9821C32.0046 12.9821 32.5123 12.4744 32.5123 11.8483C32.5123 11.2221 32.0046 10.7145 31.3785 10.7145C30.7523 10.7145 30.2447 11.2221 30.2447 11.8483C30.2447 12.4744 30.7523 12.9821 31.3785 12.9821Z" fill="#F3AAB9"/>
<path d="M31.3785 9.58129C32.0046 9.58129 32.5123 9.07368 32.5123 8.44751C32.5123 7.82133 32.0046 7.31372 31.3785 7.31372C30.7523 7.31372 30.2447 7.82133 30.2447 8.44751C30.2447 9.07368 30.7523 9.58129 31.3785 9.58129Z" fill="#F3AAB9"/>
<path d="M3.56769 6.11324C3.56769 5.61778 3.95998 5.22549 4.45544 5.22549H4.65159C5.03141 5.22549 5.29671 5.42163 5.45771 5.68581L7.6017 9.17787L9.7559 5.6756C9.93957 5.37628 10.1935 5.22662 10.5507 5.22662H10.7457C11.2412 5.22662 11.6334 5.61891 11.6334 6.11438V12.5203C11.6334 13.0157 11.2412 13.408 10.7457 13.408C10.2616 13.408 9.87041 13.0044 9.87041 12.5203V8.49873L8.31485 10.8956C8.13118 11.1711 7.90102 11.3445 7.57789 11.3445C7.25476 11.3445 7.0246 11.1722 6.84093 10.8956L5.30805 8.53274V12.5429C5.30805 13.0271 4.91576 13.4069 4.43277 13.4069C3.94977 13.4069 3.56882 13.0271 3.56882 12.5429V6.11324H3.56769ZM12.5507 12.1971L15.3613 5.84794C15.5575 5.4103 15.9146 5.14499 16.3988 5.14499H16.5019C16.9861 5.14499 17.3319 5.4103 17.528 5.84794L20.3387 12.1971C20.3965 12.323 20.4305 12.4386 20.4305 12.5543C20.4305 13.0271 20.062 13.4069 19.5892 13.4069C19.1743 13.4069 18.8976 13.1654 18.7366 12.7958L18.1958 11.5282H14.6471L14.0824 12.8536C13.9328 13.1994 13.6334 13.4069 13.2638 13.4069C12.8024 13.4069 12.4452 13.0384 12.4452 12.577C12.4464 12.45 12.4929 12.323 12.5507 12.1971ZM17.5393 9.96132L16.4226 7.29918L15.3046 9.96132H17.5393ZM21.2548 6.15973C21.2548 5.66426 21.6471 5.27197 22.1425 5.27197H24.943C25.9679 5.27197 26.7627 5.55996 27.2922 6.09057C27.7412 6.53955 27.9838 7.17333 27.9838 7.9341V7.95791C27.9838 9.22549 27.35 10.0089 26.3704 10.4126L27.6028 11.9103C27.7763 12.1291 27.892 12.3139 27.892 12.5906C27.892 13.086 27.477 13.4092 27.0507 13.4092C26.6482 13.4092 26.3817 13.213 26.1754 12.9477L24.4475 10.7584H23.0303V12.5214C23.0303 13.0169 22.638 13.4092 22.1437 13.4092C21.6482 13.4092 21.2559 13.0169 21.2559 12.5214V6.15973H21.2548ZM24.8273 9.19034C25.6913 9.19034 26.1867 8.72889 26.1867 8.04975V8.02594C26.1867 7.2663 25.6561 6.87401 24.7922 6.87401H23.0291V9.19034H24.8273Z" fill="white"/>
<path d="M10.7485 33.176L15.8981 28.9572C18.1498 27.1204 19.0296 26.1102 19.0296 24.6091C19.0296 23.083 18.0206 22.2542 16.5977 22.2542C15.4593 22.2542 14.6566 22.7463 13.6476 23.8325C13.3891 24.117 12.9231 24.4028 12.3018 24.4028C11.2927 24.4028 10.49 23.6 10.49 22.591C10.49 22.1511 10.6714 21.6851 10.9559 21.3483C12.4049 19.6658 14.1135 18.6828 16.8562 18.6828C20.609 18.6828 23.0931 20.8823 23.0931 24.2724V24.3245C23.0931 27.3517 21.541 28.8529 18.3312 31.337L15.3811 33.6148H21.6952C22.6532 33.6148 23.4299 34.3914 23.4299 35.3483C23.4299 36.3053 22.6532 37.0569 21.6952 37.0569H11.8618C10.6192 37.0569 9.71332 36.3585 9.71332 35.1681C9.71332 34.3914 10.0761 33.7191 10.7485 33.176Z" fill="#66757F"/>
</g>
<defs>
<clipPath id="clip0_35_5983">
<rect width="40.8163" height="40.8163" fill="white" transform="translate(0.770264 0.512207)"/>
</clipPath>
</defs>
</svg>
