<svg width="42" height="42" viewBox="0 0 42 42" fill="none" xmlns="http://www.w3.org/2000/svg">
<g clip-path="url(#clip0_35_5946)">
<path d="M31.0706 9.58325H21.0211V41.3293C27.8235 41.3293 32.3585 40.1955 33.9378 33.3758C34.8153 29.5867 35.8232 19.3905 35.8232 13.1479C35.8232 11.0334 34.1985 9.58325 31.0706 9.58325ZM10.6951 9.58325H21.0211V41.3293C14.2187 41.3293 9.68377 40.1955 7.96616 33.3758C7.01609 29.6037 6.0116 19.3905 6.0116 13.1479C6.0116 11.0334 7.56595 9.58325 10.6951 9.58325Z" fill="#8899A6"/>
<path d="M35.8172 12.417C35.8172 14.7651 32.2686 16.6687 21.014 16.6687C9.76054 16.6687 6.21082 14.7651 6.21082 12.417C6.21082 10.0678 9.76054 8.16528 21.014 8.16528C32.2686 8.16528 35.8172 10.0678 35.8172 12.417Z" fill="#CCD6DD"/>
<path d="M21.0461 15.2484L7.99792 14.118C7.99792 22.0545 9.24957 30.4241 9.90373 32.9071C10.6543 35.7518 13.0816 35.6384 21.0177 35.6577V35.6599V35.6577C28.9539 35.6373 31.4096 35.7518 32.159 32.9071C32.8143 30.4241 34.0784 22.0545 34.0784 14.118L21.0461 15.2484Z" fill="#CCD6DD"/>
<path d="M21.0175 24.3221V39.0613C28.9537 39.0613 31.2211 37.9275 32.1927 32.9071C32.466 31.4978 33.1077 28.2869 33.5238 24.3221H21.0175ZM8.56796 24.3221C8.98291 28.2869 9.60533 31.4956 9.87063 32.9071C10.8139 37.9275 13.0814 39.0613 21.0175 39.0613V24.3221H8.56796Z" fill="#55ACEE"/>
<path d="M21.0173 34.7086C15.852 34.7086 11.6651 35.7234 11.6651 36.9762C11.6651 36.9864 11.6707 36.9966 11.6719 37.008C13.2557 38.6066 16.0039 39.0624 21.0173 39.0624C26.0204 39.0624 28.7675 38.6089 30.3604 37.0182C30.3615 37.0046 30.3694 36.991 30.3694 36.9762C30.3694 35.7234 26.1826 34.7086 21.0173 34.7086Z" fill="#3B88C3"/>
<path d="M21.0179 26.5882C27.9155 26.5882 33.5071 25.573 33.5071 24.3206C33.5071 23.0683 27.9155 22.0531 21.0179 22.0531C14.1203 22.0531 8.52866 23.0683 8.52866 24.3206C8.52866 25.573 14.1203 26.5882 21.0179 26.5882Z" fill="#88C9F9"/>
<path d="M39.11 1.57537L31.3734 3.4994C30.522 3.71142 29.5991 4.1536 28.6071 4.90417C26.7444 6.31346 26.3646 8.22616 26.0607 9.28172L21.4034 25.4575H24.9429L29.3282 10.2239C29.6275 9.18534 29.9245 8.29419 30.6082 7.67401C31.2136 7.12525 32.2147 6.80212 33.1523 6.55949L39.9286 4.87809C40.8367 4.65246 41.3945 3.72616 41.17 2.818C40.9444 1.9087 40.0182 1.34974 39.11 1.57537Z" fill="#E1E8ED"/>
<path d="M21.4028 25.4543L18.3746 35.9724C18.1161 36.8715 18.6399 37.8182 19.5378 38.0779C20.4369 38.3364 21.3836 37.8126 21.6421 36.9146L24.9424 25.4543H21.4028Z" fill="#88C9F9"/>
<path d="M21.7483 26.2247L21.0817 26.5898L20.7722 27.6635L23.1145 31.8233L23.9943 28.7667L22.5646 26.2258L21.7483 26.2247Z" fill="#744EAA"/>
<path d="M32.248 3.281L30.9692 7.41592C31.5712 7.02249 32.3773 6.75832 33.1539 6.55764L33.6459 6.43519L34.8193 2.64154L32.248 3.281Z" fill="#DD2E44"/>
<path d="M19.9397 30.5563L19.0588 33.6142L21.2832 37.5654C21.4465 37.3817 21.5757 37.1652 21.6483 36.9146L22.2809 34.7162L19.9397 30.5563Z" fill="#744EAA"/>
<path d="M23.3405 18.7282L22.4596 21.7871L24.0253 24.5672L24.5604 24.6862L25.2701 24.32L25.6828 22.8892L23.3405 18.7282ZM39.7196 1.53885C39.5212 1.51504 39.316 1.52071 39.1108 1.57173L37.188 2.05019L36.0134 5.84497L38.5836 5.20665L39.7196 1.53885ZM24.1829 15.803L26.5252 19.9618L27.4049 16.9051L25.0638 12.7452L24.1829 15.803ZM28.5614 4.94248C27.6566 5.64202 27.1045 6.45948 26.7462 7.23499L28.2428 14.0014L29.3312 10.2203C29.406 9.95948 29.482 9.70778 29.5624 9.46742L28.5614 4.94248Z" fill="#DD2E44"/>
<path d="M21.7761 24.1855L21.0845 26.588C22.3248 26.5869 23.522 26.5529 24.6523 26.4905L25.3156 24.1867C24.2521 24.7343 22.0345 24.3919 21.7761 24.1855Z" fill="#55ACEE"/>
<path d="M34.1864 13.3335C33.912 12.5976 33.1048 12.228 32.3905 12.5126C28.3023 14.1181 24.4045 14.677 21.0124 14.7088V17.5342C24.7911 17.4956 29.0494 16.88 33.3848 15.1759C34.1025 14.8947 34.4619 14.0693 34.1864 13.3335ZM7.83836 13.3335C8.11272 12.5976 8.91994 12.228 9.6342 12.5126C13.7224 14.1181 17.6202 14.677 21.0124 14.7088V17.5342C17.2336 17.4956 12.9753 16.88 8.63991 15.1759C7.92339 14.8947 7.56286 14.0693 7.83836 13.3335Z" fill="white"/>
</g>
<defs>
<clipPath id="clip0_35_5946">
<rect width="40.8145" height="40.8163" fill="white" transform="translate(0.609802 0.512177)"/>
</clipPath>
</defs>
</svg>
