<svg width="42" height="45" viewBox="0 0 42 45" fill="none" xmlns="http://www.w3.org/2000/svg">
<g clip-path="url(#clip0_35_5896)">
<path d="M1.90961 28.3734V36.1979C1.90961 40.5207 10.5389 44.0236 21.184 44.0236C31.8291 44.0236 40.4584 40.5207 40.4584 36.1991V28.3746H1.90961V28.3734Z" fill="#99AAB5"/>
<path d="M21.184 36.1968C31.8289 36.1968 40.4584 32.6937 40.4584 28.3723C40.4584 24.0509 31.8289 20.5478 21.184 20.5478C10.539 20.5478 1.90961 24.0509 1.90961 28.3723C1.90961 32.6937 10.539 36.1968 21.184 36.1968Z" fill="#E1E8ED"/>
<path d="M21.1821 25.2422C28.7785 25.2422 35.1436 27.2384 36.9565 29.9371C37.2933 29.4357 37.4917 28.9139 37.4917 28.3717C37.4917 24.9143 30.1901 22.1114 21.1821 22.1114C12.1742 22.1114 4.87262 24.9143 4.87262 28.3717C4.87262 28.9127 5.07103 29.4357 5.40777 29.9371C7.22069 27.2384 13.5858 25.2422 21.1821 25.2422Z" fill="#AAB8C2"/>
<path d="M21.1829 34.6331C29.8948 34.6331 36.9573 32.5311 36.9573 29.9382C36.9573 27.3452 29.8948 25.2432 21.1829 25.2432C12.4709 25.2432 5.40851 27.3452 5.40851 29.9382C5.40851 32.5311 12.4709 34.6331 21.1829 34.6331Z" fill="#3B88C3"/>
<path d="M21.1844 27.4219C16.0857 27.4219 10.2717 28.9597 10.2717 29.9387C10.2717 30.9177 16.0869 32.4543 21.1844 32.4543C26.2819 32.4543 32.0971 30.9177 32.0971 29.9387C32.0971 28.9597 26.283 27.4219 21.1844 27.4219Z" fill="#50A5E6"/>
<path d="M17.7828 28.0037V29.6612C17.7828 30.323 19.3055 30.858 21.1841 30.858C23.0628 30.858 24.5855 30.323 24.5855 29.6612V28.0037H17.7828Z" fill="#E1E8ED"/>
<path d="M21.1841 29.2003C23.0627 29.2003 24.5855 28.6644 24.5855 28.0035C24.5855 27.3425 23.0627 26.8067 21.1841 26.8067C19.3056 26.8067 17.7828 27.3425 17.7828 28.0035C17.7828 28.6644 19.3056 29.2003 21.1841 29.2003Z" fill="#AAB8C2"/>
<path d="M10.9803 19.8309C10.3544 19.8309 9.8465 19.2947 9.8465 18.6341V17.095C9.8465 13.4652 12.6435 10.5128 16.0823 10.5128C19.5211 10.5128 22.3182 13.4652 22.3182 17.095C22.3182 17.7557 21.8113 18.2918 21.1844 18.2918C20.5585 18.2918 20.0506 17.7557 20.0506 17.095C20.0506 14.7853 18.2705 12.9063 16.0823 12.9063C13.8941 12.9063 12.1141 14.7853 12.1141 17.095V18.6341C12.1141 19.2947 11.6061 19.8309 10.9803 19.8309Z" fill="#1C6399"/>
<path d="M30.2543 22.4811C29.6273 22.4811 29.1205 21.945 29.1205 21.2843V19.9164C29.1205 17.937 27.5944 16.3261 25.7192 16.3261C23.8439 16.3261 22.3178 17.937 22.3178 19.9164C22.3178 20.5771 21.811 21.1132 21.184 21.1132C20.5582 21.1132 20.0502 20.5771 20.0502 19.9164C20.0502 16.6169 22.5933 13.9326 25.7192 13.9326C28.845 13.9326 31.3881 16.6169 31.3881 19.9164V21.2843C31.3881 21.945 30.8813 22.4811 30.2543 22.4811Z" fill="#88C9F9"/>
<path d="M37.057 14.2525C36.43 14.2525 35.9232 13.7163 35.9232 13.0557C35.9232 9.09559 32.8722 5.87507 29.1205 5.87507C25.3688 5.87507 22.3178 9.09559 22.3178 13.0557C22.3178 13.7163 21.811 14.2525 21.184 14.2525C20.5582 14.2525 20.0502 13.7163 20.0502 13.0557C20.0502 7.77675 24.1194 3.48152 29.1205 3.48152C34.1217 3.48152 38.1908 7.77675 38.1908 13.0557C38.1908 13.7163 37.684 14.2525 37.057 14.2525Z" fill="#1C6399"/>
<path d="M20.0506 28.0565H22.3181V10.513C22.3181 5.23398 18.249 0.938751 13.2478 0.938751C8.24671 0.938751 4.17755 5.23398 4.17755 10.513C4.17755 11.1736 4.68549 11.7097 5.31134 11.7097C5.93719 11.7097 6.44512 11.1736 6.44512 10.513C6.44512 6.55282 9.49615 3.3323 13.2478 3.3323C16.9995 3.3323 20.0506 6.55282 20.0506 10.513V28.0565Z" fill="#3B94D9"/>
<path d="M37.0571 18.89C37.6832 18.89 38.1909 18.3542 38.1909 17.6932C38.1909 17.0323 37.6832 16.4965 37.0571 16.4965C36.4309 16.4965 35.9233 17.0323 35.9233 17.6932C35.9233 18.3542 36.4309 18.89 37.0571 18.89Z" fill="#1C6399"/>
<path d="M30.2548 27.2677C30.8809 27.2677 31.3885 26.7319 31.3885 26.0709C31.3885 25.4099 30.8809 24.8741 30.2548 24.8741C29.6286 24.8741 29.121 25.4099 29.121 26.0709C29.121 26.7319 29.6286 27.2677 30.2548 27.2677Z" fill="#BBDDF5"/>
<path d="M38.1913 4.52909C38.8175 4.52909 39.3251 3.99328 39.3251 3.33232C39.3251 2.67136 38.8175 2.13554 38.1913 2.13554C37.5651 2.13554 37.0575 2.67136 37.0575 3.33232C37.0575 3.99328 37.5651 4.52909 38.1913 4.52909Z" fill="#BBDDF5"/>
<path d="M16.6489 26.0707C17.275 26.0707 17.7826 25.5349 17.7826 24.8739C17.7826 24.2129 17.275 23.6771 16.6489 23.6771C16.0227 23.6771 15.5151 24.2129 15.5151 24.8739C15.5151 25.5349 16.0227 26.0707 16.6489 26.0707Z" fill="#F2F9FF"/>
<path d="M30.2548 12.9066C30.8809 12.9066 31.3885 12.3708 31.3885 11.7098C31.3885 11.0489 30.8809 10.5131 30.2548 10.5131C29.6286 10.5131 29.121 11.0489 29.121 11.7098C29.121 12.3708 29.6286 12.9066 30.2548 12.9066Z" fill="#50A5E6"/>
<path d="M23.4516 3.3321C24.0778 3.3321 24.5854 2.79629 24.5854 2.13533C24.5854 1.47437 24.0778 0.938553 23.4516 0.938553C22.8254 0.938553 22.3178 1.47437 22.3178 2.13533C22.3178 2.79629 22.8254 3.3321 23.4516 3.3321Z" fill="#1C6399"/>
<path d="M10.9803 23.6773C11.6065 23.6773 12.1141 23.1415 12.1141 22.4805C12.1141 21.8196 11.6065 21.2837 10.9803 21.2837C10.3541 21.2837 9.8465 21.8196 9.8465 22.4805C9.8465 23.1415 10.3541 23.6773 10.9803 23.6773Z" fill="#1C6399"/>
<path d="M5.31134 17.6938C5.93751 17.6938 6.44512 17.1579 6.44512 16.497C6.44512 15.836 5.93751 15.3002 5.31134 15.3002C4.68516 15.3002 4.17755 15.836 4.17755 16.497C4.17755 17.1579 4.68516 17.6938 5.31134 17.6938Z" fill="#3B94D9"/>
<path d="M13.2479 8.11921C13.874 8.11921 14.3816 7.5834 14.3816 6.92244C14.3816 6.26148 13.874 5.72566 13.2479 5.72566C12.6217 5.72566 12.1141 6.26148 12.1141 6.92244C12.1141 7.5834 12.6217 8.11921 13.2479 8.11921Z" fill="#88C9F9"/>
</g>
<defs>
<clipPath id="clip0_35_5896">
<rect width="40.8163" height="43.0839" fill="white" transform="translate(0.776001 0.938751)"/>
</clipPath>
</defs>
</svg>
