<svg width="41" height="42" viewBox="0 0 41 42" fill="none" xmlns="http://www.w3.org/2000/svg">
<g clip-path="url(#clip0_35_5962)">
<path d="M20.4071 23.6548C9.78288 23.6548 1.17102 23.3997 1.17102 30.9417C1.17102 38.4802 9.78288 40.1956 20.4071 40.1956C31.0314 40.1956 39.6432 38.4802 39.6432 30.9417C39.6432 23.4009 31.0314 23.6548 20.4071 23.6548Z" fill="#D99E82"/>
<path d="M39.0828 24.226C39.0828 24.226 29.7646 23.1104 20.4101 23.0627C11.0557 23.1104 1.7375 24.226 1.7375 24.226C0.81577 31.5661 8.46849 34.59 20.4101 34.59C32.3518 34.59 40.0045 31.5661 39.0828 24.226Z" fill="#662113"/>
<path d="M38.4174 21.2925L2.30224 22.025C1.05513 22.025 0.0109639 24.5522 1.33403 25.2132C11.2066 28.2835 19.1428 31.39 19.1428 31.39C20.2334 31.9932 20.6019 31.9955 21.6937 31.3934C21.6937 31.3934 32.6524 27.008 39.6917 25.1656C40.6905 24.9048 39.6634 21.2925 38.4174 21.2925Z" fill="#FFCC4D"/>
<path d="M39.3647 21.3853C37.2106 19.4001 37.3353 20.4568 35.6846 19.9908C35.0576 19.8139 30.5714 14.0146 20.3463 14.0146H20.3236C10.0984 14.0146 5.61223 19.8139 4.98527 19.9908C3.33455 20.4568 3.45926 19.4001 1.30516 21.3853C0.316546 22.2969 0.0489843 22.7708 1.09202 23.0066C2.66338 23.3615 2.52053 24.3128 3.64633 24.6438C5.00908 25.0441 5.56914 24.3128 7.76632 24.6121C9.64039 24.8672 9.76283 27.298 11.6539 27.298C13.545 27.298 13.545 26.391 15.4349 26.391C17.3249 26.391 18.4427 28.8241 20.3338 28.8241C22.2249 28.8241 23.3416 26.391 25.2327 26.391C27.1237 26.391 27.1237 27.298 29.0137 27.298C30.9047 27.298 31.0272 24.8672 32.9012 24.6121C35.0984 24.3139 35.6596 25.0441 37.0212 24.6438C38.147 24.3128 38.0042 23.3627 39.5755 23.0066C40.6209 22.772 40.3544 22.2969 39.3647 21.3853Z" fill="#77B255"/>
<path d="M38.6348 19.2436C38.6348 22.6268 30.4742 24.2243 20.4077 24.2243C10.3413 24.2243 2.18066 22.6268 2.18066 19.2436C2.18066 13.1177 3.27585 13.1177 20.4077 13.1177C37.5396 13.1177 38.6348 13.1188 38.6348 19.2436Z" fill="#DD2E44"/>
<path d="M20.4071 1.10678C9.78288 1.10678 1.17102 6.08524 1.17102 13.6261C1.17102 20.5705 9.78288 20.8539 20.4071 20.8539C31.0314 20.8539 39.6432 20.5705 39.6432 13.6261C39.6432 6.08411 31.0314 1.10678 20.4071 1.10678Z" fill="#D99E82"/>
<path d="M12.2279 4.70148C11.6633 4.33981 10.9139 4.50534 10.5533 5.06996C10.1928 5.63459 10.3572 6.38516 10.9218 6.74457C11.4864 7.10625 12.9172 7.37609 13.2788 6.81146C13.6394 6.24684 12.7925 5.06203 12.2279 4.70148ZM23.2636 3.52801C22.6265 3.73436 21.5075 4.6686 21.715 5.30579C21.9224 5.94298 23.3747 6.04049 24.0119 5.83414C24.6491 5.62779 24.9971 4.94298 24.7896 4.30579C24.5833 3.66974 23.8985 3.32053 23.2636 3.52801ZM35.6316 11.5042C35.1191 11.0734 33.8346 11.7593 33.4026 12.2718C32.9718 12.7854 33.0387 13.5496 33.5512 13.9804C34.0636 14.4112 34.8289 14.3443 35.2597 13.8319C35.6917 13.3183 36.1451 11.935 35.6316 11.5042ZM31.5014 5.83527C30.9368 5.47473 30.1874 5.64026 29.8257 6.20488C29.4652 6.76951 29.6307 7.51894 30.1953 7.87949C30.7599 8.24117 32.1907 8.51101 32.5512 7.94638C32.9129 7.38062 32.066 6.19581 31.5014 5.83527ZM14.4953 13.7718C13.9307 13.4112 13.1813 13.5768 12.8197 14.1414C12.4591 14.7049 12.6247 15.4555 13.1893 15.8149C13.7539 16.1765 15.1846 16.4475 15.5452 15.8818C15.9068 15.3171 15.0599 14.1323 14.4953 13.7718ZM17.9487 8.32053C17.5677 8.87155 17.2458 10.2922 17.7979 10.6731C18.3489 11.0541 19.5631 10.2491 19.9441 9.69808C20.325 9.14706 20.1855 8.39196 19.6345 8.01101C19.0847 7.63005 18.3285 7.76951 17.9487 8.32053ZM26.9664 13.7718C26.4018 13.4112 25.6524 13.5768 25.2908 14.1414C24.9302 14.7049 25.0958 15.4566 25.6604 15.8149C26.225 16.1765 27.6557 16.4475 28.0163 15.8818C28.3779 15.3171 27.531 14.1323 26.9664 13.7718ZM5.61137 9.36475C5.16468 9.86475 4.66697 11.2332 5.16695 11.6799C5.66466 12.1267 6.97072 11.4827 7.41741 10.9827C7.86524 10.4838 7.82216 9.71736 7.32331 9.26951C6.8256 8.8228 6.05806 8.86588 5.61137 9.36475Z" fill="#FFE8B6"/>
</g>
<defs>
<clipPath id="clip0_35_5962">
<rect width="40.8145" height="40.8163" fill="white" transform="translate(-0.000701904 0.512085)"/>
</clipPath>
</defs>
</svg>
