<svg width="42" height="41" viewBox="0 0 42 41" fill="none" xmlns="http://www.w3.org/2000/svg">
<g clip-path="url(#clip0_35_5853)">
<path d="M24.1636 25.5847C21.0956 25.2094 19.7475 23.4849 17.0514 20.0416C20.4969 17.3477 22.2203 15.9996 25.2895 16.3738C28.362 16.7502 31.2418 18.6595 32.4017 21.9169C30.4935 24.8001 27.235 25.9565 24.1636 25.5847ZM17.4074 35.5779C14.5173 35.3658 13.1749 33.8171 10.4935 30.7162C13.5944 28.0359 15.1443 26.6946 18.0355 26.9021C20.9278 27.1119 23.7146 28.7661 24.9493 31.7627C23.2951 34.5495 20.3008 35.7853 17.4074 35.5779ZM10.3552 17.7695C11.8722 19.6187 11.7056 21.3035 11.3734 24.672C8.006 24.3386 6.3212 24.1731 4.80306 22.3239C3.28492 20.4713 2.69308 17.8624 3.78492 15.4214C6.39376 14.8273 8.83707 15.9191 10.3552 17.7695ZM34.2963 11.5926C31.5355 12.7491 29.5797 11.9486 25.6647 10.3488C27.2645 6.43386 28.0661 4.47581 30.8223 3.31595C33.582 2.15835 36.9198 2.37944 39.4527 4.55858C39.2328 7.89645 37.0525 10.4327 34.2963 11.5926ZM19.8393 7.56425C20.8303 10.8171 19.6987 12.9407 17.4368 17.1878C13.1908 14.9248 11.0661 13.7933 10.074 10.5393C9.08083 7.28307 9.71689 3.5325 12.4754 0.913452C16.226 1.54951 18.8461 4.30688 19.8393 7.56425Z" fill="#77B255"/>
<path d="M10.0742 10.5389C11.0515 13.7453 13.1377 14.8961 17.2601 17.0934V17.0877C17.1808 14.2294 14.1615 4.75663 12.4223 0.972046C9.71364 3.58883 9.08779 7.30651 10.0742 10.5389ZM3.73405 15.5605C2.72498 17.9618 3.31341 20.5061 4.80321 22.3235C6.32248 24.1739 8.00729 24.3383 11.3735 24.6716C10.2431 22.4754 5.80548 17.429 3.73405 15.5605Z" fill="#A6D388"/>
<path d="M25.29 16.3738C22.3841 16.02 20.6676 17.2241 17.5712 19.638C19.5508 19.757 27.5327 20.4826 32.3785 21.9475C32.3853 21.9361 32.3955 21.9282 32.4023 21.9169C31.2424 18.6595 28.3626 16.7502 25.29 16.3738ZM24.9454 31.7536C23.7084 28.7638 20.9261 27.1119 18.0361 26.9021C15.2016 26.6992 13.6483 27.9917 10.6687 30.5665C13.8059 30.2207 19.6313 29.5801 24.9454 31.7536Z" fill="#5C913B"/>
<path d="M25.8688 10.4317C29.6409 11.9726 31.5865 12.7265 34.2951 11.5927C37.0377 10.4385 39.2067 7.9204 39.4448 4.60861C34.998 5.47142 27.6636 9.31383 25.8688 10.4317Z" fill="#A6D388"/>
<path d="M5.83548 39.8236C5.17334 39.7204 4.29012 38.8814 4.39217 38.2181C5.01121 34.1796 7.63253 24.4222 25.1382 10.1512C25.6575 9.72605 26.2448 9.40406 26.6847 9.91086C27.128 10.4177 26.6257 10.988 26.1201 11.429C11.0543 24.5469 8.53049 34.9369 7.95339 38.7136C7.85022 39.3768 6.49874 39.9233 5.83548 39.8236Z" fill="#A06253"/>
</g>
<defs>
<clipPath id="clip0_35_5853">
<rect width="40.8163" height="40.8163" fill="white" transform="translate(0.449203 0.0725555)"/>
</clipPath>
</defs>
</svg>
