<svg xmlns="http://www.w3.org/2000/svg" width="50" height="50" viewBox="0 0 50 50" fill="none">
  <path d="M14.9268 29.8911C17.2435 29.8911 25.2463 35.9258 25.2421 43.3647C25.2463 50.8064 4.61296 50.8064 4.61157 43.3633C4.61296 35.9244 12.6102 29.8911 14.9268 29.8911Z" fill="#99AAB5"/>
  <path d="M11.8618 34.9755C24.1382 47.2533 35.941 42.1464 39.6854 38.4047C43.4285 34.6603 39.466 24.6325 30.8368 16.0033C22.2049 7.37277 12.1757 3.41027 8.43264 7.15333C4.68959 10.8964 -0.415967 22.6992 11.8618 34.9755Z" fill="#CCD6DD"/>
  <path d="M17.2798 29.5534C25.9104 38.1839 35.9381 42.145 39.6826 38.4034C43.4256 34.6589 39.4631 24.6311 30.834 16.002C22.2034 7.3728 12.1742 3.4103 8.43119 7.15335C4.68813 10.8964 8.65063 20.9256 17.2798 29.5534Z" fill="#66757F"/>
  <path d="M30.8338 16.0021C31.4491 16.6187 31.4491 17.6173 30.8338 18.234L20.7879 28.2771C20.1713 28.8937 19.1727 28.8937 18.556 28.2771C17.9393 27.6618 17.9393 26.6618 18.556 26.0451L28.6004 16.0021C29.2185 15.3854 30.2157 15.3854 30.8338 16.0021Z" fill="#CCD6DD"/>
  <path d="M33.0694 13.7708C34.3014 15.0027 34.3014 17.0027 33.0694 18.2347C31.8361 19.468 29.8375 19.468 28.6041 18.2347C27.3722 17.0027 27.3722 15.0027 28.6041 13.7708C29.8361 12.536 31.8361 12.536 33.0694 13.7708Z" fill="#CCD6DD"/>
  <path d="M39.287 18.1633L39.2161 18.1619C38.4495 18.1244 37.8606 17.4717 37.8981 16.7064C37.8995 16.6842 37.9856 13.7105 35.7036 11.4286C33.4286 9.15498 30.4647 9.23554 30.4245 9.23415C29.6606 9.27998 29.0064 8.68137 28.9675 7.91748C28.93 7.15082 29.5189 6.49804 30.2856 6.46054C30.455 6.44387 34.4911 6.28971 37.6661 9.46471C40.8425 12.6425 40.68 16.6744 40.6717 16.8453C40.6356 17.5855 40.0217 18.1633 39.287 18.1633Z" fill="#FFAC33"/>
  <path d="M44.2311 17.3918C44.0797 17.3918 43.9242 17.3654 43.7728 17.3126C43.0492 17.0584 42.6672 16.2668 42.9214 15.5432C42.9686 15.3946 44.1617 11.5487 39.8728 7.26122C35.5311 2.91816 31.3645 3.90844 31.1895 3.95288C30.4547 4.14316 29.6936 3.69733 29.5006 2.95983C29.3061 2.22233 29.7395 1.46816 30.4742 1.26955C30.7103 1.20566 36.3145 -0.226282 41.8367 5.29872C47.4145 10.8737 45.6228 16.2376 45.5422 16.464C45.3422 17.0334 44.8047 17.3918 44.2311 17.3918Z" fill="#FFAC33"/>
  <path d="M15.1602 45.1684C11.1324 45.1684 7.46157 44.2545 4.65185 42.7559C4.64074 42.9586 4.61157 43.1586 4.61157 43.3642C4.61296 50.8072 25.2463 50.8072 25.2421 43.3656C25.2421 43.2406 25.2213 43.1197 25.2171 42.9961C22.4713 44.3517 18.9727 45.1684 15.1602 45.1684Z" fill="#66757F"/>
</svg>