<svg width="40" height="40" viewBox="0 0 40 40" fill="none" xmlns="http://www.w3.org/2000/svg">
<g clip-path="url(#clip0_887_1196)">
<path d="M26.2827 25.8868L14.1172 13.7212L24.5461 5.03125L34.9739 15.459L26.2827 25.8868Z" fill="#2F5FDD"/>
<path d="M38.4485 15.4569C36.5296 17.378 33.4174 17.378 31.4985 15.4569L24.5463 8.50578C22.6252 6.58689 22.6252 3.47245 24.5463 1.55245C26.4641 -0.366441 29.5774 -0.366441 31.4985 1.55245L38.4485 8.50578C40.3685 10.4247 40.3685 13.538 38.4485 15.4569Z" fill="#5886FF"/>
<path d="M15.5561 19.8047C15.5561 19.8047 -0.658367 38.9225 0.209411 39.7936C1.0783 40.6636 20.1972 24.4458 20.1972 24.4458L15.5561 19.8047Z" fill="#99AAB5"/>
<path d="M28.0179 31.1016C26.1001 33.0227 22.9868 33.0227 21.0645 31.1016L8.9001 18.9349C6.98122 17.0149 6.98122 13.9038 8.9001 11.9838C10.8201 10.0627 13.9334 10.0627 15.8534 11.9838L28.0179 24.1494C29.9379 26.0705 29.9379 29.1805 28.0179 31.1016Z" fill="#5886FF"/>
</g>
<defs>
<clipPath id="clip0_887_1196">
<rect width="40" height="40" fill="white"/>
</clipPath>
</defs>
</svg>
