<svg width="42" height="41" viewBox="0 0 42 41" fill="none" xmlns="http://www.w3.org/2000/svg">
<g clip-path="url(#clip0_35_5864)">
<path d="M41.0411 23.7882C41.0411 23.0081 37.7587 23.2213 37.498 22.6544C37.2372 22.0875 41.1352 17.4571 40.5683 16.4185C40.0014 15.38 34.8018 17.7417 34.4742 17.2213C34.1476 16.702 34.8052 13.253 34.2383 12.8278C33.6714 12.4027 28.286 18.4015 27.5297 17.6941C26.7746 16.9854 29.278 5.78929 28.761 5.5648C28.244 5.34031 24.8846 7.11242 24.4606 7.01832C24.0365 6.92308 21.4061 0.0727386 20.6329 0.0727386C19.8597 0.0727386 17.2293 6.92308 16.8052 7.01718C16.3812 7.11129 13.0218 5.33918 12.5048 5.56367C11.9878 5.78816 14.4912 16.9843 13.7349 17.6929C12.9798 18.4015 7.59435 12.4027 7.02745 12.8278C6.46056 13.253 7.11816 16.702 6.79162 17.2213C6.46396 17.7405 1.26441 15.3789 0.697521 16.4185C0.130627 17.4582 4.02972 22.0875 3.76782 22.6544C3.50591 23.2213 0.224731 23.0081 0.224731 23.7882C0.224731 24.5682 9.79162 29.7235 10.4288 30.3312C11.066 30.9378 7.12496 33.5081 7.68845 33.9922C8.34151 34.5546 12.0411 33.0512 19.4991 32.9072V39.7553C19.4991 40.3823 20.007 40.8891 20.6329 40.8891C21.2599 40.8891 21.7667 40.3823 21.7667 39.7553V32.9072C29.2236 33.0512 32.9243 34.5546 33.5773 33.9922C34.1397 33.507 30.1998 30.9378 30.837 30.3312C31.4742 29.7235 41.0411 24.5671 41.0411 23.7882Z" fill="#DD2E44"/>
</g>
<defs>
<clipPath id="clip0_35_5864">
<rect width="40.8163" height="40.8163" fill="white" transform="translate(0.224731 0.0727386)"/>
</clipPath>
</defs>
</svg>
