<svg width="42" height="42" viewBox="0 0 42 42" fill="none" xmlns="http://www.w3.org/2000/svg">
<g clip-path="url(#clip0_35_5928)">
<path d="M0.836456 33.3925C0.836456 35.8971 2.86707 37.9277 5.3716 37.9277H32.5825C35.087 37.9277 37.1176 35.8971 37.1176 33.3925V14.1181C37.1176 11.6136 35.087 9.583 32.5825 9.583H22.3784C18.3399 9.583 18.977 3.91406 12.8115 3.91406H5.3716C2.86707 3.91406 0.836456 5.94467 0.836456 8.44921V33.3925Z" fill="#2F5FDD"/>
<path d="M37.4986 14.1181H30.0587C23.8931 14.1181 23.9555 19.7871 19.917 19.7871H9.71287C7.20834 19.7871 4.97138 21.8177 4.71741 24.3222L4.15845 28.7145L3.56435 33.3925L3.54167 33.3902C3.41015 34.0784 2.77977 34.5229 2.06775 34.5229C1.33872 34.5229 0.813781 33.9481 0.850062 33.2258C0.847794 33.2825 0.836456 33.3358 0.836456 33.3925C0.836456 35.6646 2.51219 37.5286 4.69133 37.8585C4.89201 37.9016 5.11197 37.9277 5.3716 37.9277H34.8501C37.3546 37.9277 39.5916 35.897 39.8455 33.3925L41.5723 18.6533C41.8274 16.1487 40.0031 14.1181 37.4986 14.1181Z" fill="#5786FF"/>
</g>
<defs>
<clipPath id="clip0_35_5928">
<rect width="40.8163" height="40.8163" fill="white" transform="translate(0.836731 0.51236)"/>
</clipPath>
</defs>
</svg>
