<svg width="42" height="41" viewBox="0 0 42 41" fill="none" xmlns="http://www.w3.org/2000/svg">
<g clip-path="url(#clip0_35_5886)">
<path d="M12.5726 24.4732C14.4638 24.4732 20.9966 29.3995 20.9932 35.472C20.9966 41.5469 4.15311 41.5469 4.15198 35.4709C4.15311 29.3983 10.6815 24.4732 12.5726 24.4732Z" fill="#99AAB5"/>
<path d="M10.0706 28.6235C20.0922 38.6462 29.7271 34.4772 32.7838 31.4228C35.8393 28.3661 32.6047 20.1802 25.5604 13.136C18.5139 6.09063 10.3269 2.85593 7.27132 5.91149C4.21576 8.96704 0.0479622 18.602 10.0706 28.6235Z" fill="#CCD6DD"/>
<path d="M14.4932 24.1974C21.5385 31.2428 29.7244 34.4763 32.7811 31.4219C35.8367 28.3652 32.602 20.1793 25.5578 13.1351C18.5124 6.09084 10.3254 2.85615 7.2698 5.91171C4.21424 8.96726 7.44894 17.1543 14.4932 24.1974Z" fill="#66757F"/>
<path d="M25.5579 13.1353C26.0602 13.6387 26.0602 14.4539 25.5579 14.9573L17.3573 23.1557C16.8539 23.6591 16.0387 23.6591 15.5353 23.1557C15.0319 22.6534 15.0319 21.8371 15.5353 21.3337L23.7348 13.1353C24.2393 12.6319 25.0534 12.6319 25.5579 13.1353Z" fill="#CCD6DD"/>
<path d="M27.3826 11.3136C28.3883 12.3193 28.3883 13.952 27.3826 14.9576C26.3758 15.9644 24.7443 15.9644 23.7375 14.9576C22.7318 13.952 22.7318 12.3193 23.7375 11.3136C24.7431 10.3057 26.3758 10.3057 27.3826 11.3136Z" fill="#CCD6DD"/>
<path d="M32.4591 14.8992L32.4013 14.898C31.7754 14.8674 31.2947 14.3346 31.3253 13.7098C31.3265 13.6917 31.3968 11.2643 29.5339 9.40145C27.6768 7.54544 25.2573 7.6112 25.2244 7.61006C24.6008 7.64748 24.0668 7.15882 24.0351 6.53523C24.0045 5.90938 24.4852 5.3765 25.111 5.34589C25.2494 5.33229 28.5441 5.20644 31.136 7.79827C33.729 10.3924 33.5963 13.6838 33.5895 13.8232C33.56 14.4275 33.0589 14.8992 32.4591 14.8992Z" fill="#FFAC33"/>
<path d="M36.4949 14.2695C36.3713 14.2695 36.2443 14.248 36.1207 14.2049C35.53 13.9974 35.2182 13.3511 35.4257 12.7604C35.4643 12.6391 36.4382 9.49967 32.9371 5.99967C29.3928 2.45432 25.9915 3.26271 25.8486 3.29899C25.2488 3.45432 24.6275 3.09037 24.4699 2.48833C24.3112 1.88629 24.6649 1.27064 25.2647 1.10851C25.4575 1.05636 30.0323 -0.112576 34.5402 4.39763C39.0935 8.94865 37.6309 13.3273 37.5652 13.5121C37.4019 13.977 36.9631 14.2695 36.4949 14.2695Z" fill="#FFAC33"/>
<path d="M12.7631 36.9442C9.47511 36.9442 6.47851 36.1982 4.18486 34.9748C4.17579 35.1404 4.15198 35.3036 4.15198 35.4714C4.15311 41.5474 20.9966 41.5474 20.9932 35.4726C20.9932 35.3705 20.9762 35.2719 20.9728 35.171C18.7313 36.2776 15.8753 36.9442 12.7631 36.9442Z" fill="#66757F"/>
</g>
<defs>
<clipPath id="clip0_35_5886">
<rect width="40.8163" height="40.8163" fill="white" transform="translate(0.387756 0.0725555)"/>
</clipPath>
</defs>
</svg>
