<svg width="42" height="41" viewBox="0 0 42 41" fill="none" xmlns="http://www.w3.org/2000/svg">
<g clip-path="url(#clip0_35_5867)">
<path d="M21.0208 40.8888C27.2825 40.8888 32.3587 35.8127 32.3587 29.551C32.3587 23.2892 27.2825 18.2131 21.0208 18.2131C14.7591 18.2131 9.68292 23.2892 9.68292 29.551C9.68292 35.8127 14.7591 40.8888 21.0208 40.8888Z" fill="#E1E8ED"/>
<path d="M14.2188 12.5444C14.2188 8.78704 17.2641 5.74168 21.0215 5.74168C24.7777 5.74168 27.8242 8.78704 27.8242 12.5444C27.8242 16.3018 24.7777 19.3471 21.0215 19.3471C17.2641 19.3471 14.2188 16.3018 14.2188 12.5444Z" fill="#E1E8ED"/>
<path d="M26.6892 6.87546C26.6892 8.12716 25.6733 9.14303 24.4216 9.14303H17.6189C16.3672 9.14303 15.3513 8.12716 15.3513 6.87546V2.34031C15.3513 1.08861 16.3672 0.0727386 17.6189 0.0727386H24.4216C25.6733 0.0727386 26.6892 1.08861 26.6892 2.34031V6.87546Z" fill="#414042"/>
<path d="M28.9567 8.00926C28.9567 8.63511 28.4499 9.14305 27.8229 9.14305H14.2175C13.5916 9.14305 13.0837 8.63511 13.0837 8.00926C13.0837 7.38341 13.5916 6.87547 14.2175 6.87547H27.8229C28.4499 6.87547 28.9567 7.38341 28.9567 8.00926Z" fill="#231F20"/>
<path d="M26.1235 17.0796H15.9194C14.9795 17.0796 14.2188 17.8403 14.2188 18.7803C14.2188 19.5195 14.6938 20.1431 15.3525 20.3766V28.4174C15.3525 29.0444 15.8605 29.5512 16.4863 29.5512H17.6201C18.246 29.5512 18.7539 29.0444 18.7539 28.4174V20.4809H26.1235C27.0623 20.4809 27.8242 19.7202 27.8242 18.7803C27.8242 17.8403 27.0623 17.0796 26.1235 17.0796Z" fill="#DD2E44"/>
<path d="M22.1548 27.2835C22.1548 27.9105 21.648 28.4173 21.021 28.4173C20.3952 28.4173 19.8872 27.9105 19.8872 27.2835C19.8872 26.6565 20.3952 26.1497 21.021 26.1497C21.648 26.1497 22.1548 26.6565 22.1548 27.2835ZM22.1548 32.9525C22.1548 33.5794 21.648 34.0862 21.021 34.0862C20.3952 34.0862 19.8872 33.5794 19.8872 32.9525C19.8872 32.3255 20.3952 31.8187 21.021 31.8187C21.648 31.8187 22.1548 32.3255 22.1548 32.9525Z" fill="#414042"/>
<path d="M22.1549 13.6782C22.1549 14.3052 21.6481 14.812 21.0211 14.812C20.3952 14.812 19.8873 14.3052 19.8873 13.6782C19.8873 13.0512 20.3952 12.5444 21.0211 12.5444C21.6481 12.5444 22.1549 13.0512 22.1549 13.6782Z" fill="#F4900C"/>
<path d="M18.7531 11.4106C18.7531 12.0376 18.2451 12.5444 17.6193 12.5444C16.9934 12.5444 16.4855 12.0376 16.4855 11.4106C16.4855 10.7836 16.9934 10.2768 17.6193 10.2768C18.2451 10.2768 18.7531 10.7836 18.7531 11.4106ZM25.5558 11.4106C25.5558 12.0376 25.049 12.5444 24.422 12.5444C23.795 12.5444 23.2882 12.0376 23.2882 11.4106C23.2882 10.7836 23.795 10.2768 24.422 10.2768C25.049 10.2768 25.5558 10.7836 25.5558 11.4106Z" fill="#414042"/>
<path d="M12.3973 22.8404L8.48349 21.1635L7.86331 17.9141C7.7454 17.2996 7.15583 16.8971 6.53678 17.0127C5.92227 17.1307 5.51864 17.7236 5.63542 18.3393L5.96875 20.0853L4.46082 19.439C3.88485 19.1907 3.21819 19.4595 2.97216 20.0343C2.72499 20.6102 2.99256 21.2769 3.56739 21.5229L4.4098 21.8835L3.21252 23.0808C2.76921 23.5241 2.76921 24.2406 3.21252 24.6839C3.43361 24.905 3.72386 25.0161 4.01411 25.0161C4.30436 25.0161 4.5946 24.905 4.81569 24.6839L6.65356 22.8461L11.5039 24.9243C11.649 24.9878 11.801 25.0161 11.9506 25.0161C12.3905 25.0161 12.8089 24.7588 12.9926 24.3291C13.2397 23.7531 12.9722 23.0876 12.3973 22.8404ZM38.386 19.405L36.725 18.8517L37.6944 17.8824C38.1377 17.439 38.1377 16.7225 37.6944 16.2792C37.2511 15.8359 36.5345 15.8359 36.0912 16.2792L35.2397 17.1307L34.5912 14.5377C34.4393 13.9311 33.8225 13.557 33.2171 13.7134C32.6093 13.8653 32.2397 14.481 32.3928 15.0887L33.3701 19.0003L29.2885 23.0819C28.8452 23.5252 28.8452 24.2418 29.2885 24.6851C29.5107 24.905 29.801 25.0161 30.0912 25.0161C30.3815 25.0161 30.6717 24.905 30.8928 24.6839L34.9325 20.6443L37.6683 21.557C37.7885 21.5966 37.9098 21.6148 38.0277 21.6148C38.5028 21.6148 38.9449 21.3143 39.1025 20.8393C39.301 20.2452 38.9801 19.6034 38.386 19.405Z" fill="#FFAC33"/>
<path d="M12.0411 2.46802C11.8676 2.20838 11.5161 2.13695 11.2553 2.31156L10.2497 2.98163V1.77301C10.2497 1.46008 9.9957 1.20612 9.68277 1.20612C9.36985 1.20612 9.11588 1.46008 9.11588 1.77301V2.98163L8.11021 2.31156C7.84831 2.13695 7.49797 2.20838 7.3245 2.46802C7.15103 2.72766 7.22132 3.08027 7.48209 3.25373L8.66123 4.04058L7.48209 4.8263C7.22132 5.0009 7.15103 5.35237 7.3245 5.61315C7.43334 5.77754 7.61361 5.86598 7.79729 5.86598C7.905 5.86598 8.01384 5.83537 8.11135 5.77074L9.11588 5.09954V6.30816C9.11588 6.62108 9.36985 6.87505 9.68277 6.87505C9.9957 6.87505 10.2497 6.62108 10.2497 6.30816V5.09954L11.2553 5.76961C11.3517 5.83423 11.4617 5.86485 11.5694 5.86485C11.7531 5.86485 11.9322 5.77641 12.0422 5.61201C12.2157 5.35237 12.1454 4.99977 11.8846 4.8263L10.7043 4.04058L11.8835 3.25487C12.1442 3.08027 12.2145 2.72879 12.0411 2.46802ZM7.5059 10.4045C7.33243 10.1449 6.98096 10.0735 6.72019 10.2481L5.71452 10.9181V9.70952C5.71452 9.39659 5.46055 9.14262 5.14763 9.14262C4.8347 9.14262 4.58073 9.39659 4.58073 9.70952V10.9181L3.57506 10.2481C3.31316 10.0735 2.96282 10.1449 2.78935 10.4045C2.61588 10.6642 2.68618 11.0168 2.94695 11.1902L4.12609 11.976L2.94695 12.7617C2.68618 12.9351 2.61588 13.2877 2.78935 13.5474C2.89819 13.7118 3.07847 13.8002 3.26214 13.8002C3.36985 13.8002 3.47869 13.7696 3.5762 13.705L4.58073 13.036V14.2447C4.58073 14.5576 4.8347 14.8116 5.14763 14.8116C5.46055 14.8116 5.71452 14.5576 5.71452 14.2447V13.036L6.72019 13.7061C6.81656 13.7707 6.92654 13.8014 7.03425 13.8014C7.21792 13.8014 7.39706 13.7129 7.50704 13.5485C7.68051 13.2889 7.61021 12.9363 7.34944 12.7628L6.16917 11.9771L7.34831 11.1914C7.60908 11.0168 7.67937 10.6653 7.5059 10.4045ZM7.5059 29.6789C7.33243 29.4193 6.98096 29.3478 6.72019 29.5213L5.71452 30.1925V28.9839C5.71452 28.671 5.46055 28.417 5.14763 28.417C4.8347 28.417 4.58073 28.671 4.58073 28.9839V30.1925L3.57506 29.5224C3.31316 29.349 2.96169 29.4193 2.78935 29.68C2.61588 29.9397 2.68618 30.2923 2.94695 30.4658L4.12609 31.2515L2.94695 32.0372C2.68618 32.2107 2.61588 32.5633 2.78935 32.8229C2.89819 32.9873 3.07847 33.0757 3.26214 33.0757C3.36985 33.0757 3.47869 33.0451 3.5762 32.9805L4.58073 32.3104V33.519C4.58073 33.832 4.8347 34.0859 5.14763 34.0859C5.46055 34.0859 5.71452 33.832 5.71452 33.519V32.3104L6.72019 32.9805C6.81656 33.0451 6.92654 33.0757 7.03425 33.0757C7.21792 33.0757 7.39706 32.9873 7.50704 32.8229C7.68051 32.5633 7.61021 32.2107 7.34944 32.0372L6.16917 31.2515L7.34831 30.4658C7.60908 30.2912 7.67937 29.9397 7.5059 29.6789ZM39.049 10.8433L40.2281 10.0576C40.4889 9.88412 40.5592 9.53151 40.3857 9.27188C40.2123 9.01224 39.8608 8.94081 39.6 9.11428L38.5943 9.78435V8.57573C38.5943 8.26281 38.3404 8.00884 38.0274 8.00884C37.7145 8.00884 37.4605 8.26281 37.4605 8.57573V9.78435L36.4549 9.11428C36.193 8.94081 35.8415 9.01111 35.6692 9.27188C35.4957 9.53151 35.566 9.88412 35.8268 10.0576L37.0059 10.8433L35.8268 11.629C35.566 11.8025 35.4957 12.1551 35.6692 12.4147C35.778 12.5791 35.9583 12.6676 36.142 12.6676C36.2497 12.6676 36.3585 12.637 36.456 12.5723L37.4617 11.9023V13.1109C37.4617 13.4238 37.7157 13.6778 38.0286 13.6778C38.3415 13.6778 38.5955 13.4238 38.5955 13.1109V11.9023L39.6011 12.5723C39.6975 12.637 39.8075 12.6676 39.9152 12.6676C40.0989 12.6676 40.278 12.5791 40.388 12.4147C40.5615 12.1551 40.4912 11.8025 40.2304 11.629L39.049 10.8433ZM39.2519 26.2775C39.0785 26.0179 38.727 25.9465 38.4662 26.12L37.4605 26.7912V25.5825C37.4605 25.2696 37.2066 25.0156 36.8937 25.0156C36.5807 25.0156 36.3268 25.2696 36.3268 25.5825V26.7912L35.3211 26.1211C35.0592 25.9476 34.7077 26.0179 34.5354 26.2787C34.3619 26.5383 34.4322 26.8909 34.693 27.0644L35.8721 27.8501L34.693 28.6358C34.4322 28.8093 34.3619 29.1619 34.5354 29.4215C34.6442 29.5859 34.8245 29.6744 35.0082 29.6744C35.1159 29.6744 35.2247 29.6438 35.3222 29.5791L36.3279 28.9091V30.1177C36.3279 30.4306 36.5819 30.6846 36.8948 30.6846C37.2077 30.6846 37.4617 30.4306 37.4617 30.1177V28.9091L38.4674 29.5791C38.5637 29.6438 38.6737 29.6744 38.7814 29.6744C38.9651 29.6744 39.1442 29.5859 39.2542 29.4215C39.4277 29.1619 39.3574 28.8093 39.0966 28.6358L37.9175 27.8501L39.0966 27.0644C39.3551 26.8898 39.4254 26.5383 39.2519 26.2775ZM34.5592 4.8263L33.3801 4.04058L34.5592 3.25487C34.82 3.0814 34.8903 2.72879 34.7168 2.46915C34.5433 2.20952 34.1918 2.13809 33.9311 2.31156L32.9254 2.98163V1.77301C32.9254 1.46008 32.6714 1.20612 32.3585 1.20612C32.0456 1.20612 31.7916 1.46008 31.7916 1.77301V2.98163L30.7859 2.31156C30.524 2.13809 30.1726 2.20838 30.0002 2.46915C29.8268 2.72879 29.8971 3.0814 30.1578 3.25487L31.337 4.04058L30.1578 4.8263C29.8971 4.99977 29.8268 5.35237 30.0002 5.61201C30.1091 5.77641 30.2893 5.86485 30.473 5.86485C30.5807 5.86485 30.6896 5.83423 30.7871 5.76961L31.7916 5.09954V6.30816C31.7916 6.62108 32.0456 6.87505 32.3585 6.87505C32.6714 6.87505 32.9254 6.62108 32.9254 6.30816V5.09954L33.9311 5.76961C34.0274 5.83423 34.1374 5.86485 34.2451 5.86485C34.4288 5.86485 34.6079 5.77641 34.7179 5.61201C34.8903 5.35237 34.82 5.0009 34.5592 4.8263Z" fill="#88C9F9"/>
</g>
<defs>
<clipPath id="clip0_35_5867">
<rect width="40.8163" height="40.8163" fill="white" transform="translate(0.612457 0.0727386)"/>
</clipPath>
</defs>
</svg>
