<svg width="50" height="50" viewBox="0 0 50 50" fill="none" xmlns="http://www.w3.org/2000/svg">
<g clip-path="url(#clip0_887_1311)">
<path d="M1.08039 46.6634C1.979 43.7454 3.44844 38.2481 4.30955 36.1551C5.00539 34.4662 5.65539 32.769 6.454 31.969C7.25261 31.1704 8.61094 31.2329 9.43039 32.0495C9.43039 32.0495 12.8596 34.3759 14.0887 35.9148C15.6276 37.1398 17.9568 40.5773 17.9568 40.5773C18.7762 41.3968 18.8387 42.7537 18.0401 43.5537C17.2401 44.3523 15.5429 45.0023 13.8526 45.6981C11.7609 46.5593 6.26233 48.0259 3.34428 48.9273C2.84567 49.0801 0.927608 47.162 1.08039 46.6634Z" fill="#D99E82"/>
<path d="M31.0515 7.37318C29.4529 8.97179 29.4529 11.5621 31.0515 13.1607L36.839 18.9496C38.4376 20.5468 41.0306 20.5468 42.6265 18.9496L48.4154 13.1607C50.0126 11.5621 50.0126 8.97179 48.4154 7.37318L42.6279 1.58568C41.0306 -0.012934 38.439 -0.012934 36.8404 1.58568L31.0515 7.37318Z" fill="#EA596E"/>
<path d="M6.45521 31.9684L12.2469 37.7601L18.0288 43.5448L39.7344 21.8406L28.158 10.2656L6.45521 31.9684Z" fill="#FFCC4D"/>
<path d="M5.44727 48.2819C5.44727 48.2819 1.68476 50.35 0.668097 49.3333C-0.34857 48.3167 1.7306 44.5625 1.7306 44.5625C1.7306 44.5625 5.29449 44.6292 5.44727 48.2819Z" fill="#292F33"/>
<path d="M46.9688 14.6076L35.3924 3.03125L28.159 10.266L39.734 21.8424L46.9688 14.6076Z" fill="#CCD6DD"/>
<path d="M45.5215 16.0535L33.9465 4.47852L32.4993 5.92574L44.0743 17.5007L45.5215 16.0535ZM42.6284 18.9507L31.052 7.37435L29.6048 8.82157L41.1812 20.3966L42.6284 18.9507Z" fill="#99AAB5"/>
</g>
<defs>
<clipPath id="clip0_887_1311">
<rect width="50" height="50" fill="white" transform="matrix(-1 0 0 1 50 0)"/>
</clipPath>
</defs>
</svg>
