<svg width="41" height="41" viewBox="0 0 41 41" fill="none" xmlns="http://www.w3.org/2000/svg">
<g clip-path="url(#clip0_35_5879)">
<path d="M38.5492 35.2197H2.268C1.0163 35.2197 0.000427246 36.2355 0.000427246 37.4872V40.8886H40.8168V37.4872C40.8168 36.2355 39.8009 35.2197 38.5492 35.2197Z" fill="#FFAC33"/>
<path d="M19.2722 36.9199C19.0738 37.8371 18.1668 38.4199 17.2496 38.2204C16.3312 38.0208 15.7484 37.1149 15.948 36.1977L22.6827 1.77252C22.8822 0.85415 23.7881 0.272518 24.7053 0.47093C25.6226 0.670477 26.2053 1.57637 26.0058 2.49361L19.2722 36.9199Z" fill="#66757F"/>
<path d="M24.2228 2.68809C14.1264 0.497619 4.54136 5.16882 2.81461 13.1246C2.81461 13.1246 2.33388 15.34 3.44159 15.5815C4.5493 15.8219 7.24658 14.0872 7.24658 14.0872L34.9461 20.0997C34.9461 20.0997 36.6808 22.7969 37.7897 23.0373C38.8974 23.2777 39.3781 21.0622 39.3781 21.0622C41.106 13.1053 34.3203 4.8797 24.2228 2.68809Z" fill="#DD2E44"/>
<path d="M24.2198 2.68855C16.5713 1.02868 8.97153 6.13186 7.24477 14.0865C7.24477 14.0865 6.76405 16.3031 8.97947 16.7838C11.1949 17.2645 14.9999 15.7702 14.9999 15.7702L27.187 18.4153C27.187 18.4153 30.0305 21.3518 32.247 21.8337C34.4625 22.3144 34.9432 20.099 34.9432 20.099C36.6711 12.1432 31.8684 4.34841 24.2198 2.68855Z" fill="#E1E8ED"/>
<path d="M24.2203 2.6883C20.243 1.82549 16.7271 7.81415 15.0004 15.7699C15.0004 15.7699 17.8428 18.7076 20.0593 19.1883L21.167 19.4287C23.3836 19.9094 27.1874 18.4151 27.1874 18.4151C28.9153 10.4604 28.1988 3.55224 24.2203 2.6883Z" fill="#DD2E44"/>
</g>
<defs>
<clipPath id="clip0_35_5879">
<rect width="40.8163" height="40.8163" fill="white" transform="translate(0.000274658 0.0725555)"/>
</clipPath>
</defs>
</svg>
