<svg width="42" height="42" viewBox="0 0 42 42" fill="none" xmlns="http://www.w3.org/2000/svg">
<path d="M39.4978 28.8515C39.4978 31.3561 37.4672 31.1191 34.9626 31.1191H6.61797C4.11344 31.1191 2.08282 31.3561 2.08282 28.8515L4.3504 12.9842C4.6826 11.0001 5.48419 10.7166 6.61797 10.7166H34.9626C36.0964 10.7166 36.9933 10.9524 37.2302 12.9842L39.4978 28.8515Z" fill="#8CCAF7"/>
<path d="M32.6942 19.2195C32.6942 20.1594 31.9323 20.9202 30.9935 20.9202H10.5854C9.64548 20.9202 8.8847 20.1594 8.8847 19.2195C8.8847 18.2796 9.64661 17.5189 10.5854 17.5189H30.9935C31.9323 17.5189 32.6942 18.2796 32.6942 19.2195Z" fill="#292F33"/>
<path d="M30.1429 19.9999V4.12689C30.1429 2.87405 29.1282 1.85931 27.8753 1.85931H13.1361C11.8844 1.85931 10.8685 2.87405 10.8685 4.12689V19.9999H30.1429Z" fill="#FFD983"/>
<path d="M39.4978 28.8564C39.4978 27.6047 38.4819 26.5888 37.2302 26.5888H4.3504C3.0987 26.5888 2.08282 27.6047 2.08282 28.8564V37.9267C2.08282 39.1784 3.0987 40.1942 4.3504 40.1942H37.2302C38.4819 40.1942 39.4978 39.1784 39.4978 37.9267V28.8564Z" fill="#5DADEC"/>
<path d="M15.6883 26.5892V33.392C15.6883 34.6437 16.7042 35.6595 17.9559 35.6595H23.6248C24.8776 35.6595 25.8924 34.6437 25.8924 33.392V26.5892H15.6883Z" fill="#4289C1"/>
<path d="M25.8924 26.5892V25.4554C25.8924 24.2037 24.8776 23.1879 23.6248 23.1879H17.9559C16.7042 23.1879 15.6883 24.2037 15.6883 25.4554V26.5892H25.8924ZM22.491 31.6913C22.491 32.63 21.7291 33.3919 20.7903 33.3919C19.8504 33.3919 19.0897 32.63 19.0897 31.6913V30.5575C19.0897 29.6187 19.8504 28.8568 20.7903 28.8568C21.7291 28.8568 22.491 29.6187 22.491 30.5575V31.6913Z" fill="#5DADEC"/>
<path d="M27.5933 6.18133C27.5933 6.49426 27.3393 6.74823 27.0264 6.74823H18.523C18.2101 6.74823 17.9561 6.49426 17.9561 6.18133C17.9561 5.86841 18.2101 5.61444 18.523 5.61444H27.0264C27.3393 5.61444 27.5933 5.86841 27.5933 6.18133ZM27.5933 10.7165C27.5933 11.0294 27.3393 11.2834 27.0264 11.2834H18.523C18.2101 11.2834 17.9561 11.0294 17.9561 10.7165C17.9561 10.4036 18.2101 10.1496 18.523 10.1496H27.0264C27.3393 10.1496 27.5933 10.4036 27.5933 10.7165ZM27.5933 15.2516C27.5933 15.5646 27.3393 15.8185 27.0264 15.8185H18.523C18.2101 15.8185 17.9561 15.5646 17.9561 15.2516C17.9561 14.9387 18.2101 14.6847 18.523 14.6847H27.0264C27.3393 14.6847 27.5933 14.9387 27.5933 15.2516Z" fill="#C1694F"/>
<path d="M15.1201 7.31478C15.7463 7.31478 16.2539 6.80717 16.2539 6.181C16.2539 5.55482 15.7463 5.04721 15.1201 5.04721C14.4939 5.04721 13.9863 5.55482 13.9863 6.181C13.9863 6.80717 14.4939 7.31478 15.1201 7.31478Z" fill="#C1694F"/>
<path d="M15.1201 11.8495C15.7463 11.8495 16.2539 11.3419 16.2539 10.7158C16.2539 10.0896 15.7463 9.58197 15.1201 9.58197C14.4939 9.58197 13.9863 10.0896 13.9863 10.7158C13.9863 11.3419 14.4939 11.8495 15.1201 11.8495Z" fill="#C1694F"/>
<path d="M15.1201 16.3847C15.7463 16.3847 16.2539 15.8771 16.2539 15.2509C16.2539 14.6247 15.7463 14.1171 15.1201 14.1171C14.4939 14.1171 13.9863 14.6247 13.9863 15.2509C13.9863 15.8771 14.4939 16.3847 15.1201 16.3847Z" fill="#C1694F"/>
</svg>
