<svg width="42" height="41" viewBox="0 0 42 41" fill="none" xmlns="http://www.w3.org/2000/svg">
<g clip-path="url(#clip0_35_5861)">
<path d="M38.7026 26.9179C30.1289 32.4451 15.9565 26.4213 17.8692 17.7773C19.5461 10.1991 28.5484 12.3771 30.596 13.3998C32.6436 14.4225 31.4044 8.99049 26.6561 7.36011C20.2241 5.15149 12.3511 5.61975 9.86241 16.7139C8.16173 24.2955 11.4928 34.9247 24.283 35.0665C37.0733 35.2082 38.7026 26.9179 38.7026 26.9179Z" fill="#226699"/>
<path d="M41.6393 28.6357C41.6393 26.2026 38.5169 25.9894 37.1042 27.367C33.7096 30.6765 28.7119 31.9157 22.0271 30.6108C10.4058 28.3432 10.3026 14.7219 18.2482 10.8364C22.5463 8.73434 27.6461 11.223 29.5849 12.7128C31.272 14.0087 34.4987 15.7287 34.3298 13.5654C33.9692 8.95996 24.9432 -0.902851 12.8491 5.33298C0.756093 11.5688 0.836592 25.6425 0.836592 28.1935V36.4135C0.836592 38.918 2.89328 40.8885 5.39782 40.8885H37.1438C39.6484 40.8885 41.6529 38.918 41.6529 36.4135C41.6529 36.4135 41.6484 28.6425 41.6393 28.6357Z" fill="#55ACEE"/>
</g>
<defs>
<clipPath id="clip0_35_5861">
<rect width="40.8163" height="40.8163" fill="white" transform="translate(0.836731 0.0725555)"/>
</clipPath>
</defs>
</svg>