<svg xmlns="http://www.w3.org/2000/svg" width="54" height="54" viewBox="0 0 54 54" fill="none">
  <path d="M11.2501 28.7095C11.2501 25.6545 11.2501 24.127 11.8677 22.7844C12.4852 21.4417 13.6449 20.4476 15.9644 18.4595L18.2144 16.5309C22.4069 12.9374 24.5031 11.1406 27.0001 11.1406C29.4971 11.1406 31.5933 12.9374 35.7858 16.5309L38.0358 18.4595C40.3553 20.4476 41.515 21.4417 42.1326 22.7844C42.7501 24.127 42.7501 25.6545 42.7501 28.7095V38.2503C42.7501 42.493 42.7501 44.6143 41.4321 45.9323C40.1141 47.2504 37.9928 47.2504 33.7501 47.2504H20.2501C16.0075 47.2504 13.8862 47.2504 12.5681 45.9323C11.2501 44.6143 11.2501 42.493 11.2501 38.2503V28.7095Z" stroke="white" stroke-width="3.5"/>
  <path d="M32.6251 47.25V36C32.6251 34.7574 31.6178 33.75 30.3751 33.75H23.6251C22.3825 33.75 21.3751 34.7574 21.3751 36V47.25" stroke="white" stroke-width="3.5" stroke-linecap="round" stroke-linejoin="round"/>
</svg>