<svg xmlns="http://www.w3.org/2000/svg" width="22" height="22" viewBox="0 0 22 22" fill="none">
  <g clip-path="url(#clip0_1833_2969)">
    <path d="M9.1687 18.9441C9.1687 20.2941 8.68533 21.3886 7.33544 21.3886H3.05786C0.613526 21.3886 0.613526 12.833 3.05786 12.833H7.33544C8.68533 12.833 9.1687 13.9275 9.1687 15.2775V18.9441Z" fill="#553788"/>
    <path d="M20.7776 20.1673H20.1665V14.0562H20.7776C21.1155 14.0562 21.3887 13.783 21.3887 13.4451C21.3887 13.1072 21.1155 12.834 20.7776 12.834H6.11157C3.66724 12.834 3.66724 21.3895 6.11157 21.3895H20.7776C21.1155 21.3895 21.3887 21.1164 21.3887 20.7784C21.3887 20.4405 21.1155 20.1673 20.7776 20.1673Z" fill="#9266CC"/>
    <path d="M20.8843 20.1678H6.72424C5.50208 20.1678 5.50208 14.0566 6.72424 14.0566H20.8843C21.5589 14.0566 21.5589 20.1678 20.8843 20.1678Z" fill="#CCD6DD"/>
    <path d="M7.02932 15.2789H21.2981C21.2156 14.5608 21.0781 14.0566 20.8838 14.0566H6.72377C5.71488 14.0566 5.53949 18.2171 6.19641 19.6715C5.95686 17.8633 6.2343 15.2789 7.02932 15.2789Z" fill="#99AAB5"/>
    <path d="M7.33422 4.88813C7.33422 6.23807 6.23977 7.33257 4.88989 7.33257H2.44556C0.00122112 7.33257 0.00122112 0.610352 2.44556 0.610352H4.88989C6.23977 0.610352 7.33422 1.70485 7.33422 3.0548V4.88813Z" fill="#226699"/>
    <path d="M18.9446 6.11035H18.3335V1.83257H18.9446C19.2825 1.83257 19.5557 1.55941 19.5557 1.22146C19.5557 0.883518 19.2825 0.610352 18.9446 0.610352H4.27856C1.83423 0.610352 1.83423 7.33257 4.27856 7.33257H18.9446C19.2825 7.33257 19.5557 7.05941 19.5557 6.72146C19.5557 6.38352 19.2825 6.11035 18.9446 6.11035Z" fill="#55ACEE"/>
    <path d="M19.0513 6.11176H4.89123C3.66907 6.11176 3.66907 1.83398 4.89123 1.83398H19.0513C19.7259 1.83398 19.7259 6.11176 19.0513 6.11176Z" fill="#CCD6DD"/>
    <path d="M4.88791 3.05621H19.5081C19.4384 2.36871 19.2857 1.83398 19.0479 1.83398H4.88791C4.15889 1.83398 3.86801 3.35504 4.00917 4.58398C4.1045 3.7541 4.39477 3.05621 4.88791 3.05621Z" fill="#99AAB5"/>
    <path d="M12.2214 10.3886C12.2214 11.7385 11.127 12.833 9.77709 12.833H3.66626C1.22192 12.833 1.22192 7.33301 3.66626 7.33301H9.77709C11.127 7.33301 12.2214 8.42751 12.2214 9.77745V10.3886Z" fill="#F4900C"/>
    <path d="M21.3879 11.6108H20.7768V8.55523H21.3879C21.7259 8.55523 21.999 8.28206 21.999 7.94412C21.999 7.60617 21.7259 7.33301 21.3879 7.33301H9.16626C6.72192 7.33301 6.72192 12.833 9.16626 12.833H21.3879C21.7259 12.833 21.999 12.5598 21.999 12.2219C21.999 11.884 21.7259 11.6108 21.3879 11.6108Z" fill="#FFAC33"/>
    <path d="M21.4936 11.6122H9.77795C8.55579 11.6122 8.55579 8.55664 9.77795 8.55664H21.4936C22.1683 8.55664 22.1683 11.6122 21.4936 11.6122Z" fill="#CCD6DD"/>
    <path d="M9.77972 9.77886H21.9916C21.9519 9.12986 21.7875 8.55664 21.4954 8.55664H9.77972C9.0012 8.55664 8.72072 9.79536 8.9346 10.6955C9.05559 10.1828 9.33608 9.77886 9.77972 9.77886Z" fill="#99AAB5"/>
  </g>
  <defs>
    <clipPath id="clip0_1833_2969">
      <rect width="21.999" height="22" fill="white" transform="translate(-0.00195312)"/>
    </clipPath>
  </defs>
</svg>