<svg xmlns="http://www.w3.org/2000/svg" width="22" height="22" viewBox="0 0 22 22" fill="none">
  <g clip-path="url(#clip0_1833_3025)">
    <path d="M16.4179 4.88965H11.0013V22.0008C14.6678 22.0008 17.1121 21.3896 17.9633 17.7138C18.4363 15.6715 18.9796 10.1758 18.9796 6.81098C18.9796 5.67126 18.1039 4.88965 16.4179 4.88965ZM5.43552 4.88965H11.0013V22.0008C7.33477 22.0008 4.89043 21.3896 3.96464 17.7138C3.45255 15.6806 2.91113 10.1758 2.91113 6.81098C2.91113 5.67126 3.74893 4.88965 5.43552 4.88965Z" fill="#8899A6"/>
    <path d="M18.9764 6.41667C18.9764 7.68228 17.0637 8.70833 10.9975 8.70833C4.93186 8.70833 3.01855 7.68228 3.01855 6.41667C3.01855 5.15044 4.93186 4.125 10.9975 4.125C17.0637 4.125 18.9764 5.15044 18.9764 6.41667Z" fill="#CCD6DD"/>
    <path d="M11.0144 7.94229L3.98145 7.33301C3.98145 11.6108 4.65608 16.122 5.00868 17.4603C5.41321 18.9936 6.72154 18.9325 10.9991 18.9429V18.9441V18.9429C15.2767 18.9319 16.6003 18.9936 17.0042 17.4603C17.3575 16.122 18.0388 11.6108 18.0388 7.33301L11.0144 7.94229Z" fill="#CCD6DD"/>
    <path d="M10.9994 12.834V20.7784C15.277 20.7784 16.4991 20.1673 17.0228 17.4613C17.1701 16.7017 17.516 14.971 17.7402 12.834H10.9994ZM4.28906 12.834C4.51272 14.971 4.8482 16.7005 4.9912 17.4613C5.49962 20.1673 6.72179 20.7784 10.9994 20.7784V12.834H4.28906Z" fill="#55ACEE"/>
    <path d="M10.9988 18.4316C8.21474 18.4316 5.95801 18.9786 5.95801 19.6539C5.95801 19.6594 5.96106 19.6649 5.96167 19.671C6.81536 20.5326 8.29662 20.7783 10.9988 20.7783C13.6955 20.7783 15.1762 20.5339 16.0348 19.6765C16.0354 19.6691 16.0397 19.6618 16.0397 19.6539C16.0397 18.9786 13.7829 18.4316 10.9988 18.4316Z" fill="#3B88C3"/>
    <path d="M10.9993 14.0548C14.7171 14.0548 17.731 13.5076 17.731 12.8326C17.731 12.1576 14.7171 11.6104 10.9993 11.6104C7.28146 11.6104 4.26758 12.1576 4.26758 12.8326C4.26758 13.5076 7.28146 14.0548 10.9993 14.0548Z" fill="#88C9F9"/>
    <path d="M20.7509 0.572868L16.5809 1.60992C16.122 1.7242 15.6246 1.96254 15.0899 2.36709C14.0858 3.1267 13.8811 4.15765 13.7174 4.72659L11.207 13.4453H13.1148L15.4785 5.23442C15.6398 4.67465 15.7999 4.19431 16.1684 3.86004C16.4947 3.56426 17.0343 3.39009 17.5397 3.25931L21.1921 2.35303C21.6816 2.23142 21.9823 1.73215 21.8613 1.24265C21.7397 0.752535 21.2404 0.451257 20.7509 0.572868Z" fill="#E1E8ED"/>
    <path d="M11.2069 13.4434L9.57465 19.1126C9.43533 19.5972 9.71765 20.1075 10.2016 20.2475C10.6862 20.3868 11.1965 20.1045 11.3358 19.6205L13.1147 13.4434H11.2069Z" fill="#88C9F9"/>
    <path d="M11.3933 13.8594L11.034 14.0562L10.8672 14.6349L12.1297 16.877L12.6039 15.2295L11.8333 13.86L11.3933 13.8594Z" fill="#744EAA"/>
    <path d="M17.0526 1.49213L16.3633 3.72085C16.6878 3.50879 17.1222 3.36641 17.5408 3.25824L17.806 3.19224L18.4385 1.14746L17.0526 1.49213Z" fill="#DD2E44"/>
    <path d="M10.4182 16.1934L9.94336 17.8415L11.1423 19.9712C11.2303 19.8722 11.3 19.7555 11.3391 19.6205L11.6801 18.4355L10.4182 16.1934Z" fill="#744EAA"/>
    <path d="M12.2512 9.81824L11.7764 11.467L12.6203 12.9655L12.9087 13.0296L13.2912 12.8322L13.5137 12.061L12.2512 9.81824ZM21.0795 0.553185C20.9726 0.540352 20.862 0.543407 20.7514 0.570907L19.715 0.828796L19.0819 2.87418L20.4672 2.53013L21.0795 0.553185ZM12.7052 8.24157L13.9677 10.4831L14.4419 8.83557L13.18 6.59341L12.7052 8.24157ZM15.0652 2.38774C14.5776 2.7648 14.28 3.20541 14.0869 3.62341L14.8935 7.27052L15.4801 5.23246C15.5205 5.09191 15.5614 4.95624 15.6048 4.82668L15.0652 2.38774Z" fill="#DD2E44"/>
    <path d="M11.4079 12.7598L11.0352 14.0547C11.7037 14.0541 12.349 14.0358 12.9582 14.0022L13.3157 12.7604C12.7425 13.0555 11.5472 12.871 11.4079 12.7598Z" fill="#55ACEE"/>
    <path d="M18.0972 6.9112C17.9493 6.51459 17.5142 6.31537 17.1292 6.46876C14.9257 7.33409 12.8248 7.63537 10.9964 7.65248V9.17537C13.0331 9.15459 15.3284 8.82276 17.6651 7.90426C18.052 7.75271 18.2457 7.30782 18.0972 6.9112ZM3.8956 6.9112C4.04348 6.51459 4.47857 6.31537 4.86355 6.46876C7.06712 7.33409 9.16803 7.63537 10.9964 7.65248V9.17537C8.95965 9.15459 6.66442 8.82276 4.32763 7.90426C3.94143 7.75271 3.74711 7.30782 3.8956 6.9112Z" fill="white"/>
  </g>
  <defs>
    <clipPath id="clip0_1833_3025">
      <rect width="21.999" height="22" fill="white"/>
    </clipPath>
  </defs>
</svg>