<svg xmlns="http://www.w3.org/2000/svg" width="22" height="22" viewBox="0 0 22 22" fill="none">
  <g clip-path="url(#clip0_1833_3162)">
    <path d="M11.0001 12.4742C5.27363 12.4742 0.631836 12.3367 0.631836 16.4018C0.631836 20.4651 5.27363 21.3897 11.0001 21.3897C16.7266 21.3897 21.3683 20.4651 21.3683 16.4018C21.3683 12.3373 16.7266 12.4742 11.0001 12.4742Z" fill="#D99E82"/>
    <path d="M21.066 12.7813C21.066 12.7813 16.0435 12.18 11.0015 12.1543C5.9594 12.18 0.936905 12.7813 0.936905 12.7813C0.440094 16.7376 4.56491 18.3675 11.0015 18.3675C17.438 18.3675 21.5628 16.7376 21.066 12.7813Z" fill="#662113"/>
    <path d="M20.7077 11.2002L1.24162 11.595C0.569424 11.595 0.00661594 12.9571 0.71975 13.3134C6.04107 14.9683 10.3187 16.6428 10.3187 16.6428C10.9065 16.9679 11.1051 16.9691 11.6936 16.6446C11.6936 16.6446 17.6003 14.2808 21.3945 13.2878C21.9329 13.1472 21.3793 11.2002 20.7077 11.2002Z" fill="#FFCC4D"/>
    <path d="M21.2183 11.2502C20.0573 10.1801 20.1245 10.7497 19.2347 10.4985C18.8968 10.4032 16.4788 7.27734 10.9674 7.27734H10.9552C5.44381 7.27734 3.02575 10.4032 2.68782 10.4985C1.79808 10.7497 1.8653 10.1801 0.704242 11.2502C0.171377 11.7415 0.0271613 11.997 0.589358 12.1241C1.43632 12.3153 1.35932 12.8281 1.96613 13.0065C2.70065 13.2222 3.00253 12.8281 4.18681 12.9894C5.19693 13.1269 5.26293 14.4371 6.28221 14.4371C7.3015 14.4371 7.3015 13.9482 8.32018 13.9482C9.33885 13.9482 9.94138 15.2597 10.9607 15.2597C11.98 15.2597 12.5819 13.9482 13.6012 13.9482C14.6204 13.9482 14.6204 14.4371 15.6391 14.4371C16.6584 14.4371 16.7244 13.1269 17.7345 12.9894C18.9188 12.8287 19.2213 13.2222 19.9552 13.0065C20.562 12.8281 20.485 12.316 21.332 12.1241C21.8954 11.9976 21.7518 11.7415 21.2183 11.2502Z" fill="#77B255"/>
    <path d="M20.8246 10.0968C20.8246 11.9203 16.426 12.7814 11.0002 12.7814C5.57436 12.7814 1.17578 11.9203 1.17578 10.0968C1.17578 6.79492 1.76609 6.79492 11.0002 6.79492C20.2343 6.79492 20.8246 6.79553 20.8246 10.0968Z" fill="#DD2E44"/>
    <path d="M11.0001 0.320312C5.27363 0.320312 0.631836 3.0037 0.631836 7.0682C0.631836 10.8113 5.27363 10.964 11.0001 10.964C16.7266 10.964 21.3683 10.8113 21.3683 7.0682C21.3683 3.00309 16.7266 0.320312 11.0001 0.320312Z" fill="#D99E82"/>
    <path d="M6.5913 2.25852C6.28698 2.06358 5.88305 2.1528 5.68873 2.45713C5.4944 2.76147 5.58301 3.16602 5.88733 3.35974C6.19165 3.55469 6.96284 3.70013 7.15777 3.3958C7.3521 3.09147 6.89562 2.45286 6.5913 2.25852ZM12.5396 1.62602C12.1962 1.73724 11.593 2.2408 11.7048 2.58424C11.8167 2.92769 12.5995 2.98024 12.9429 2.86902C13.2863 2.7578 13.4739 2.38869 13.3621 2.04524C13.2509 1.70241 12.8818 1.51419 12.5396 1.62602ZM19.2059 5.92519C18.9297 5.69297 18.2373 6.06269 18.0045 6.33891C17.7723 6.61574 17.8083 7.02763 18.0846 7.25986C18.3608 7.49208 18.7733 7.45602 19.0055 7.1798C19.2383 6.90297 19.4827 6.15741 19.2059 5.92519ZM16.9797 2.86963C16.6754 2.6753 16.2715 2.76452 16.0765 3.06886C15.8822 3.37319 15.9714 3.77713 16.2758 3.97147C16.5801 4.16641 17.3513 4.31186 17.5456 4.00752C17.7405 3.70258 17.284 3.06397 16.9797 2.86963ZM7.81347 7.14741C7.50915 6.95308 7.10522 7.0423 6.91028 7.34663C6.71596 7.65036 6.80518 8.05491 7.1095 8.24863C7.41382 8.44358 8.185 8.58963 8.37933 8.28469C8.57426 7.98036 8.11779 7.34174 7.81347 7.14741ZM9.67483 4.20919C9.4695 4.50619 9.29595 5.27191 9.59355 5.47724C9.89054 5.68258 10.545 5.24869 10.7503 4.95169C10.9557 4.65469 10.8805 4.24769 10.5835 4.04236C10.2871 3.83702 9.87954 3.91219 9.67483 4.20919ZM14.5354 7.14741C14.2311 6.95308 13.8271 7.0423 13.6322 7.34663C13.4379 7.65036 13.5271 8.05552 13.8314 8.24863C14.1357 8.44358 14.9069 8.58963 15.1012 8.28469C15.2962 7.98036 14.8397 7.34174 14.5354 7.14741ZM3.02501 4.77202C2.78425 5.04152 2.51598 5.77913 2.78547 6.01991C3.05374 6.26069 3.7577 5.91358 3.99847 5.64408C4.23985 5.37519 4.21663 4.96208 3.94775 4.72069C3.67949 4.47991 3.26578 4.50313 3.02501 4.77202Z" fill="#FFE8B6"/>
  </g>
  <defs>
    <clipPath id="clip0_1833_3162">
      <rect width="21.999" height="22" fill="white"/>
    </clipPath>
  </defs>
</svg>