<svg xmlns="http://www.w3.org/2000/svg" width="18" height="18" viewBox="0 0 18 18" fill="none">
  <path d="M9 18C10.1046 18 11 17.6642 11 17.25C11 16.8358 10.1046 16.5 9 16.5C7.89543 16.5 7 16.8358 7 17.25C7 17.6642 7.89543 18 9 18Z" fill="#292F33"/>
  <path d="M7.16943 5.3623C7.16943 5.3623 8.44693 17.4988 9.00043 17.4998C9.55343 17.5003 10.8304 5.3623 10.8304 5.3623H7.16943Z" fill="#99AAB5"/>
  <path d="M9 8C11.2091 8 13 6.20914 13 4C13 1.79086 11.2091 0 9 0C6.79086 0 5 1.79086 5 4C5 6.20914 6.79086 8 9 8Z" fill="#DD2E44"/>
</svg>