<svg width="28" height="28" viewBox="0 0 28 28" fill="none" xmlns="http://www.w3.org/2000/svg">
<path d="M22.5557 8.60185C22.5557 13.61 18.6668 14.3877 18.6668 19.0552C18.6668 21.4647 16.2378 21.6677 14.389 21.6677C12.7922 21.6677 9.26658 21.0619 9.26658 19.0536C9.26658 14.3885 5.44458 13.6107 5.44458 8.60185C5.44458 3.91108 9.55514 0.108521 14.0647 0.108521C18.5758 0.108521 22.5557 3.91108 22.5557 8.60185Z" fill="#FFD983"/>
<path d="M17.241 25.2774C17.241 25.9214 15.5035 27.2218 14 27.2218C12.4966 27.2218 10.759 25.9214 10.759 25.2774C10.759 24.6334 12.4958 24.8885 14 24.8885C15.5035 24.8885 17.241 24.6334 17.241 25.2774Z" fill="#CCD6DD"/>
<path d="M17.6612 8.00543C17.3571 7.70132 16.8655 7.70132 16.5614 8.00543L14.0002 10.5666L11.4389 8.00543C11.1348 7.70132 10.6433 7.70132 10.3392 8.00543C10.0351 8.30954 10.0351 8.80109 10.3392 9.1052L13.2224 11.9884V20.222C13.2224 20.6521 13.5708 20.9998 14.0002 20.9998C14.4295 20.9998 14.7779 20.6521 14.7779 20.222V11.9884L17.6612 9.1052C17.9653 8.80109 17.9653 8.30954 17.6612 8.00543Z" fill="#FFCC4D"/>
<path d="M18.6668 24.111C18.6668 24.9697 17.9699 25.6666 17.1113 25.6666H10.8891C10.0304 25.6666 9.3335 24.9697 9.3335 24.111V19.4443H18.6668V24.111Z" fill="#99AAB5"/>
<path d="M9.33277 24.889C8.95943 24.889 8.62966 24.6191 8.56666 24.2388C8.49588 23.8157 8.7821 23.4144 9.20599 23.3444L18.5393 21.7888C18.9624 21.7126 19.3638 22.0042 19.4338 22.4281C19.5045 22.8512 19.2183 23.2526 18.7944 23.3226L9.4611 24.8781C9.41832 24.8859 9.37477 24.889 9.33277 24.889ZM9.33277 21.7779C8.95943 21.7779 8.62966 21.508 8.56666 21.1277C8.49588 20.7046 8.7821 20.3032 9.20599 20.2332L18.5393 18.6777C18.9624 18.6022 19.3638 18.8931 19.4338 19.317C19.5045 19.7401 19.2183 20.1415 18.7944 20.2115L9.4611 21.767C9.41832 21.7748 9.37477 21.7779 9.33277 21.7779Z" fill="#CCD6DD"/>
</svg>
