<svg width="28" height="28" viewBox="0 0 28 28" fill="none" xmlns="http://www.w3.org/2000/svg">
<g clip-path="url(#clip0_1876_309)">
<path d="M27.7682 5.81525L22.1838 0.231583C21.8758 -0.0771945 21.3764 -0.0771945 21.0669 0.231583L2.64056 18.6579C2.33178 18.9667 2.33178 19.4653 2.64056 19.7756C3.20056 20.3348 0.198333 25.9659 0 26.3836L1.60844 27.9998C2.02533 27.8015 7.66344 24.7992 8.22422 25.3592C8.533 25.668 9.03233 25.668 9.34111 25.3592L27.7682 6.93214C28.077 6.62414 28.077 6.12403 27.7682 5.81525Z" fill="#2F5FDD"/>
<path d="M3.21915 18.0754L20.5387 0.755859L27.2431 7.4603L9.92359 24.7799L3.21915 18.0754Z" fill="#5786FF"/>
<path d="M18.3042 2.99091L19.4219 1.87402L26.1263 8.57847L25.0087 9.69536L18.3042 2.99091ZM4.33688 16.9575L5.45377 15.8398L12.1582 22.5442L11.0405 23.6619L4.33688 16.9575Z" fill="#C9D8FF"/>
<path d="M20.9113 7.27451C19.7283 6.09151 16.2586 7.64473 13.1592 10.7426C10.0613 13.8413 8.50884 17.3117 9.69106 18.4947C10.8733 19.6777 14.3445 18.1245 17.4432 15.0266C20.5411 11.928 22.0935 8.45673 20.9113 7.27451Z" fill="#2B38AC"/>
</g>
<defs>
<clipPath id="clip0_1876_309">
<rect width="28" height="28" fill="white"/>
</clipPath>
</defs>
</svg>
