<svg width="23" height="23" viewBox="0 0 23 23" fill="none" xmlns="http://www.w3.org/2000/svg">
<path d="M21.5837 15.7747C21.5837 17.1247 20.4892 16.9969 19.1392 16.9969H3.86144C2.51149 16.9969 1.41699 17.1247 1.41699 15.7747L2.63921 7.22222C2.81827 6.15278 3.25033 6 3.86144 6H19.1392C19.7503 6 20.2337 6.12711 20.3614 7.22222L21.5837 15.7747Z" fill="#8CCAF7"/>
<path d="M17.9163 10.5827C17.9163 11.0893 17.5057 11.4993 16.9997 11.4993H5.99967C5.49306 11.4993 5.08301 11.0893 5.08301 10.5827C5.08301 10.0761 5.49367 9.66602 5.99967 9.66602H16.9997C17.5057 9.66602 17.9163 10.0761 17.9163 10.5827Z" fill="#292F33"/>
<path d="M16.5412 11.0043V2.44878C16.5412 1.77351 15.9943 1.22656 15.319 1.22656H7.37457C6.6999 1.22656 6.15234 1.77351 6.15234 2.44878V11.0043H16.5412Z" fill="#FFD983"/>
<path d="M21.5837 15.7769C21.5837 15.1022 21.0361 14.5547 20.3614 14.5547H2.63921C1.96455 14.5547 1.41699 15.1022 1.41699 15.7769V20.6658C1.41699 21.3405 1.96455 21.888 2.63921 21.888H20.3614C21.0361 21.888 21.5837 21.3405 21.5837 20.6658V15.7769Z" fill="#5DADEC"/>
<path d="M8.75 14.5557V18.2223C8.75 18.897 9.29756 19.4446 9.97222 19.4446H13.0278C13.7031 19.4446 14.25 18.897 14.25 18.2223V14.5557H8.75Z" fill="#4289C1"/>
<path d="M14.25 14.555V13.9439C14.25 13.2692 13.7031 12.7217 13.0278 12.7217H9.97222C9.29756 12.7217 8.75 13.2692 8.75 13.9439V14.555H14.25ZM12.4167 17.305C12.4167 17.811 12.006 18.2217 11.5 18.2217C10.9934 18.2217 10.5833 17.811 10.5833 17.305V16.6939C10.5833 16.1879 10.9934 15.7772 11.5 15.7772C12.006 15.7772 12.4167 16.1879 12.4167 16.6939V17.305Z" fill="#5DADEC"/>
<path d="M15.1671 3.55556C15.1671 3.72422 15.0302 3.86111 14.8615 3.86111H10.2782C10.1095 3.86111 9.97266 3.72422 9.97266 3.55556C9.97266 3.38689 10.1095 3.25 10.2782 3.25H14.8615C15.0302 3.25 15.1671 3.38689 15.1671 3.55556ZM15.1671 6C15.1671 6.16867 15.0302 6.30556 14.8615 6.30556H10.2782C10.1095 6.30556 9.97266 6.16867 9.97266 6C9.97266 5.83133 10.1095 5.69444 10.2782 5.69444H14.8615C15.0302 5.69444 15.1671 5.83133 15.1671 6ZM15.1671 8.44444C15.1671 8.61311 15.0302 8.75 14.8615 8.75H10.2782C10.1095 8.75 9.97266 8.61311 9.97266 8.44444C9.97266 8.27578 10.1095 8.13889 10.2782 8.13889H14.8615C15.0302 8.13889 15.1671 8.27578 15.1671 8.44444Z" fill="#C1694F"/>
<path d="M8.44412 4.16656C8.78163 4.16656 9.05523 3.89295 9.05523 3.55545C9.05523 3.21794 8.78163 2.94434 8.44412 2.94434C8.10661 2.94434 7.83301 3.21794 7.83301 3.55545C7.83301 3.89295 8.10661 4.16656 8.44412 4.16656Z" fill="#C1694F"/>
<path d="M8.44412 6.61089C8.78163 6.61089 9.05523 6.33729 9.05523 5.99978C9.05523 5.66228 8.78163 5.38867 8.44412 5.38867C8.10661 5.38867 7.83301 5.66228 7.83301 5.99978C7.83301 6.33729 8.10661 6.61089 8.44412 6.61089Z" fill="#C1694F"/>
<path d="M8.44412 9.05523C8.78163 9.05523 9.05523 8.78163 9.05523 8.44412C9.05523 8.10661 8.78163 7.83301 8.44412 7.83301C8.10661 7.83301 7.83301 8.10661 7.83301 8.44412C7.83301 8.78163 8.10661 9.05523 8.44412 9.05523Z" fill="#C1694F"/>
</svg>
