<svg xmlns="http://www.w3.org/2000/svg" width="23" height="23" viewBox="0 0 23 23" fill="none">
  <g clip-path="url(#clip0_1876_595)">
    <path d="M9.6677 5.9995L13.3344 2.33283C13.3344 2.33283 17.001 -1.33383 20.6677 2.33283C24.3344 5.9995 20.6677 9.66617 20.6677 9.66617L15.7788 14.5551C15.7788 14.5551 12.1121 18.2217 8.44548 14.5551C7.75798 13.8676 7.33203 12.9539 7.33203 12.9539L9.38109 10.9079C9.38109 10.9079 9.29859 11.7415 10.2788 12.7217C10.2788 12.7217 12.1121 14.5551 13.9455 12.7217L18.8344 7.83284C18.8344 7.83284 20.6677 5.9995 18.8344 4.16617C17.001 2.33283 15.1677 4.16617 15.1677 4.16617L12.8889 6.445C12.8889 6.445 11.7559 5.5155 9.43853 6.22867L9.6677 5.9995Z" fill="#5786FF"/>
    <path d="M13.2413 16.9994L9.57466 20.6661C9.57466 20.6661 5.90799 24.3328 2.24132 20.6661C-1.42534 16.9994 2.24132 13.3328 2.24132 13.3328L7.13021 8.44389C7.13021 8.44389 10.7969 4.77722 14.4635 8.44389C15.151 9.13139 15.577 10.045 15.577 10.045L13.5273 12.0916C13.5273 12.0916 13.6098 11.2574 12.6296 10.2772C12.6296 10.2772 10.7963 8.44389 8.96293 10.2772L4.07405 15.1661C4.07405 15.1661 2.24071 16.9994 4.07405 18.8328C5.90738 20.6661 7.74071 18.8328 7.74071 18.8328L10.0195 16.5539C10.0195 16.5539 11.1525 17.4834 13.4699 16.7703L13.2413 16.9994Z" fill="#5786FF"/>
  </g>
  <defs>
    <clipPath id="clip0_1876_595">
      <rect width="22" height="22" fill="white" transform="translate(0.5 0.5)"/>
    </clipPath>
  </defs>
</svg>