<svg width="22" height="23" viewBox="0 0 22 23" fill="none" xmlns="http://www.w3.org/2000/svg">
<g clip-path="url(#clip0_1584_1434)">
<path d="M22 20.0547C22 21.4046 20.9055 22.4991 19.5556 22.4991H2.44444C1.0945 22.4991 0 21.4046 0 20.0547V5.99913C0 4.64919 1.0945 3.55469 2.44444 3.55469H19.5556C20.9055 3.55469 22 4.64919 22 5.99913V20.0547Z" fill="white"/>
<path d="M20.7778 0.5H18.7752C18.8803 0.680278 18.9444 0.887444 18.9444 1.11111C18.9444 1.78578 18.3969 2.33333 17.7222 2.33333C17.0476 2.33333 16.5 1.78578 16.5 1.11111C16.5 0.887444 16.5642 0.680278 16.6693 0.5H5.33072C5.43583 0.680278 5.5 0.887444 5.5 1.11111C5.5 1.78578 4.95244 2.33333 4.27778 2.33333C3.60311 2.33333 3.05556 1.78578 3.05556 1.11111C3.05556 0.887444 3.11972 0.680278 3.22483 0.5H1.22222C0.547556 0.5 0 1.04756 0 1.72222V8.44444H22V1.72222C22 1.04756 21.4524 0.5 20.7778 0.5Z" fill="#DD2F45"/>
<path d="M14.4759 12.1107H14.1704C13.5073 12.1107 13.2305 11.664 13.2305 11.194C13.2305 10.71 13.5757 10.2773 14.1704 10.2773H15.4017C15.9957 10.2773 16.3276 10.7057 16.3276 11.2582V19.1201C16.3276 19.8107 15.9866 20.1975 15.3926 20.1975C14.7986 20.1975 14.4759 19.8107 14.4759 19.1201V12.1107Z" fill="#66757F"/>
<path d="M20.1658 7.22222C20.5033 7.22222 20.7769 6.94862 20.7769 6.61111C20.7769 6.2736 20.5033 6 20.1658 6C19.8283 6 19.5547 6.2736 19.5547 6.61111C19.5547 6.94862 19.8283 7.22222 20.1658 7.22222Z" fill="#F3AAB9"/>
<path d="M20.1658 5.38824C20.5033 5.38824 20.7769 5.11463 20.7769 4.77713C20.7769 4.43962 20.5033 4.16602 20.1658 4.16602C19.8283 4.16602 19.5547 4.43962 19.5547 4.77713C19.5547 5.11463 19.8283 5.38824 20.1658 5.38824Z" fill="#F3AAB9"/>
<path d="M18.3299 7.22222C18.6674 7.22222 18.941 6.94862 18.941 6.61111C18.941 6.2736 18.6674 6 18.3299 6C17.9924 6 17.7188 6.2736 17.7188 6.61111C17.7188 6.94862 17.9924 7.22222 18.3299 7.22222Z" fill="#F3AAB9"/>
<path d="M18.3299 5.38824C18.6674 5.38824 18.941 5.11463 18.941 4.77713C18.941 4.43962 18.6674 4.16602 18.3299 4.16602C17.9924 4.16602 17.7188 4.43962 17.7188 4.77713C17.7188 5.11463 17.9924 5.38824 18.3299 5.38824Z" fill="#F3AAB9"/>
<path d="M16.4978 7.22222C16.8353 7.22222 17.1089 6.94862 17.1089 6.61111C17.1089 6.2736 16.8353 6 16.4978 6C16.1603 6 15.8867 6.2736 15.8867 6.61111C15.8867 6.94862 16.1603 7.22222 16.4978 7.22222Z" fill="#F3AAB9"/>
<path d="M16.4978 5.38824C16.8353 5.38824 17.1089 5.11463 17.1089 4.77713C17.1089 4.43962 16.8353 4.16602 16.4978 4.16602C16.1603 4.16602 15.8867 4.43962 15.8867 4.77713C15.8867 5.11463 16.1603 5.38824 16.4978 5.38824Z" fill="#F3AAB9"/>
<path d="M1.50781 3.51798C1.50781 3.25093 1.71926 3.03948 1.98631 3.03948H2.09203C2.29676 3.03948 2.43976 3.14521 2.52653 3.28759L3.68215 5.16982L4.84326 3.28209C4.94226 3.12076 5.07915 3.04009 5.27165 3.04009H5.37676C5.64381 3.04009 5.85526 3.25154 5.85526 3.51859V6.97137C5.85526 7.23843 5.64381 7.44987 5.37676 7.44987C5.11581 7.44987 4.90498 7.23232 4.90498 6.97137V4.80376L4.06653 6.09565C3.96753 6.24415 3.84348 6.33765 3.66931 6.33765C3.49515 6.33765 3.37109 6.24476 3.27209 6.09565L2.44587 4.82209V6.98359C2.44587 7.24454 2.23442 7.44926 1.97409 7.44926C1.71376 7.44926 1.50842 7.24454 1.50842 6.98359V3.51798H1.50781ZM6.34965 6.7972L7.86459 3.37498C7.97031 3.13909 8.16281 2.99609 8.42376 2.99609H8.47937C8.74031 2.99609 8.9267 3.13909 9.03242 3.37498L10.5474 6.7972C10.5785 6.86504 10.5969 6.92737 10.5969 6.98971C10.5969 7.24454 10.3983 7.44926 10.1434 7.44926C9.91976 7.44926 9.77065 7.31909 9.68387 7.11987L9.39237 6.43665H7.47959L7.17526 7.15104C7.09459 7.33743 6.93326 7.44926 6.73403 7.44926C6.48531 7.44926 6.29281 7.25065 6.29281 7.00193C6.29342 6.93348 6.31848 6.86504 6.34965 6.7972ZM9.03853 5.59209L8.43659 4.1572L7.83403 5.59209H9.03853ZM11.0411 3.54304C11.0411 3.27598 11.2526 3.06454 11.5196 3.06454H13.0291C13.5815 3.06454 14.0099 3.21976 14.2953 3.50576C14.5373 3.74776 14.6681 4.08937 14.6681 4.49943V4.51226C14.6681 5.19548 14.3265 5.61776 13.7985 5.83532L14.4628 6.64259C14.5563 6.76054 14.6186 6.86015 14.6186 7.00926C14.6186 7.27632 14.3949 7.45048 14.1651 7.45048C13.9482 7.45048 13.8046 7.34476 13.6934 7.20176L12.762 6.0217H11.9981V6.97198C11.9981 7.23904 11.7867 7.45048 11.5203 7.45048C11.2532 7.45048 11.0418 7.23904 11.0418 6.97198V3.54304H11.0411ZM12.9668 5.17654C13.4324 5.17654 13.6995 4.92782 13.6995 4.56176V4.54893C13.6995 4.13948 13.4135 3.92804 12.9478 3.92804H11.9975V5.17654H12.9668Z" fill="white"/>
<path d="M5.37826 18.1048L8.15392 15.8309C9.36759 14.8409 9.84181 14.2964 9.84181 13.4872C9.84181 12.6647 9.29792 12.218 8.53098 12.218C7.91742 12.218 7.48476 12.4832 6.94087 13.0686C6.80153 13.222 6.55037 13.376 6.21548 13.376C5.67159 13.376 5.23892 12.9434 5.23892 12.3995C5.23892 12.1624 5.3367 11.9112 5.49009 11.7297C6.27109 10.8228 7.19203 10.293 8.67031 10.293C10.6931 10.293 12.032 11.4785 12.032 13.3057V13.3339C12.032 14.9655 11.1954 15.7746 9.46537 17.1136L7.87526 18.3413H11.2785C11.7949 18.3413 12.2135 18.7599 12.2135 19.2757C12.2135 19.7915 11.7949 20.1966 11.2785 20.1966H5.97837C5.30859 20.1966 4.82031 19.8202 4.82031 19.1785C4.82031 18.7599 5.01587 18.3975 5.37826 18.1048Z" fill="#66757F"/>
</g>
<defs>
<clipPath id="clip0_1584_1434">
<rect width="22" height="22" fill="white" transform="translate(0 0.5)"/>
</clipPath>
</defs>
</svg>
