<svg xmlns="http://www.w3.org/2000/svg" width="50" height="50" viewBox="0 0 50 50" fill="none">
  <g clip-path="url(#clip0_1145_1044)">
    <path d="M47.2222 43.0557H2.77778C1.24444 43.0557 0 44.3001 0 45.8334V50.0001H50V45.8334C50 44.3001 48.7556 43.0557 47.2222 43.0557Z" fill="#FFAC33"/>
    <path d="M23.6085 45.138C23.3654 46.2616 22.2543 46.9755 21.1307 46.731C20.0057 46.4866 19.2918 45.3769 19.5362 44.2533L27.7862 2.08242C28.0307 0.957424 29.1404 0.244924 30.264 0.48798C31.3876 0.732424 32.1015 1.84215 31.8571 2.96576L23.6085 45.138Z" fill="#66757F"/>
    <path d="M29.6725 3.20446C17.3044 0.521127 5.56274 6.24335 3.44746 15.9892C3.44746 15.9892 2.85857 18.7031 4.21551 18.9989C5.57246 19.2933 8.87662 17.1683 8.87662 17.1683L42.8086 24.5336C42.8086 24.5336 44.9336 27.8378 46.2919 28.1322C47.6488 28.4267 48.2377 25.7128 48.2377 25.7128C50.3544 15.9656 42.0419 5.88918 29.6725 3.20446Z" fill="#DD2E44"/>
    <path d="M29.6687 3.20494C20.2993 1.1716 10.9895 7.42299 8.87425 17.1674C8.87425 17.1674 8.28536 19.8827 10.9993 20.4716C13.7131 21.0605 18.3743 19.2299 18.3743 19.2299L33.3034 22.4702C33.3034 22.4702 36.7868 26.0674 39.502 26.6577C42.2159 27.2466 42.8048 24.5327 42.8048 24.5327C44.9215 14.7869 39.0381 5.23827 29.6687 3.20494Z" fill="#E1E8ED"/>
    <path d="M29.6694 3.20489C24.7972 2.14794 20.4903 9.48406 18.375 19.2299C18.375 19.2299 21.8569 22.8285 24.5722 23.4174L25.9292 23.7118C28.6444 24.3007 33.3042 22.4702 33.3042 22.4702C35.4208 12.7257 34.5431 4.26322 29.6694 3.20489Z" fill="#DD2E44"/>
  </g>
  <defs>
    <clipPath id="clip0_1145_1044">
      <rect width="50" height="50" fill="white"/>
    </clipPath>
  </defs>
</svg>