<svg xmlns="http://www.w3.org/2000/svg" width="48" height="48" viewBox="0 0 48 48" fill="none">
  <g clip-path="url(#clip0_1580_3080)">
    <path d="M20.0022 11.9999L28.0022 3.99993C28.0022 3.99993 36.0022 -4.00007 44.0022 3.99993C52.0022 11.9999 44.0022 19.9999 44.0022 19.9999L33.3356 30.6666C33.3356 30.6666 25.3356 38.6666 17.3356 30.6666C15.8356 29.1666 14.9062 27.1733 14.9062 27.1733L19.3769 22.7093C19.3769 22.7093 19.1969 24.5279 21.3356 26.6666C21.3356 26.6666 25.3356 30.6666 29.3356 26.6666L40.0022 15.9999C40.0022 15.9999 44.0022 11.9999 40.0022 7.99993C36.0022 3.99993 32.0022 7.99993 32.0022 7.99993L27.0302 12.9719C27.0302 12.9719 24.5582 10.9439 19.5022 12.4999L20.0022 11.9999Z" fill="#8899A6"/>
    <path d="M27.7958 35.9997L19.7958 43.9997C19.7958 43.9997 11.7958 51.9997 3.79579 43.9997C-4.20421 35.9997 3.79579 27.9997 3.79579 27.9997L14.4625 17.3331C14.4625 17.3331 22.4625 9.33305 30.4625 17.3331C31.9625 18.8331 32.8918 20.8264 32.8918 20.8264L28.4198 25.2917C28.4198 25.2917 28.5998 23.4717 26.4611 21.3331C26.4611 21.3331 22.4611 17.3331 18.4611 21.3331L7.79446 31.9997C7.79446 31.9997 3.79446 35.9997 7.79446 39.9997C11.7945 43.9997 15.7945 39.9997 15.7945 39.9997L20.7665 35.0277C20.7665 35.0277 23.2385 37.0557 28.2945 35.4997L27.7958 35.9997Z" fill="#8899A6"/>
  </g>
  <defs>
    <clipPath id="clip0_1580_3080">
      <rect width="48" height="48" fill="white"/>
    </clipPath>
  </defs>
</svg>