<svg xmlns="http://www.w3.org/2000/svg" width="22" height="23" viewBox="0 0 22 23" fill="none">
  <g clip-path="url(#clip0_887_678)">
    <path d="M9.1677 5.99942L12.8344 2.33275C12.8344 2.33275 16.501 -1.33391 20.1677 2.33275C23.8344 5.99942 20.1677 9.66609 20.1677 9.66609L15.2788 14.555C15.2788 14.555 11.6121 18.2216 7.94548 14.555C7.25798 13.8675 6.83203 12.9539 6.83203 12.9539L8.88109 10.9079C8.88109 10.9079 8.79859 11.7414 9.77881 12.7216C9.77881 12.7216 11.6121 14.555 13.4455 12.7216L18.3344 7.83276C18.3344 7.83276 20.1677 5.99942 18.3344 4.16609C16.501 2.33275 14.6677 4.16609 14.6677 4.16609L12.3889 6.44492C12.3889 6.44492 11.2559 5.51542 8.93853 6.22859L9.1677 5.99942Z" fill="#5786FF"/>
    <path d="M12.7414 16.9996L9.07478 20.6663C9.07478 20.6663 5.40811 24.333 1.74145 20.6663C-1.92522 16.9996 1.74145 13.333 1.74145 13.333L6.63033 8.44408C6.63033 8.44408 10.297 4.77742 13.9637 8.44408C14.6512 9.13158 15.0771 10.0452 15.0771 10.0452L13.0274 12.0918C13.0274 12.0918 13.1099 11.2576 12.1297 10.2774C12.1297 10.2774 10.2964 8.44408 8.46306 10.2774L3.57417 15.1663C3.57417 15.1663 1.74083 16.9996 3.57417 18.833C5.4075 20.6663 7.24083 18.833 7.24083 18.833L9.51967 16.5541C9.51967 16.5541 10.6527 17.4836 12.97 16.7705L12.7414 16.9996Z" fill="#5786FF"/>
  </g>
  <defs>
    <clipPath id="clip0_887_678">
      <rect width="22" height="22" fill="white" transform="translate(0 0.5)"/>
    </clipPath>
  </defs>
</svg>