<svg xmlns="http://www.w3.org/2000/svg" width="17" height="22" viewBox="0 0 17 22" fill="none">
  <path d="M6.3881 16.7496H7.4579V11.5413H9.54123V16.7496H10.611C10.7485 15.4975 11.3871 14.4642 12.4235 13.3361C12.5412 13.209 13.2902 12.4329 13.3787 12.3225C14.1144 11.4034 14.5756 10.2951 14.7091 9.12541C14.8425 7.95568 14.6429 6.77204 14.1332 5.71079C13.6234 4.64955 12.8243 3.75386 11.8278 3.12687C10.8313 2.49989 9.67801 2.16711 8.50069 2.16686C7.32337 2.16661 6.16992 2.4989 5.17317 3.12545C4.17642 3.75201 3.37691 4.64736 2.86671 5.70839C2.35651 6.76942 2.15637 7.95297 2.28935 9.12276C2.42232 10.2925 2.88299 11.401 3.61831 12.3204C3.7079 12.4319 4.45894 13.209 4.57456 13.335C5.61206 14.4642 6.2506 15.4975 6.3881 16.7496ZM6.41623 18.8329V19.8746H10.5829V18.8329H6.41623ZM1.99331 13.6246C1.01226 12.3989 0.397424 10.9209 0.219628 9.36103C0.0418331 7.80113 0.308312 6.22274 0.988367 4.80767C1.66842 3.39261 2.73439 2.19843 4.06347 1.36272C5.39256 0.526997 6.93069 0.0837331 8.50069 0.0839845C10.0707 0.0842359 11.6087 0.527992 12.9375 1.36414C14.2663 2.20028 15.3319 3.39479 16.0115 4.81008C16.6911 6.22536 16.9571 7.80384 16.7788 9.36368C16.6005 10.9235 15.9852 12.4013 15.0037 13.6267C14.3579 14.4309 12.6662 15.7079 12.6662 17.2704V19.8746C12.6662 20.4271 12.4467 20.957 12.056 21.3477C11.6653 21.7384 11.1354 21.9579 10.5829 21.9579H6.41623C5.86369 21.9579 5.33379 21.7384 4.94309 21.3477C4.55239 20.957 4.3329 20.4271 4.3329 19.8746V17.2704C4.3329 15.7079 2.64019 14.4309 1.99331 13.6246Z" fill="#5786FF"/>
</svg>