<svg xmlns="http://www.w3.org/2000/svg" width="40" height="40" viewBox="0 0 40 40" fill="none">
  <g clip-path="url(#clip0_887_664)">
    <path d="M26.2827 25.8858L14.1172 13.7203L24.5461 5.03027L34.9739 15.4581L26.2827 25.8858Z" fill="#2F5FDD"/>
    <path d="M38.4485 15.4579C36.5296 17.379 33.4174 17.379 31.4985 15.4579L24.5463 8.50676C22.6252 6.58787 22.6252 3.47342 24.5463 1.55342C26.4641 -0.365465 29.5774 -0.365465 31.4985 1.55342L38.4485 8.50676C40.3685 10.4256 40.3685 13.539 38.4485 15.4579Z" fill="#5886FF"/>
    <path d="M15.5561 19.8037C15.5561 19.8037 -0.658367 38.9215 0.209411 39.7926C1.0783 40.6626 20.1972 24.4448 20.1972 24.4448L15.5561 19.8037Z" fill="#99AAB5"/>
    <path d="M28.0179 31.1016C26.1001 33.0227 22.9868 33.0227 21.0645 31.1016L8.9001 18.9349C6.98122 17.0149 6.98122 13.9038 8.9001 11.9838C10.8201 10.0627 13.9334 10.0627 15.8534 11.9838L28.0179 24.1494C29.9379 26.0705 29.9379 29.1805 28.0179 31.1016Z" fill="#5886FF"/>
  </g>
  <defs>
    <clipPath id="clip0_887_664">
      <rect width="40" height="40" fill="white"/>
    </clipPath>
  </defs>
</svg>