<svg width="70" height="70" viewBox="0 0 70 70" fill="none" xmlns="http://www.w3.org/2000/svg">
<rect width="70" height="70" fill="#F5F5F5"/>
<g id="Slide 16:9 - 79">
<rect width="1920" height="4148" transform="translate(-809 -3752)" fill="#5786FF"/>
<g id="button">
<rect x="-139" y="68" width="582" height="110" rx="30" fill="#5786FF"/>
</g>
<rect id="Rectangle 2860515" x="-94" y="-297" width="490" height="542" rx="20" fill="#F8F8FB"/>
<rect id="Rectangle 2860521" x="-94" y="-297" width="490" height="542" rx="20" fill="#F8F8FB"/>
<rect id="Rectangle 2860519" x="-74" y="-90" width="218" height="230" rx="14" fill="white"/>
<g id="Group 34474">
<g id="alone">
<path id="Vector" d="M46.6666 52.1091V47.1197C50.5555 44.4985 54.5999 39.7716 55.8113 33.7108C56.1729 33.911 56.2118 34.0413 56.6143 34.0413C58.5413 34.0413 59.9374 31.5388 59.9374 28.4549C59.9374 25.4177 58.3371 22.958 56.4491 22.8841C56.8127 21.5735 57.0188 19.8177 57.0188 17.566C57.0188 10.0488 50.5555 1.02466 36.0518 1.02466C23.1621 1.02466 15.0966 10.0488 15.0966 17.566C15.0966 19.7497 15.2307 21.5385 15.4621 22.923C13.6907 23.1894 12.2946 25.5519 12.2946 28.4549C12.2946 31.5408 13.8579 34.0413 15.7868 34.0413C16.1874 34.0413 15.8354 33.911 16.1932 33.7108C17.4066 39.7697 21.3888 44.4985 25.2777 47.1177V51.8116C15.5554 53.0658 1.94434 58.4947 1.94434 63.9255V65.9885C1.94434 68.0555 4.03656 68.0555 6.09961 68.0555H63.8982C65.9632 68.0555 68.0555 68.0555 68.0555 65.9905V63.9274C68.0555 58.8427 56.3888 53.7677 46.6666 52.1091Z" fill="#226699"/>
</g>
</g>
</g>
</svg>
