<svg xmlns="http://www.w3.org/2000/svg" width="195" height="195" viewBox="0 0 195 195" fill="none">
  <g clip-path="url(#clip0_1889_569)">
    <path d="M96.211 42.0678C97.173 47.1008 93.8664 51.9646 88.9013 52.9137C83.9362 53.8627 79.0688 50.5615 78.1068 45.5285L74.6219 27.2976C73.6589 22.2601 76.9664 17.4009 81.9315 16.4518C86.8966 15.5027 91.7631 18.7994 92.7261 23.8369L96.211 42.0678Z" fill="#FFCC4D"/>
    <path d="M73.1569 187.018C72.1431 187.212 71.0662 187.173 70.005 186.874C66.3503 185.818 64.2131 181.976 65.2324 178.277L90.0124 88.4987C90.71 85.9633 92.766 84.055 95.3232 83.5662C97.8804 83.0773 100.495 84.0928 102.079 86.1921L158.229 160.5C160.541 163.563 159.976 167.921 156.969 170.251C153.959 172.571 149.647 171.979 147.336 168.921L99.5567 105.689L78.4723 182.084C77.7441 184.705 75.6282 186.545 73.1569 187.018Z" fill="#FFAC33"/>
    <path d="M100.122 108.643C98.9312 108.87 97.6944 108.609 96.689 107.915L21.5471 56.134C19.4502 54.6864 18.899 51.8033 20.3151 49.6889C21.7312 47.5744 24.5781 47.0302 26.6697 48.4742L98.0174 97.6353L146.193 25.6222C147.613 23.5069 150.456 22.9636 152.552 24.4066C154.649 25.8542 155.2 28.7373 153.784 30.8517L103.048 106.699C102.364 107.712 101.316 108.414 100.122 108.643Z" fill="#15254D"/>
    <path d="M171.188 90.3348C178.886 130.608 152.923 169.41 113.189 177.005C73.4641 184.599 35.0163 158.109 27.318 117.836C19.6179 77.5541 45.5848 38.7512 85.31 31.1575C125.039 23.5585 163.488 50.0529 171.188 90.3348Z" fill="#5786FF"/>
    <path d="M153.201 93.7722C158.975 123.979 139.509 153.081 109.705 158.778C79.91 164.473 51.0784 144.604 45.3042 114.397C39.5292 84.1856 58.9996 55.0832 88.7946 49.3877C118.598 43.686 147.426 63.5608 153.201 93.7722Z" fill="#EFF3FF"/>
    <path d="M137.512 11.7246C130.063 13.1487 123.908 17.4965 119.971 23.3815L165.513 54.7596C169.447 48.88 171.159 41.4685 169.715 33.9146C166.829 18.8157 152.408 8.87731 137.512 11.7246ZM28.5251 32.5579C35.9704 31.1347 43.2991 32.9052 49.1292 36.9232L18.3711 82.8863C12.5464 78.872 8.22115 72.6147 6.77717 65.0608C3.89096 49.9619 13.6253 35.4061 28.5251 32.5579Z" fill="#FFCC4D"/>
    <path d="M121.865 102.647L99.2343 106.973C96.736 107.45 94.3216 105.815 93.8431 103.312L86.0566 62.5773C85.579 60.0789 87.2191 57.6637 89.7175 57.1861C92.2158 56.7085 94.6311 58.3486 95.1087 60.847L102.03 97.0554L120.134 93.5947C122.637 93.1163 125.048 94.7572 125.525 97.2556C126.004 99.7585 124.368 102.168 121.865 102.647Z" fill="#15254D"/>
  </g>
  <defs>
    <clipPath id="clip0_1889_569">
      <rect width="165.888" height="165.888" fill="white" transform="translate(0.462402 32.0249) rotate(-10.8218)"/>
    </clipPath>
  </defs>
</svg>