<svg xmlns="http://www.w3.org/2000/svg" width="122" height="122" viewBox="0 0 122 122" fill="none">
  <g clip-path="url(#clip0_1889_601)">
    <path d="M60.8256 121.899C94.4187 121.899 121.651 94.6667 121.651 61.0736C121.651 27.4806 94.4187 0.248047 60.8256 0.248047C27.2325 0.248047 0 27.4806 0 61.0736C0 94.6667 27.2325 121.899 60.8256 121.899Z" fill="#FFB049"/>
    <path d="M60.826 110.072C87.8871 110.072 109.824 88.1347 109.824 61.0736C109.824 34.0125 87.8871 12.0752 60.826 12.0752C33.765 12.0752 11.8276 34.0125 11.8276 61.0736C11.8276 88.1347 33.765 110.072 60.826 110.072Z" fill="#FFD983"/>
    <path d="M60.8261 105.003C85.0877 105.003 104.756 85.3353 104.756 61.0736C104.756 36.812 85.0877 17.144 60.8261 17.144C36.5644 17.144 16.8965 36.812 16.8965 61.0736C16.8965 85.3353 36.5644 105.003 60.8261 105.003Z" fill="#F5F8FA"/>
    <path d="M60.8257 27.2817L65.9992 48.5842L84.72 37.1794L73.3152 55.9002L94.6177 61.0737L73.3152 66.2473L84.72 84.9681L65.9992 73.5633L60.8257 94.8657L55.6521 73.5633L36.9314 84.9681L48.3362 66.2473L27.0337 61.0737L48.3362 55.9002L36.9314 37.1794L55.6521 48.5842L60.8257 27.2817Z" fill="#CCD6DD"/>
    <path d="M58.605 70.3585L88.2642 88.542L70.0875 58.8794L58.605 70.3585Z" fill="#292F33"/>
    <path d="M63.0459 51.8373L33.3833 33.6538L51.5634 63.3198L63.0459 51.8373Z" fill="#DD2E44"/>
    <path d="M60.8264 71.4247C66.5279 71.4247 71.1498 66.8028 71.1498 61.1013C71.1498 55.3998 66.5279 50.7778 60.8264 50.7778C55.1249 50.7778 50.5029 55.3998 50.5029 61.1013C50.5029 66.8028 55.1249 71.4247 60.8264 71.4247Z" fill="#8899A6"/>
    <path d="M60.8258 66.671C63.9014 66.671 66.3947 64.1778 66.3947 61.1021C66.3947 58.0265 63.9014 55.5332 60.8258 55.5332C57.7501 55.5332 55.2568 58.0265 55.2568 61.1021C55.2568 64.1778 57.7501 66.671 60.8258 66.671Z" fill="#F5F8FA"/>
  </g>
  <defs>
    <clipPath id="clip0_1889_601">
      <rect width="121.651" height="121.651" fill="white" transform="translate(0 0.248047)"/>
    </clipPath>
  </defs>
</svg>