<svg xmlns="http://www.w3.org/2000/svg" width="110" height="110" viewBox="0 0 110 110" fill="none">
  <g clip-path="url(#clip0_1889_621)">
    <path d="M82.5 97.7778C82.5 104.528 77.0275 110 70.2778 110H39.7222C32.9725 110 27.5 104.528 27.5 97.7778V12.2222C27.5 5.4725 32.9725 0 39.7222 0L70.2778 0C77.0275 0 82.5 5.4725 82.5 12.2222V97.7778Z" fill="#31373D"/>
    <path d="M54.9971 76.3887C61.7469 76.3887 67.2194 81.8612 67.2194 88.6109C67.2194 95.3606 61.7469 100.833 54.9971 100.833C48.2474 100.833 42.7749 95.3606 42.7749 88.6109C42.7749 81.8612 48.2474 76.3887 54.9971 76.3887Z" fill="#77B255"/>
    <path d="M54.9971 42.7778C61.7469 42.7778 67.2194 48.2503 67.2194 55.0001C67.2194 61.7498 61.7469 67.2223 54.9971 67.2223C48.2474 67.2223 42.7749 61.7498 42.7749 55.0001C42.7749 48.2503 48.2474 42.7778 54.9971 42.7778Z" fill="#FFCC4D"/>
    <path d="M54.9971 9.1665C61.7469 9.1665 67.2194 14.639 67.2194 21.3887C67.2194 28.1384 61.7469 33.6109 54.9971 33.6109C48.2474 33.6109 42.7749 28.1384 42.7749 21.3887C42.7749 14.639 48.2474 9.1665 54.9971 9.1665Z" fill="#DD2E44"/>
  </g>
  <defs>
    <clipPath id="clip0_1889_621">
      <rect width="110" height="110" fill="white"/>
    </clipPath>
  </defs>
</svg>