<svg xmlns="http://www.w3.org/2000/svg" width="181" height="181" viewBox="0 0 181 181" fill="none">
  <g clip-path="url(#clip0_1889_611)">
    <path d="M180.794 120.793C180.794 123.558 178.559 125.793 175.794 125.793H170.794C168.029 125.793 165.794 123.558 165.794 120.793V90.7935C165.794 88.0285 168.029 85.7935 170.794 85.7935H175.794C178.559 85.7935 180.794 88.0285 180.794 90.7935V120.793Z" fill="#292F33"/>
    <path d="M25.7939 155.794H155.794C160.794 155.794 170.794 150.794 170.794 135.794C170.794 125.794 170.794 95.7939 165.794 90.7939C160.794 85.7939 165.794 55.7939 145.794 55.7939H75.7939C60.7939 55.7939 45.7939 90.7939 45.7939 90.7939L25.7939 95.7939C25.7939 95.7939 5.79395 100.794 5.79395 115.794V130.794C5.79395 130.794 0.793945 132.484 0.793945 140.579C0.793945 148.674 5.79395 150.794 5.79395 150.794L25.7939 155.794Z" fill="#2F5FDD"/>
    <path d="M45.7939 175.793C56.8396 175.793 65.7939 166.839 65.7939 155.793C65.7939 144.748 56.8396 135.793 45.7939 135.793C34.7483 135.793 25.7939 144.748 25.7939 155.793C25.7939 166.839 34.7483 175.793 45.7939 175.793Z" fill="#292F33"/>
    <path d="M45.7939 165.794C51.3168 165.794 55.7939 161.317 55.7939 155.794C55.7939 150.271 51.3168 145.794 45.7939 145.794C40.2711 145.794 35.7939 150.271 35.7939 155.794C35.7939 161.317 40.2711 165.794 45.7939 165.794Z" fill="#CCD6DD"/>
    <path d="M135.794 175.793C146.84 175.793 155.794 166.839 155.794 155.793C155.794 144.748 146.84 135.793 135.794 135.793C124.748 135.793 115.794 144.748 115.794 155.793C115.794 166.839 124.748 175.793 135.794 175.793Z" fill="#292F33"/>
    <path d="M135.794 165.794C141.317 165.794 145.794 161.317 145.794 155.794C145.794 150.271 141.317 145.794 135.794 145.794C130.271 145.794 125.794 150.271 125.794 155.794C125.794 161.317 130.271 165.794 135.794 165.794Z" fill="#CCD6DD"/>
    <path d="M120.794 85.7944C120.794 88.5544 123.029 90.7944 125.794 90.7944H145.794C148.559 90.7944 150.794 88.5544 150.794 85.7944V70.7944C150.794 68.0344 148.559 65.7944 145.794 65.7944H125.794C123.029 65.7944 120.794 68.0344 120.794 70.7944V85.7944ZM65.7939 85.7944C65.7939 90.7944 68.0339 90.7944 70.7939 90.7944H105.794C108.559 90.7944 110.794 88.5544 110.794 85.7944V70.7944C110.794 68.0344 108.559 65.7944 105.794 65.7944H80.7939C75.7939 65.7944 65.7939 80.7944 65.7939 85.7944Z" fill="#BBDDF5"/>
    <path d="M160.794 118.293C160.794 122.433 157.434 125.793 153.294 125.793H43.2939C39.1489 125.793 35.7939 122.433 35.7939 118.293C35.7939 114.148 39.1489 110.793 43.2939 110.793H153.294C157.434 110.793 160.794 114.148 160.794 118.293Z" fill="#5786FF"/>
  </g>
  <defs>
    <clipPath id="clip0_1889_611">
      <rect width="180" height="180" fill="white" transform="translate(0.793945 0.794434)"/>
    </clipPath>
  </defs>
</svg>