<svg width="550" height="550" viewBox="0 0 550 550" fill="none" xmlns="http://www.w3.org/2000/svg">
<g filter="url(#filter0_d_2005_772)">
<path d="M269.654 106.573L208.807 126.415C204.624 127.779 200.085 125.473 198.721 121.289C197.357 117.106 199.663 112.567 203.847 111.203L264.693 91.3612C268.876 89.997 273.415 92.3035 274.779 96.4867C276.143 100.67 273.837 105.209 269.654 106.573Z" fill="#292F33"/>
<path d="M198.721 121.289L213.932 116.329L218.893 131.54L203.681 136.501L198.721 121.289ZM259.567 101.447L274.779 96.4864L279.739 111.698L264.528 116.659L259.567 101.447Z" fill="#292F33"/>
<path d="M203.681 136.501L218.893 131.54L233.774 177.175L218.563 182.136L203.681 136.501ZM264.528 116.659L279.739 111.698L294.621 157.333L279.409 162.294L264.528 116.659Z" fill="#CCD6DD"/>
<path d="M212.613 318.71C208.429 320.074 203.891 317.768 202.526 313.584L187.645 267.95C186.281 263.766 188.587 259.228 192.77 257.863C196.954 256.499 201.492 258.806 202.856 262.989L217.738 308.624C219.102 312.807 216.796 317.346 212.613 318.71ZM258.248 381.243L250.643 383.723C246.459 385.087 241.921 382.78 240.557 378.597L238.076 370.991C236.712 366.808 239.019 362.27 243.202 360.905L250.808 358.425C254.991 357.061 259.53 359.367 260.894 363.551L263.374 371.156C264.738 375.34 262.432 379.878 258.248 381.243ZM387.547 339.078L379.941 341.558C375.758 342.922 371.219 340.616 369.855 336.433L367.375 328.827C366.011 324.644 368.317 320.105 372.5 318.741L380.106 316.261C384.289 314.896 388.828 317.203 390.192 321.386L392.673 328.992C394.037 333.175 391.73 337.714 387.547 339.078Z" fill="#292F33"/>
<path d="M384.571 329.951L247.666 374.596C239.3 377.324 230.222 372.711 227.494 364.345L175.408 204.623C172.68 196.256 177.293 187.179 185.659 184.451L322.564 139.806C330.93 137.077 340.008 141.69 342.736 150.057L394.822 309.779C397.55 318.145 392.937 327.223 384.571 329.951Z" fill="#4289C1"/>
<path d="M339.761 218.344L218.068 258.028C213.885 259.392 209.346 257.086 207.982 252.903L193.1 207.268C191.736 203.085 194.043 198.546 198.226 197.182L319.919 157.498C324.102 156.133 328.641 158.44 330.005 162.623L344.886 208.258C346.251 212.441 343.944 216.98 339.761 218.344ZM372.004 317.219L250.312 356.904C246.128 358.268 241.59 355.961 240.226 351.778L215.423 275.72C214.059 271.537 216.365 266.998 220.548 265.634L342.241 225.95C346.424 224.586 350.963 226.892 352.327 231.075L377.13 307.133C378.494 311.317 376.188 315.855 372.004 317.219Z" fill="#5DADEC"/>
<path d="M255.107 397.413C259.307 396.043 261.602 391.527 260.232 387.327C258.863 383.126 254.347 380.832 250.146 382.201C245.946 383.571 243.651 388.087 245.021 392.287C246.391 396.488 250.906 398.783 255.107 397.413Z" fill="#292F33"/>
<path d="M392.012 352.768C396.212 351.399 398.507 346.883 397.137 342.682C395.767 338.482 391.252 336.187 387.051 337.557C382.851 338.927 380.556 343.442 381.926 347.643C383.295 351.843 387.811 354.138 392.012 352.768Z" fill="#292F33"/>
<path d="M321.076 173.95L206.989 211.154C204.898 211.836 202.628 210.683 201.946 208.591C201.264 206.499 202.417 204.23 204.509 203.548L318.596 166.344C320.688 165.662 322.957 166.815 323.639 168.907C324.321 170.998 323.168 173.268 321.076 173.95ZM343.399 242.402L229.312 279.606C227.22 280.288 224.951 279.135 224.269 277.043C223.587 274.952 224.74 272.682 226.831 272L340.918 234.796C343.01 234.114 345.279 235.267 345.961 237.359C346.644 239.45 345.49 241.72 343.399 242.402Z" fill="#2A6797"/>
<path d="M214.595 208.673L206.989 211.154C204.898 211.836 202.628 210.683 201.946 208.591C201.264 206.499 202.417 204.23 204.509 203.548L212.115 201.068C214.206 200.386 216.476 201.539 217.158 203.63C217.84 205.722 216.687 207.991 214.595 208.673ZM236.917 277.126L229.312 279.606C227.22 280.288 224.951 279.135 224.269 277.043C223.587 274.952 224.74 272.682 226.831 272L234.437 269.52C236.529 268.838 238.798 269.991 239.48 272.083C240.162 274.174 239.009 276.444 236.917 277.126Z" fill="#F5F8FA"/>
</g>
<defs>
<filter id="filter0_d_2005_772" x="144.623" y="90.9688" width="282.911" height="416.841" filterUnits="userSpaceOnUse" color-interpolation-filters="sRGB">
<feFlood flood-opacity="0" result="BackgroundImageFix"/>
<feColorMatrix in="SourceAlpha" type="matrix" values="0 0 0 0 0 0 0 0 0 0 0 0 0 0 0 0 0 0 127 0" result="hardAlpha"/>
<feOffset dy="80"/>
<feGaussianBlur stdDeviation="15"/>
<feComposite in2="hardAlpha" operator="out"/>
<feColorMatrix type="matrix" values="0 0 0 0 0.428085 0 0 0 0 0.520167 0 0 0 0 0.757229 0 0 0 0.6 0"/>
<feBlend mode="normal" in2="BackgroundImageFix" result="effect1_dropShadow_2005_772"/>
<feBlend mode="normal" in="SourceGraphic" in2="effect1_dropShadow_2005_772" result="shape"/>
</filter>
</defs>
</svg>
