<svg width="70" height="70" viewBox="0 0 70 70" fill="none" xmlns="http://www.w3.org/2000/svg">
<rect width="70" height="70" fill="#F5F5F5"/>
<g id="Slide 16:9 - 79">
<rect width="1920" height="4148" transform="translate(-1040 -3752)" fill="#5786FF"/>
<g id="button">
<rect x="-370" y="68" width="582" height="110" rx="30" fill="#5786FF"/>
</g>
<rect id="Rectangle 2860515" x="-325" y="-297" width="490" height="542" rx="20" fill="#F8F8FB"/>
<rect id="Rectangle 2860521" x="-325" y="-297" width="490" height="542" rx="20" fill="#F8F8FB"/>
<rect id="Rectangle 2860520" x="-73" y="-90" width="218" height="230" rx="14" fill="white"/>
<g id="Group 34475">
<g id="friend">
<path id="Vector" d="M56.3889 40.3063V36.4894C58.3334 34.4866 62.0551 30.8699 62.9826 26.2363C63.2587 26.3899 63.0895 26.4891 63.3967 26.4891C64.8706 26.4891 65.8389 24.5777 65.8389 22.2171C65.8389 19.8955 64.5634 18.0152 63.1187 17.9569C63.3967 16.9535 63.5309 15.6119 63.5309 13.8891C63.5309 8.14131 58.5745 1.24048 47.4834 1.24048C37.6289 1.24048 31.4534 8.14131 31.4534 13.8891C31.4534 15.5574 31.5526 16.9263 31.7295 17.986C30.3742 18.1902 29.3048 19.9946 29.3048 22.2152C29.3048 24.5758 30.4987 26.4871 31.9745 26.4871C32.2798 26.4871 31.8403 26.388 32.1145 26.2344C33.042 30.8699 36.9445 34.4846 38.8889 36.4894V40.0808C31.1112 41.0374 25.2778 45.1908 25.2778 49.346V50.921C25.2778 52.4999 26.8781 52.4999 28.4551 52.4999H64.8745C66.4553 52.4999 68.0556 52.4999 68.0556 50.921V49.346C68.0556 45.4552 62.2223 41.5741 56.3889 40.3063Z" fill="#55ACEE"/>
<path id="Vector_2" d="M33.0554 55.862V52.045C34.9999 50.0423 38.7216 46.4256 39.6491 41.792C39.9252 41.9456 39.756 42.0448 40.0632 42.0448C41.5371 42.0448 42.5055 40.1334 42.5055 37.7728C42.5055 35.4511 41.2299 33.5709 39.7852 33.5125C40.0632 32.5092 40.1974 31.1675 40.1974 29.4448C40.1974 23.697 35.241 16.7961 24.1499 16.7961C14.2935 16.7961 8.11989 23.697 8.11989 29.4448C8.11989 31.1131 8.21906 32.482 8.396 33.5417C7.04072 33.7459 5.97128 35.5503 5.97128 37.7709C5.97128 40.1314 7.16517 42.0428 8.641 42.0428C8.94628 42.0428 8.50684 41.9436 8.781 41.79C9.7085 46.4256 13.611 50.0403 15.5554 52.045V55.6364C7.77767 56.5931 1.94434 60.7464 1.94434 64.9017V66.4786C1.94434 68.0556 3.54461 68.0556 5.12156 68.0556H41.541C43.1218 68.0556 44.7221 68.0556 44.7221 66.4767V64.8998C44.7221 61.0109 38.8888 57.1298 33.0554 55.862Z" fill="#226699"/>
</g>
</g>
</g>
</svg>
