<svg width="281" height="318" viewBox="0 0 281 318" fill="none" xmlns="http://www.w3.org/2000/svg">
<g id="Group 34507" filter="url(#filter0_d_1889_411)">
<path id="Vector" d="M127.427 36.737L83.6069 9.18343C75.5392 4.10994 66.7988 7.12594 64.0805 15.9268L31.29 122.089C28.575 130.879 32.9117 142.121 40.9776 147.2L84.7978 174.754L127.427 36.737ZM153.766 177.362L197.587 204.916C205.651 209.982 214.396 206.968 217.111 198.178L249.902 92.0152C252.618 83.2197 248.276 71.9764 240.214 66.9046L196.394 39.351L153.766 177.362Z" fill="#CCD6DD"/>
<path id="Vector_2" d="M153.768 177.36L84.7991 174.751L127.427 36.7399L196.395 39.3486L153.768 177.36Z" fill="#E1E8ED"/>
<path id="Vector_3" d="M124.148 47.3553L85.198 22.8585C79.8232 19.4773 73.9916 21.4904 72.1815 27.3506L42.6701 122.897C40.8601 128.757 43.7537 136.256 49.1302 139.632L88.0784 164.134L124.148 47.3553ZM232.068 74.4554L193.118 49.9587L157.049 166.737L195.998 191.234C201.373 194.615 207.203 192.608 209.017 186.737L238.528 91.1906C240.336 85.3357 237.443 77.8367 232.068 74.4554Z" fill="#55ACEE"/>
<path id="Vector_4" d="M157.047 166.743L88.0784 164.134L124.148 47.3552L193.116 49.9638L157.047 166.743Z" fill="#88C9F9"/>
<path id="Vector_5" d="M104.638 110.519C103.206 110.111 101.309 110.095 99.9152 109.903C97.4811 109.576 97.3212 112.108 96.7312 111.495C96.1359 110.881 94.6443 109.31 93.4998 106.671C92.357 104.027 95.6089 104.549 96.7384 104.055C97.8679 103.561 95.343 102.624 94.7083 101.498C94.0719 100.377 92.0376 101.277 91.2381 98.821C90.4214 96.3824 91.9972 94.462 92.4667 92.3393C92.9257 90.2134 95.3402 91.2441 96.937 91.778C98.5405 92.2907 99.5567 93.4245 98.8058 95.8556C98.0582 98.2761 99.609 100.22 99.9943 97.0716C100.378 93.9281 101.608 93.7497 102.701 92.7326C103.789 91.7315 105.567 90.4198 107.973 88.314C109.733 86.776 110.502 87.4495 111.459 88.437L116.943 70.6813C116.723 70.3576 116.507 70.0232 116.252 69.811C114.86 68.6135 115.527 73.9654 113.696 75.4698C111.855 76.9709 110.206 75.5138 108.393 74.3784C106.597 73.2479 105.502 70.3165 107.693 68.3068C109.873 66.2939 112.283 68.1664 114.342 66.5638C116.401 64.9612 110.364 61.4277 108.485 59.2833C106.605 57.1267 104.044 55.5334 101.293 56.213C98.541 56.8979 93.7874 54.6679 91.7365 54.3426C89.6839 54.0226 90.0271 51.6691 90.2027 49.8394C90.3749 48.0204 87.2759 47.0224 84.0845 45.9844C80.8842 44.9378 74.3824 44.6216 72.9889 52.785C72.5072 55.6249 75.997 54.4352 76.6827 54.1353C77.3631 53.8338 79.5663 56.1888 79.2001 58.6167C78.8413 61.0584 77.9317 63.3824 76.6547 64.994C75.3619 66.6007 76.7889 70.8848 77.2179 74.5409C77.6539 78.1934 79.1348 79.1217 79.7854 79.5378C80.443 79.9503 83.6428 84.1424 82.797 86.2593C81.948 88.3868 84.9198 92.6772 85.956 95.0265C86.9905 97.3811 87.4928 99.3504 89.2772 100.971C91.0633 102.587 92.1029 107.862 92.962 108.883C93.6208 109.668 94.4413 111.963 95.0685 112.906C93.5677 113.85 90.5936 115.874 90.1329 117.365C89.5049 119.398 90.6601 123.941 91.2288 125.263C91.7939 126.577 93.9544 128.674 93.8216 131.006C93.6905 133.332 90.7514 139.628 88.7204 140.518C86.6772 141.411 84.8129 145.376 84.8129 145.376C84.8129 145.376 84.9005 147.107 87.0778 146.797C88.9541 146.539 92.1249 145.065 94.1982 144.338L104.644 110.52L104.638 110.519Z" fill="#5C913B"/>
<path id="Vector_6" d="M112.772 89.2313C112.215 89.1523 111.76 88.9884 111.331 88.8503L116.816 71.0946C118.057 71.8561 119.014 73.6167 119.362 76.1605C119.769 79.246 122.46 77.5011 122.671 79.3574C122.878 81.212 126.073 84.8155 124.135 84.124C122.191 83.4361 120.189 82.9515 118.927 85.155C117.651 87.3658 118.517 89.6451 117.028 89.3829C115.541 89.1154 114.831 89.53 112.772 89.2313ZM117.408 122.98C115.214 121.873 115.54 122.27 115.056 118.771C114.58 115.269 113.986 114.12 110.632 113.59C107.278 113.06 107.315 113.356 106.913 111.494C106.741 110.696 105.768 110.663 104.511 110.932L94.0672 144.745C94.7318 144.287 95.3155 143.904 95.7152 143.701C99.1778 141.997 102.684 139.888 106.196 137.368C109.708 134.842 109.303 132.955 111.464 130.384C113.631 127.809 115.347 127.995 118.352 125.853C121.37 123.704 119.603 124.1 117.408 122.98ZM177.805 99.5379L188.156 66.0224C187.938 65.9781 187.776 65.9746 187.548 65.9217C186.421 65.6374 184.768 65.848 182.888 66.3431C182.769 66.2772 182.67 66.1828 182.551 66.1169C178.082 63.7189 173.611 70.3621 169.839 68.8888C166.056 67.4123 161.379 64.2757 156.618 67.7938C151.863 71.3084 149.985 74.6414 154.496 74.6626C159.008 74.6837 163.797 69.2495 165.306 71.6692C166.814 74.0889 165.663 75.9718 160.139 76.4985C154.614 77.0305 148.619 77.6906 145.55 77.5742C142.481 77.4577 141.197 79.3348 142.652 81.4587C144.112 83.5842 140.717 83.5998 136.595 85.5188C132.476 87.4271 136.531 88.4759 138.922 90.3365C141.312 92.1971 144.218 90.0943 146.379 87.2207C148.527 84.3491 155.019 81.0456 157.138 81.5662C159.256 82.0868 158.896 83.2546 157.839 85.2831C157.653 85.6386 157.675 85.8314 157.671 86.0336C155.883 88.6213 154.337 90.9927 153.592 92.3676C153.233 93.0416 152.852 94.1799 152.473 95.4817C152.01 95.3619 151.468 95.2931 151.155 95.0804C149.042 93.6775 143.904 91.5615 142.056 92.5198C140.204 93.4887 139.046 94.509 137.006 95.164C134.964 95.8067 126.49 99.033 124.953 103.559C123.412 108.077 121.692 113.192 124.578 113.45C127.464 113.707 135.217 111.933 138.034 110.117C140.847 108.293 143.778 108.856 144.086 111.079C144.383 113.316 143.276 114.602 141.229 118.069C139.16 121.547 140.234 123.361 140.844 126.486C141.467 129.609 142.18 131.405 141.501 133.603C140.826 135.79 142.381 138.078 146.852 134.54C148.292 133.415 149.794 131.925 151.266 130.339C154.206 128.52 156.856 126.699 157.087 125.764C157.462 124.246 157.687 123.426 157.982 122.412L158.826 121.394C159.98 120.047 161.328 117.829 162.641 115.856C162.695 115.815 162.738 115.788 162.787 115.762C164.597 114.362 164.347 114.191 167.105 112.7C168.949 111.699 169.293 110.398 169.352 109.452C170.197 108.695 170.523 108.185 169.562 108.15L169.471 108.145C169.46 108.142 169.413 108.238 169.416 108.21C169.538 107.381 168.318 107.888 166.514 108.174C164.994 107.751 163.618 106.896 163.572 105.125C163.515 102.805 162.009 98.8514 162.37 96.986C162.453 96.7733 162.523 96.5855 162.627 96.3442C162.76 96.1761 162.91 96.048 163.137 95.9902C163.375 95.9357 163.584 95.9539 163.789 95.9881C163.825 96.6445 163.73 97.592 163.485 98.592C162.841 101.167 165.255 100.278 164.76 101.881C164.263 103.49 166.766 105.362 167.37 105.874C167.54 106.02 167.913 105.885 168.375 105.615C168.521 105.724 168.639 105.888 168.808 105.963C170.307 106.607 175.315 102.252 176.645 101.616C177.342 101.279 177.638 100.359 177.466 99.5788L177.805 99.5379Z" fill="#77B255"/>
<path id="Vector_7" d="M189.732 129.329C188.729 131.578 190.379 130.698 191.793 134.065C193.205 137.455 190.595 135.986 189.741 135.269C188.89 134.541 187.991 133.967 187.516 131.57C187.027 129.145 188.656 127.881 189.2 126.118C189.2 126.118 190.74 127.082 189.732 129.329ZM193.131 125.14C194.923 126.659 194.526 122.769 195.805 121.076C197.089 119.403 198.085 119.641 199.346 120.059C200.595 120.457 201.899 119.737 203.068 118.947C204.227 118.148 206.19 117.272 206.509 115.748C206.829 114.224 206.748 113.019 206.766 110.926C206.799 108.843 209.047 109.49 210.597 107.975C212.136 106.456 210.597 107.975 212.844 108.622C215.098 109.272 214.203 108.705 214.879 107.983C215.565 107.27 216.121 106.466 216.281 104.462C216.445 102.461 214.481 103.325 213.068 102.441C211.66 101.558 214.327 100.359 215.047 98.5168C215.769 96.6697 217.425 98.2918 218.761 98.937C220.093 99.5752 219.783 102.067 220.017 102.796C220.263 103.523 225.366 102.326 226.949 101.21C228.52 100.096 226.439 99.3607 227.19 98.9416C227.935 98.5262 224.388 96.1166 223.049 94.9355C221.733 93.7557 218.194 91.302 217.117 89.3296C216.047 87.3536 210.405 84.7796 208.71 84.7733C207.024 84.7527 206.417 83.2338 206.159 81.6246C205.893 80.0191 203.004 78.9234 202.444 77.762C201.884 76.6006 200.559 77.918 199.374 77.744C198.202 77.5855 197.769 77.4984 196.776 75.7263C195.793 73.9575 197.809 73.8881 196.265 71.9578C194.771 70.1124 192.248 69.6588 188.157 66.0171L177.805 99.5326C178.616 99.8643 179.386 100.23 179.654 100.4C180.292 100.801 181.092 104.176 180.746 105.296C180.401 106.416 180.228 109.95 180.332 112.116C180.427 114.274 181.732 115.491 182.632 117.583C183.522 119.672 184.499 118.956 184.499 118.956C184.499 118.956 184.833 115.897 185.524 113.662C186.219 111.411 188.35 110.459 188.35 110.459C188.35 110.459 190.09 114.241 190.03 114.961C189.958 115.683 191.189 119.133 190.977 120.347C190.756 121.552 191.34 123.634 193.131 125.14ZM207.626 117.593C208.471 118.319 212.526 120.101 211.114 116.728C209.698 113.349 211.042 114.967 212.043 112.724C213.045 110.475 211.5 109.51 211.5 109.51C210.956 111.272 209.334 112.55 209.818 114.956C210.294 117.37 206.77 116.863 207.626 117.593ZM209.457 149.388C209.118 148.022 207.854 146.655 206.296 145.731C204.748 144.812 205.543 142.708 203.953 141.909C202.366 141.099 201.703 138.952 201.151 138.066C199.931 136.143 200.246 139.002 200.005 141.777C199.768 144.541 202.261 143.904 203.657 146.312C205.058 148.722 205.738 147.048 207.21 148.741C208.679 150.421 208.878 152.28 210.53 153.127C212.179 153.98 209.808 150.758 209.457 149.388ZM195.414 136.724C196.145 139.288 196.187 137.213 198.115 137.466C200.033 137.715 197.49 134.011 196.761 132.402C196.031 130.792 195.025 130.115 193.469 131.67C191.7 133.443 194.687 134.163 195.414 136.724ZM203.941 154.354C203.789 152.342 202.36 149.72 201.85 148.417C201.322 147.132 200.201 146.093 199.027 145.923C197.851 145.74 197.357 144.872 197.241 143.272C197.114 141.686 196.083 141.56 195.257 141.24C194.444 140.919 190.863 140.575 188.717 140.558C186.579 140.554 185.454 141.015 183.839 141.708C181.286 142.78 182.764 141.987 183.143 143.959C183.514 145.922 180.403 149.311 179.483 151.8C178.558 154.288 183.02 153.073 184.403 153.547C185.785 154.043 185.7 152.848 187.02 152.529C188.35 152.213 189.084 152.416 189.812 154.391C190.548 156.392 191.66 158.515 191.214 159.959C190.772 161.392 194.089 166.353 195.927 166.368C197.765 166.366 199.255 165.024 201.167 164.295C203.08 163.577 203.505 160.226 204.483 158.528C205.477 156.834 204.082 156.345 203.941 154.354Z" fill="#5C913B"/>
</g>
<defs>
<filter id="filter0_d_1889_411" x="0.480469" y="6.7207" width="280.231" height="310.654" filterUnits="userSpaceOnUse" color-interpolation-filters="sRGB">
<feFlood flood-opacity="0" result="BackgroundImageFix"/>
<feColorMatrix in="SourceAlpha" type="matrix" values="0 0 0 0 0 0 0 0 0 0 0 0 0 0 0 0 0 0 127 0" result="hardAlpha"/>
<feOffset dy="80"/>
<feGaussianBlur stdDeviation="15"/>
<feComposite in2="hardAlpha" operator="out"/>
<feColorMatrix type="matrix" values="0 0 0 0 0.428085 0 0 0 0 0.520167 0 0 0 0 0.757229 0 0 0 0.6 0"/>
<feBlend mode="normal" in2="BackgroundImageFix" result="effect1_dropShadow_1889_411"/>
<feBlend mode="normal" in="SourceGraphic" in2="effect1_dropShadow_1889_411" result="shape"/>
</filter>
</defs>
</svg>
