<svg xmlns="http://www.w3.org/2000/svg" width="40" height="41" viewBox="0 0 40 41" fill="none">
  <g clip-path="url(#clip0_1889_547)">
    <path d="M23.7522 11.8311C23.8511 12.7378 22.83 13.4922 21.4711 13.5144C20.1122 13.5367 19.1433 12.8089 19.3077 11.8889L19.7033 9.66667C19.8666 8.74556 20.7455 8 21.6666 8C22.5866 8 23.4133 8.73556 23.5122 9.64222L23.7522 11.8311Z" fill="#CCD6DD"/>
    <path d="M35.8289 17.9995H35.6789L35.1856 14.6661C34.8222 12.2117 33.1144 10.2217 31.3711 10.2217H17.9578C16.2144 10.2217 13.9867 12.2117 12.9822 14.6661L11.6178 17.9995H7.67889C5.37556 17.9995 3.11889 19.9895 2.63667 22.4439L1.98333 25.7772C1.98222 25.7861 1.98333 25.7939 1.98111 25.8006C0.868889 25.9239 0 26.855 0 27.9995C0 29.2261 0.995556 30.2217 2.22222 30.2217H35.5556C38.01 30.2217 40 28.2317 40 25.7772V22.4439C40 19.9895 38.1322 17.9995 35.8289 17.9995Z" fill="#FFCC4D"/>
    <path d="M11.1114 33.5549C13.566 33.5549 15.5559 31.5651 15.5559 29.1105C15.5559 26.6559 13.566 24.666 11.1114 24.666C8.65684 24.666 6.66699 26.6559 6.66699 29.1105C6.66699 31.5651 8.65684 33.5549 11.1114 33.5549Z" fill="#292F33"/>
    <path d="M11.1109 31.3331C12.3382 31.3331 13.3331 30.3382 13.3331 29.1109C13.3331 27.8836 12.3382 26.8887 11.1109 26.8887C9.88359 26.8887 8.88867 27.8836 8.88867 29.1109C8.88867 30.3382 9.88359 31.3331 11.1109 31.3331Z" fill="#CCD6DD"/>
    <path d="M30.0001 33.5549C32.4547 33.5549 34.4446 31.5651 34.4446 29.1105C34.4446 26.6559 32.4547 24.666 30.0001 24.666C27.5455 24.666 25.5557 26.6559 25.5557 29.1105C25.5557 31.5651 27.5455 33.5549 30.0001 33.5549Z" fill="#292F33"/>
    <path d="M30.0001 31.3331C31.2274 31.3331 32.2223 30.3382 32.2223 29.1109C32.2223 27.8836 31.2274 26.8887 30.0001 26.8887C28.7728 26.8887 27.7778 27.8836 27.7778 29.1109C27.7778 30.3382 28.7728 31.3331 30.0001 31.3331Z" fill="#CCD6DD"/>
    <path d="M2.63672 22.4441L2.41895 23.5552H40.0001V22.4441C40.0001 22.0575 39.9389 21.6897 39.8523 21.333H3.00228C2.84561 21.6897 2.71228 22.0575 2.63672 22.4441Z" fill="#F4900C"/>
    <path d="M26.6665 17.9989H33.2443C33.2287 17.5367 33.1732 16.99 33.071 16.3322C32.6321 13.5545 32.4576 12.4434 29.2521 12.4434H26.6665V17.9989ZM24.4443 12.4434H18.8887C17.1176 12.4434 15.2932 14.1845 14.6143 16.3322C14.3987 16.9978 14.2221 17.5411 14.0898 17.9989H24.4443V12.4434Z" fill="#55ACEE"/>
  </g>
  <defs>
    <clipPath id="clip0_1889_547">
      <rect width="40" height="40" fill="white" transform="translate(0 0.5)"/>
    </clipPath>
  </defs>
</svg>