<svg xmlns="http://www.w3.org/2000/svg" width="54" height="54" viewBox="0 0 54 54" fill="none">
  <path d="M27.8956 44.5589L28.7013 46.1124L28.7013 46.1124L27.8956 44.5589ZM26.1044 44.5589L25.2987 46.1124L25.2987 46.1124L26.1044 44.5589ZM41 24.75C41 29.7592 38.4489 33.8612 35.3313 37.0059C32.2152 40.1489 28.6796 42.1809 27.0898 43.0054L28.7013 46.1124C30.4482 45.2063 34.3398 42.9772 37.8168 39.4701C41.2922 35.9646 44.5 31.0275 44.5 24.75H41ZM27 10.75C34.732 10.75 41 17.018 41 24.75H44.5C44.5 15.085 36.665 7.24998 27 7.24998V10.75ZM13 24.75C13 17.018 19.268 10.75 27 10.75V7.24998C17.335 7.24998 9.5 15.085 9.5 24.75H13ZM26.9102 43.0054C25.3204 42.1809 21.7848 40.1489 18.6687 37.0059C15.5511 33.8612 13 29.7592 13 24.75H9.5C9.5 31.0275 12.7078 35.9646 16.1832 39.4701C19.6602 42.9772 23.5518 45.2063 25.2987 46.1124L26.9102 43.0054ZM27.0898 43.0054C27.0507 43.0257 27.0211 43.0302 27 43.0302C26.9789 43.0302 26.9493 43.0257 26.9102 43.0054L25.2987 46.1124C26.3728 46.6695 27.6272 46.6695 28.7013 46.1124L27.0898 43.0054ZM32 24.75C32 27.5114 29.7614 29.75 27 29.75V33.25C31.6944 33.25 35.5 29.4444 35.5 24.75H32ZM27 19.75C29.7614 19.75 32 21.9886 32 24.75H35.5C35.5 20.0556 31.6944 16.25 27 16.25V19.75ZM22 24.75C22 21.9886 24.2386 19.75 27 19.75V16.25C22.3056 16.25 18.5 20.0556 18.5 24.75H22ZM27 29.75C24.2386 29.75 22 27.5114 22 24.75H18.5C18.5 29.4444 22.3056 33.25 27 33.25V29.75Z" fill="white"/>
</svg>