<svg xmlns="http://www.w3.org/2000/svg" width="124" height="125" viewBox="0 0 124 125" fill="none">
  <g clip-path="url(#clip0_1889_578)">
    <path d="M104.005 92.21C102.622 98.4199 97.7182 96.7112 91.5083 95.3283L21.2298 79.6784C15.0199 78.2956 9.85435 77.762 11.2372 71.5521L25.6203 33.4622C27.5395 28.7261 29.6834 28.4659 32.4946 29.0919L102.773 44.7418C105.584 45.3678 107.678 46.4477 107.143 51.6161L104.005 92.21Z" fill="#FFB8CD"/>
    <path d="M92.4563 64.5726C91.9374 66.9031 89.6283 68.3687 87.3006 67.8503L36.7001 56.5824C34.3696 56.0634 32.9034 53.7571 33.4223 51.4267C33.9413 49.0962 36.2504 47.6306 38.578 48.149L89.1786 59.4169C91.5063 59.9352 92.9753 62.2422 92.4563 64.5726Z" fill="#292F33"/>
    <path d="M85.7002 65.0997L94.4642 25.7437C95.1559 22.6374 93.2002 19.5612 90.0939 18.8694L53.549 10.7315C50.4455 10.0404 47.3665 11.9955 46.6748 15.1018L37.9108 54.4578L85.7002 65.0997Z" fill="#E5EAF7"/>
    <path d="M104.002 92.2235C104.693 89.12 102.735 86.0404 99.6318 85.3493L18.1086 67.1954C15.0051 66.5043 11.9254 68.4621 11.2343 71.5656L6.22636 94.0548C5.53526 97.1583 7.49315 100.238 10.5967 100.929L92.1198 119.083C95.2233 119.774 98.303 117.816 98.9941 114.713L104.002 92.2235Z" fill="#FF709B"/>
    <path d="M46.2197 73.4551L42.4637 90.3219C41.7726 93.4254 43.7305 96.5051 46.834 97.1962L60.8898 100.326C63.9961 101.018 67.0729 99.0594 67.764 95.9559L71.52 79.0891L46.2197 73.4551Z" fill="#EA3B70"/>
    <path d="M71.5204 79.0889L72.1464 76.2777C72.8375 73.1742 70.8825 70.0952 67.7761 69.4035L53.7204 66.2735C50.6169 65.5824 47.5373 67.5403 46.8462 70.6438L46.2202 73.4549L71.5204 79.0889ZM60.27 89.861C59.7517 92.1887 57.4419 93.6571 55.1143 93.1388C52.7839 92.6198 51.3183 90.3107 51.8366 87.9831L52.4626 85.1719C52.9809 82.8443 55.2879 81.3752 57.6183 81.8942C59.9459 82.4125 61.4144 84.7223 60.896 87.0499L60.27 89.861Z" fill="#FF709B"/>
    <path d="M87.0051 29.4272C86.8323 30.2031 86.0624 30.6926 85.2865 30.5198L64.2029 25.8248C63.427 25.6521 62.9376 24.8821 63.1103 24.1063C63.2831 23.3304 64.053 22.8409 64.8289 23.0137L85.9125 27.7087C86.6884 27.8814 87.1778 28.6514 87.0051 29.4272ZM84.5011 40.6718C84.3283 41.4477 83.5584 41.9372 82.7825 41.7644L61.6989 37.0694C60.9231 36.8966 60.4336 36.1267 60.6064 35.3508C60.7791 34.575 61.549 34.0855 62.3249 34.2583L83.4085 38.9532C84.1844 39.126 84.6738 39.8959 84.5011 40.6718ZM81.9971 51.9164C81.8243 52.6923 81.0544 53.1817 80.2785 53.009L59.1949 48.314C58.4191 48.1412 57.9296 47.3713 58.1024 46.5954C58.2751 45.8195 59.0451 45.3301 59.8209 45.5028L80.9045 50.1978C81.6804 50.3706 82.1699 51.1405 81.9971 51.9164Z" fill="#5E6D93"/>
    <path d="M55.4566 25.3538C57.0092 25.6995 58.548 24.7212 58.8938 23.1686C59.2395 21.6161 58.2612 20.0772 56.7086 19.7315C55.1561 19.3857 53.6172 20.3641 53.2715 21.9166C52.9257 23.4692 53.9041 25.008 55.4566 25.3538Z" fill="#5E6D93"/>
    <path d="M52.9527 36.5979C54.5053 36.9436 56.0441 35.9653 56.3898 34.4127C56.7356 32.8602 55.7572 31.3213 54.2047 30.9756C52.6521 30.6299 51.1133 31.6082 50.7676 33.1608C50.4218 34.7133 51.4002 36.2522 52.9527 36.5979Z" fill="#5E6D93"/>
    <path d="M50.4488 47.843C52.0013 48.1887 53.5402 47.2104 53.8859 45.6579C54.2317 44.1053 53.2533 42.5665 51.7008 42.2207C50.1482 41.875 48.6094 42.8533 48.2637 44.4059C47.9179 45.9584 48.8962 47.4973 50.4488 47.843Z" fill="#5E6D93"/>
  </g>
  <defs>
    <clipPath id="clip0_1889_578">
      <rect width="103.68" height="103.68" fill="white" transform="translate(22.6675 0.347656) rotate(12.554)"/>
    </clipPath>
  </defs>
</svg>