<svg xmlns="http://www.w3.org/2000/svg" width="54" height="54" viewBox="0 0 54 54" fill="none">
  <path d="M9 21.7279C9 19.8885 9 18.9689 9.34254 18.1419C9.68508 17.3149 10.3354 16.6646 11.636 15.364L13.114 13.886C14.4146 12.5854 15.0649 11.9351 15.8919 11.5925C16.7189 11.25 17.6385 11.25 19.4779 11.25H34.5221C36.3615 11.25 37.2811 11.25 38.1081 11.5925C38.9351 11.9351 39.5854 12.5854 40.886 13.886L42.364 15.364C43.6646 16.6646 44.3149 17.3149 44.6575 18.1419C45 18.9689 45 19.8885 45 21.7279V36C45 40.2426 45 42.364 43.682 43.682C42.364 45 40.2426 45 36 45H18C13.7574 45 11.636 45 10.318 43.682C9 42.364 9 40.2426 9 36V21.7279Z" stroke="white" stroke-width="3.5"/>
  <path d="M9 19.5H45" stroke="white" stroke-width="3.5" stroke-linecap="round"/>
  <path d="M33.375 18.25L20.625 18.25C20.0947 18.25 19.8295 18.25 19.6648 18.4148C19.5 18.5795 19.5 18.8447 19.5 19.375L19.5 28.75C19.5 30.4708 19.5 31.3312 19.7225 31.7937C20.2193 32.826 21.4125 33.3202 22.4937 32.9415C22.9781 32.7719 23.5865 32.1635 24.8033 30.9467C25.3669 30.3831 25.6487 30.1013 25.9483 29.9429C26.6063 29.595 27.3937 29.595 28.0517 29.9429C28.3513 30.1013 28.6331 30.3831 29.1967 30.9467C30.4135 32.1635 31.0219 32.7719 31.5063 32.9415C32.5875 33.3202 33.7807 32.826 34.2775 31.7937C34.5 31.3312 34.5 30.4708 34.5 28.75V19.375C34.5 18.8447 34.5 18.5795 34.3352 18.4148C34.1705 18.25 33.9053 18.25 33.375 18.25Z" fill="white"/>
</svg>