<svg width="456" height="456" viewBox="0 0 456 456" fill="none" xmlns="http://www.w3.org/2000/svg">
<path d="M216 98.4C216 105.027 221.373 110.4 228 110.4C234.627 110.4 240 105.027 240 98.4H216ZM240 12C240 5.37258 234.627 0 228 0C221.373 0 216 5.37258 216 12H240ZM216 444C216 450.627 221.373 456 228 456C234.627 456 240 450.627 240 444H216ZM240 357.6C240 350.973 234.627 345.6 228 345.6C221.373 345.6 216 350.973 216 357.6H240ZM357.6 216C350.973 216 345.6 221.373 345.6 228C345.6 234.627 350.973 240 357.6 240V216ZM444 240C450.627 240 456 234.627 456 228C456 221.373 450.627 216 444 216V240ZM12 216C5.37258 216 0 221.373 0 228C0 234.627 5.37258 240 12 240V216ZM98.4 240C105.027 240 110.4 234.627 110.4 228C110.4 221.373 105.027 216 98.4 216V240ZM388.8 227.999C388.8 316.806 316.807 388.799 228 388.799V412.799C330.062 412.799 412.8 330.061 412.8 227.999H388.8ZM228 388.799C139.193 388.799 67.2 316.806 67.2 227.999H43.2C43.2 330.061 125.938 412.799 228 412.799V388.799ZM67.2 227.999C67.2 139.191 139.193 67.1988 228 67.1988V43.1988C125.938 43.1988 43.2 125.937 43.2 227.999H67.2ZM228 67.1988C316.807 67.1988 388.8 139.191 388.8 227.999H412.8C412.8 125.937 330.062 43.1988 228 43.1988V67.1988ZM240 98.4V12H216V98.4H240ZM240 444V357.6H216V444H240ZM357.6 240H444V216H357.6V240ZM12 240H98.4V216H12V240ZM280.8 228C280.8 257.161 257.161 280.8 228 280.8V304.8C270.415 304.8 304.8 270.415 304.8 228H280.8ZM228 280.8C198.839 280.8 175.2 257.161 175.2 228H151.2C151.2 270.415 185.585 304.8 228 304.8V280.8ZM175.2 228C175.2 198.839 198.839 175.2 228 175.2V151.2C185.585 151.2 151.2 185.585 151.2 228H175.2ZM228 175.2C257.161 175.2 280.8 198.839 280.8 228H304.8C304.8 185.585 270.415 151.2 228 151.2V175.2Z" fill="#EFF3FF" fill-opacity="0.5"/>
</svg>
