<svg xmlns="http://www.w3.org/2000/svg" width="108" height="108" viewBox="0 0 108 108" fill="none">
  <path d="M48.3091 78H57.3091V108H48.3091V78Z" fill="#BE1931"/>
  <path d="M62.1568 58.377L43.4578 58.383C43.3708 58.695 35.2228 86.955 7.38281 108H24.8578C32.2168 103.032 42.0178 99.966 52.8058 99.966C63.5938 99.966 73.3978 103.032 80.7568 108H98.2378C70.5028 87.006 62.2438 58.689 62.1568 58.377ZM52.8088 90.966C46.3558 90.966 40.2028 91.953 34.5298 93.684C38.3698 88.707 41.4388 83.889 43.8868 79.533H61.7278C64.1758 83.892 67.2448 88.707 71.0848 93.684C65.4118 91.95 59.2618 90.966 52.8088 90.966Z" fill="#DD2E44"/>
  <path d="M43.6172 48.1138C42.9422 51.8308 42.1562 55.4248 41.2622 58.6138H64.5272C63.6302 55.4248 62.8472 51.8308 62.1722 48.1138H43.6172Z" fill="#DD2E44"/>
  <path d="M70.2601 58.7582L67.6351 56.8322C67.5001 56.7332 67.3321 56.6792 67.1611 56.6792H38.5201C38.3491 56.6792 38.1811 56.7332 38.0461 56.8322L35.4211 58.7582C35.2141 58.9112 35.1001 59.1542 35.1151 59.4032C35.1151 59.4032 35.7271 69.7262 35.9101 70.0592C36.1291 70.4582 37.4341 71.4992 37.6741 71.4992H68.0071C68.2471 71.4992 69.5491 70.4612 69.7711 70.0592C69.9571 69.7232 70.5661 59.4032 70.5661 59.4032C70.5841 59.1542 70.4701 58.9112 70.2601 58.7582ZM60.5971 38.1152H45.1891C44.7451 41.3702 44.2231 44.7752 43.6171 48.1142H62.1691C61.5631 44.7752 61.0411 41.3702 60.5971 38.1152Z" fill="#CDD6DD"/>
  <path d="M59.322 27.6152H46.464C46.14 30.6212 45.717 34.2512 45.189 38.1152H60.597C60.069 34.2512 59.649 30.6212 59.322 27.6152Z" fill="#DD2E44"/>
  <path d="M58.9709 24.2668C58.8959 24.2788 46.9079 24.2728 46.8179 24.2578C46.7159 25.2598 46.5989 26.3698 46.4639 27.6148H59.3219L58.9709 24.2668Z" fill="#CDD6DD"/>
  <path d="M58.9709 24.2659C58.7939 22.5529 58.5659 20.4229 58.5659 20.4229H47.2229C47.2229 20.4229 46.9949 22.5499 46.8179 24.2569C46.9079 24.2719 58.8959 24.2779 58.9709 24.2659Z" fill="#AAB8C2"/>
  <path d="M45.5254 17.7041V21.6581C45.5254 22.4861 46.2244 23.1581 47.0884 23.1581H58.7524C59.6134 23.1581 60.3154 22.4861 60.3154 21.6581V17.7041H45.5254Z" fill="#E1E8ED"/>
  <path d="M58.7494 12.2502H55.4524L54.8374 0.976172C54.8374 0.685172 54.5914 0.451172 54.2914 0.451172H51.7474C51.4444 0.451172 51.2014 0.685172 51.2014 0.976172L50.5864 12.2502H47.0884C46.2274 12.2502 45.5254 12.9222 45.5254 13.7502V17.7042H60.3124V13.7502C60.3124 12.9222 59.6134 12.2502 58.7494 12.2502Z" fill="#DD2E44"/>
</svg>