<svg xmlns="http://www.w3.org/2000/svg" width="48" height="48" viewBox="0 0 48 48" fill="none">
  <path d="M46 33.3267C46 36.272 43.612 35.9933 40.6667 35.9933H7.33333C4.388 35.9933 2 36.272 2 33.3267L4.66667 14.6667C5.05733 12.3333 6 12 7.33333 12H40.6667C42 12 43.0547 12.2773 43.3333 14.6667L46 33.3267Z" fill="#8CCAF7"/>
  <path d="M38 22C38 23.1053 37.104 24 36 24H12C10.8947 24 10 23.1053 10 22C10 20.8947 10.896 20 12 20H36C37.104 20 38 20.8947 38 22Z" fill="#292F33"/>
  <path d="M35.0002 22.9173V4.25065C35.0002 2.77732 33.8068 1.58398 32.3335 1.58398H15.0002C13.5282 1.58398 12.3335 2.77732 12.3335 4.25065V22.9173H35.0002Z" fill="#FFD983"/>
  <path d="M46 33.3334C46 31.8614 44.8053 30.6667 43.3333 30.6667H4.66667C3.19467 30.6667 2 31.8614 2 33.3334V44.0001C2 45.4721 3.19467 46.6667 4.66667 46.6667H43.3333C44.8053 46.6667 46 45.4721 46 44.0001V33.3334Z" fill="#5DADEC"/>
  <path d="M18 30.6667V38.6667C18 40.1387 19.1947 41.3334 20.6667 41.3334H27.3333C28.8067 41.3334 30 40.1387 30 38.6667V30.6667H18Z" fill="#4289C1"/>
  <path d="M30 30.6667V29.3334C30 27.8614 28.8067 26.6667 27.3333 26.6667H20.6667C19.1947 26.6667 18 27.8614 18 29.3334V30.6667H30ZM26 36.6667C26 37.7707 25.104 38.6667 24 38.6667C22.8947 38.6667 22 37.7707 22 36.6667V35.3334C22 34.2294 22.8947 33.3334 24 33.3334C25.104 33.3334 26 34.2294 26 35.3334V36.6667Z" fill="#5DADEC"/>
  <path d="M31.9998 6.66667C31.9998 7.03467 31.7012 7.33333 31.3332 7.33333H21.3332C20.9652 7.33333 20.6665 7.03467 20.6665 6.66667C20.6665 6.29867 20.9652 6 21.3332 6H31.3332C31.7012 6 31.9998 6.29867 31.9998 6.66667ZM31.9998 12C31.9998 12.368 31.7012 12.6667 31.3332 12.6667H21.3332C20.9652 12.6667 20.6665 12.368 20.6665 12C20.6665 11.632 20.9652 11.3333 21.3332 11.3333H31.3332C31.7012 11.3333 31.9998 11.632 31.9998 12ZM31.9998 17.3333C31.9998 17.7013 31.7012 18 31.3332 18H21.3332C20.9652 18 20.6665 17.7013 20.6665 17.3333C20.6665 16.9653 20.9652 16.6667 21.3332 16.6667H31.3332C31.7012 16.6667 31.9998 16.9653 31.9998 17.3333Z" fill="#C1694F"/>
  <path d="M17.3333 7.99992C18.0697 7.99992 18.6667 7.40297 18.6667 6.66659C18.6667 5.93021 18.0697 5.33325 17.3333 5.33325C16.597 5.33325 16 5.93021 16 6.66659C16 7.40297 16.597 7.99992 17.3333 7.99992Z" fill="#C1694F"/>
  <path d="M17.3333 13.3332C18.0697 13.3332 18.6667 12.7362 18.6667 11.9998C18.6667 11.2635 18.0697 10.6665 17.3333 10.6665C16.597 10.6665 16 11.2635 16 11.9998C16 12.7362 16.597 13.3332 17.3333 13.3332Z" fill="#C1694F"/>
  <path d="M17.3333 18.6667C18.0697 18.6667 18.6667 18.0697 18.6667 17.3333C18.6667 16.597 18.0697 16 17.3333 16C16.597 16 16 16.597 16 17.3333C16 18.0697 16.597 18.6667 17.3333 18.6667Z" fill="#C1694F"/>
</svg>