<svg xmlns="http://www.w3.org/2000/svg" width="50" height="50" viewBox="0 0 50 50" fill="none">
  <path d="M0 40.2781C0 43.3462 2.4875 45.8337 5.55556 45.8337H38.8889C41.9569 45.8337 44.4444 43.3462 44.4444 40.2781V16.667C44.4444 13.5989 41.9569 11.1114 38.8889 11.1114H26.3889C21.4417 11.1114 22.2222 4.16699 14.6694 4.16699H5.55556C2.4875 4.16699 0 6.65449 0 9.72255V40.2781Z" fill="#2F5FDD"/>
  <path d="M44.9111 16.667H35.7972C28.2444 16.667 28.3208 23.6114 23.3736 23.6114H10.8736C7.80555 23.6114 5.06528 26.0989 4.75417 29.167L4.06944 34.5475L3.34167 40.2781L3.31389 40.2753C3.15278 41.1184 2.38056 41.6628 1.50833 41.6628C0.615278 41.6628 -0.0277778 40.9587 0.0166667 40.0739C0.0138889 40.1434 0 40.2087 0 40.2781C0 43.0614 2.05278 45.3448 4.72222 45.7489C4.96806 45.8017 5.2375 45.8337 5.55556 45.8337H41.6667C44.7347 45.8337 47.475 43.3462 47.7861 40.2781L49.9014 22.2225C50.2139 19.1545 47.9792 16.667 44.9111 16.667Z" fill="#5786FF"/>
</svg>