<svg xmlns="http://www.w3.org/2000/svg" width="50" height="53" viewBox="0 0 50 53" fill="none">
  <g clip-path="url(#clip0_1580_4412)">
    <path d="M1.38892 33.7744V43.3594C1.38892 48.6548 11.9597 52.9459 25 52.9459C38.0403 52.9459 48.6111 48.6548 48.6111 43.3609V33.7759H1.38892V33.7744Z" fill="#99AAB5"/>
    <path d="M25 43.3585C38.0401 43.3585 48.6111 39.0672 48.6111 33.7735C48.6111 28.4798 38.0401 24.1885 25 24.1885C11.96 24.1885 1.38892 28.4798 1.38892 33.7735C1.38892 39.0672 11.96 43.3585 25 43.3585Z" fill="#E1E8ED"/>
    <path d="M24.9977 29.9387C34.3033 29.9387 42.1005 32.3841 44.3213 35.69C44.7338 35.0757 44.9769 34.4365 44.9769 33.7724C44.9769 29.537 36.0324 26.1035 24.9977 26.1035C13.963 26.1035 5.01855 29.537 5.01855 33.7724C5.01855 34.4351 5.26161 35.0757 5.67411 35.69C7.89494 32.3841 15.6922 29.9387 24.9977 29.9387Z" fill="#AAB8C2"/>
    <path d="M24.9984 41.4431C35.6706 41.4431 44.322 38.8681 44.322 35.6917C44.322 32.5154 35.6706 29.9404 24.9984 29.9404C14.3263 29.9404 5.6748 32.5154 5.6748 35.6917C5.6748 38.8681 14.3263 41.4431 24.9984 41.4431Z" fill="#3B88C3"/>
    <path d="M24.9999 32.6094C18.7541 32.6094 11.6318 34.4932 11.6318 35.6925C11.6318 36.8917 18.7554 38.7741 24.9999 38.7741C31.2443 38.7741 38.3679 36.8917 38.3679 35.6925C38.3679 34.4932 31.2457 32.6094 24.9999 32.6094Z" fill="#50A5E6"/>
    <path d="M20.8333 33.3213V35.3518C20.8333 36.1625 22.6985 36.8178 24.9999 36.8178C27.3013 36.8178 29.1666 36.1625 29.1666 35.3518V33.3213H20.8333Z" fill="#E1E8ED"/>
    <path d="M24.9999 34.7876C27.3011 34.7876 29.1666 34.1312 29.1666 33.3215C29.1666 32.5118 27.3011 31.8555 24.9999 31.8555C22.6987 31.8555 20.8333 32.5118 20.8333 33.3215C20.8333 34.1312 22.6987 34.7876 24.9999 34.7876Z" fill="#AAB8C2"/>
    <path d="M12.5 23.3102C11.7333 23.3102 11.1111 22.6534 11.1111 21.8441V19.9588C11.1111 15.5123 14.5375 11.8955 18.75 11.8955C22.9625 11.8955 26.3889 15.5123 26.3889 19.9588C26.3889 20.768 25.768 21.4248 25 21.4248C24.2333 21.4248 23.6111 20.768 23.6111 19.9588C23.6111 17.1293 21.4305 14.8276 18.75 14.8276C16.0694 14.8276 13.8889 17.1293 13.8889 19.9588V21.8441C13.8889 22.6534 13.2666 23.3102 12.5 23.3102Z" fill="#1C6399"/>
    <path d="M36.1111 26.557C35.343 26.557 34.7222 25.9002 34.7222 25.0909V23.4152C34.7222 20.9904 32.8528 19.0171 30.5555 19.0171C28.2583 19.0171 26.3889 20.9904 26.3889 23.4152C26.3889 24.2245 25.768 24.8813 25 24.8813C24.2333 24.8813 23.6111 24.2245 23.6111 23.4152C23.6111 19.3733 26.7264 16.085 30.5555 16.085C34.3847 16.085 37.5 19.3733 37.5 23.4152V25.0909C37.5 25.9002 36.8791 26.557 36.1111 26.557Z" fill="#88C9F9"/>
    <path d="M44.4444 16.4767C43.6764 16.4767 43.0555 15.8199 43.0555 15.0106C43.0555 10.1595 39.318 6.21433 34.7222 6.21433C30.1264 6.21433 26.3889 10.1595 26.3889 15.0106C26.3889 15.8199 25.768 16.4767 25 16.4767C24.2333 16.4767 23.6111 15.8199 23.6111 15.0106C23.6111 8.54388 28.5958 3.28223 34.7222 3.28223C40.8486 3.28223 45.8333 8.54388 45.8333 15.0106C45.8333 15.8199 45.2125 16.4767 44.4444 16.4767Z" fill="#1C6399"/>
    <path d="M23.6112 33.3862H26.389V11.8954C26.389 5.42864 21.4042 0.166992 15.2779 0.166992C9.15147 0.166992 4.16675 5.42864 4.16675 11.8954C4.16675 12.7046 4.78897 13.3614 5.55564 13.3614C6.3223 13.3614 6.94453 12.7046 6.94453 11.8954C6.94453 7.04423 10.682 3.09909 15.2779 3.09909C19.8737 3.09909 23.6112 7.04423 23.6112 11.8954V33.3862Z" fill="#3B94D9"/>
    <path d="M44.4446 22.1577C45.2116 22.1577 45.8334 21.5013 45.8334 20.6916C45.8334 19.882 45.2116 19.2256 44.4446 19.2256C43.6775 19.2256 43.0557 19.882 43.0557 20.6916C43.0557 21.5013 43.6775 22.1577 44.4446 22.1577Z" fill="#1C6399"/>
    <path d="M36.1111 32.4204C36.8781 32.4204 37.4999 31.764 37.4999 30.9543C37.4999 30.1447 36.8781 29.4883 36.1111 29.4883C35.344 29.4883 34.7222 30.1447 34.7222 30.9543C34.7222 31.764 35.344 32.4204 36.1111 32.4204Z" fill="#BBDDF5"/>
    <path d="M45.8332 4.56491C46.6003 4.56491 47.2221 3.90854 47.2221 3.09886C47.2221 2.28919 46.6003 1.63281 45.8332 1.63281C45.0662 1.63281 44.4443 2.28919 44.4443 3.09886C44.4443 3.90854 45.0662 4.56491 45.8332 4.56491Z" fill="#BBDDF5"/>
    <path d="M19.4446 30.9536C20.2116 30.9536 20.8334 30.2972 20.8334 29.4875C20.8334 28.6779 20.2116 28.0215 19.4446 28.0215C18.6775 28.0215 18.0557 28.6779 18.0557 29.4875C18.0557 30.2972 18.6775 30.9536 19.4446 30.9536Z" fill="#F2F9FF"/>
    <path d="M36.1111 14.8276C36.8781 14.8276 37.4999 14.1712 37.4999 13.3616C37.4999 12.5519 36.8781 11.8955 36.1111 11.8955C35.344 11.8955 34.7222 12.5519 34.7222 13.3616C34.7222 14.1712 35.344 14.8276 36.1111 14.8276Z" fill="#50A5E6"/>
    <path d="M27.7778 3.09909C28.5449 3.09909 29.1667 2.44272 29.1667 1.63304C29.1667 0.823365 28.5449 0.166992 27.7778 0.166992C27.0107 0.166992 26.3889 0.823365 26.3889 1.63304C26.3889 2.44272 27.0107 3.09909 27.7778 3.09909Z" fill="#1C6399"/>
    <path d="M12.5 28.0219C13.267 28.0219 13.8889 27.3656 13.8889 26.5559C13.8889 25.7462 13.267 25.0898 12.5 25.0898C11.7329 25.0898 11.1111 25.7462 11.1111 26.5559C11.1111 27.3656 11.7329 28.0219 12.5 28.0219Z" fill="#1C6399"/>
    <path d="M5.55564 20.6919C6.3227 20.6919 6.94453 20.0355 6.94453 19.2258C6.94453 18.4161 6.3227 17.7598 5.55564 17.7598C4.78857 17.7598 4.16675 18.4161 4.16675 19.2258C4.16675 20.0355 4.78857 20.6919 5.55564 20.6919Z" fill="#3B94D9"/>
    <path d="M15.2778 8.96335C16.0449 8.96335 16.6667 8.30698 16.6667 7.4973C16.6667 6.68762 16.0449 6.03125 15.2778 6.03125C14.5107 6.03125 13.8889 6.68762 13.8889 7.4973C13.8889 8.30698 14.5107 8.96335 15.2778 8.96335Z" fill="#88C9F9"/>
  </g>
  <defs>
    <clipPath id="clip0_1580_4412">
      <rect width="50" height="52.7778" fill="white" transform="translate(0 0.166992)"/>
    </clipPath>
  </defs>
</svg>