<svg xmlns="http://www.w3.org/2000/svg" width="48" height="48" viewBox="0 0 48 48" fill="none">
  <path d="M46 33.3267C46 36.272 43.612 35.9933 40.6667 35.9933H7.33333C4.388 35.9933 2 36.272 2 33.3267L4.66667 14.6667C5.05733 12.3333 6 12 7.33333 12H40.6667C42 12 43.0547 12.2773 43.3333 14.6667L46 33.3267Z" fill="#8CCAF7"/>
  <path d="M38 22C38 22.5304 37.7893 23.0391 37.4142 23.4142C37.0391 23.7893 36.5304 24 36 24H12C11.4696 24 10.9609 23.7893 10.5858 23.4142C10.2107 23.0391 10 22.5304 10 22C10 21.4696 10.2107 20.9609 10.5858 20.5858C10.9609 20.2107 11.4696 20 12 20H36C36.5304 20 37.0391 20.2107 37.4142 20.5858C37.7893 20.9609 38 21.4696 38 22Z" fill="#292F33"/>
  <path d="M35.0002 22.9173V4.25065C35.0002 3.54341 34.7192 2.86513 34.2191 2.36503C33.719 1.86494 33.0407 1.58398 32.3335 1.58398H15.0002C14.2929 1.58398 13.6146 1.86494 13.1145 2.36503C12.6144 2.86513 12.3335 3.54341 12.3335 4.25065V22.9173H35.0002Z" fill="#FFD983"/>
  <path d="M46 33.3337C46 32.6264 45.7191 31.9481 45.219 31.448C44.7189 30.9479 44.0406 30.667 43.3333 30.667H4.66667C3.95942 30.667 3.28115 30.9479 2.78105 31.448C2.28095 31.9481 2 32.6264 2 33.3337V44.0003C2 44.7076 2.28095 45.3858 2.78105 45.8859C3.28115 46.386 3.95942 46.667 4.66667 46.667H43.3333C44.0406 46.667 44.7189 46.386 45.219 45.8859C45.7191 45.3858 46 44.7076 46 44.0003V33.3337Z" fill="#5DADEC"/>
  <path d="M18 30.667V38.667C18 39.3742 18.281 40.0525 18.781 40.5526C19.2811 41.0527 19.9594 41.3337 20.6667 41.3337H27.3333C28.0406 41.3337 28.7189 41.0527 29.219 40.5526C29.719 40.0525 30 39.3742 30 38.667V30.667H18Z" fill="#4289C1"/>
  <path d="M30 30.667V29.3337C30 28.6264 29.719 27.9481 29.219 27.448C28.7189 26.9479 28.0406 26.667 27.3333 26.667H20.6667C19.9594 26.667 19.2811 26.9479 18.781 27.448C18.281 27.9481 18 28.6264 18 29.3337V30.667H30ZM26 36.667C26 37.1974 25.7893 37.7061 25.4142 38.0812C25.0391 38.4563 24.5304 38.667 24 38.667C23.4696 38.667 22.9609 38.4563 22.5858 38.0812C22.2107 37.7061 22 37.1974 22 36.667V35.3337C22 34.8032 22.2107 34.2945 22.5858 33.9194C22.9609 33.5444 23.4696 33.3337 24 33.3337C24.5304 33.3337 25.0391 33.5444 25.4142 33.9194C25.7893 34.2945 26 34.8032 26 35.3337V36.667Z" fill="#5DADEC"/>
  <path d="M31.9998 6.66667C31.9998 6.84348 31.9296 7.01305 31.8046 7.13807C31.6796 7.2631 31.51 7.33333 31.3332 7.33333H21.3332C21.1564 7.33333 20.9868 7.2631 20.8618 7.13807C20.7367 7.01305 20.6665 6.84348 20.6665 6.66667C20.6665 6.48986 20.7367 6.32029 20.8618 6.19526C20.9868 6.07024 21.1564 6 21.3332 6H31.3332C31.51 6 31.6796 6.07024 31.8046 6.19526C31.9296 6.32029 31.9998 6.48986 31.9998 6.66667ZM31.9998 12C31.9998 12.1768 31.9296 12.3464 31.8046 12.4714C31.6796 12.5964 31.51 12.6667 31.3332 12.6667H21.3332C21.1564 12.6667 20.9868 12.5964 20.8618 12.4714C20.7367 12.3464 20.6665 12.1768 20.6665 12C20.6665 11.8232 20.7367 11.6536 20.8618 11.5286C20.9868 11.4036 21.1564 11.3333 21.3332 11.3333H31.3332C31.51 11.3333 31.6796 11.4036 31.8046 11.5286C31.9296 11.6536 31.9998 11.8232 31.9998 12ZM31.9998 17.3333C31.9998 17.5101 31.9296 17.6797 31.8046 17.8047C31.6796 17.9298 31.51 18 31.3332 18H21.3332C21.1564 18 20.9868 17.9298 20.8618 17.8047C20.7367 17.6797 20.6665 17.5101 20.6665 17.3333C20.6665 17.1565 20.7367 16.987 20.8618 16.8619C20.9868 16.7369 21.1564 16.6667 21.3332 16.6667H31.3332C31.51 16.6667 31.6796 16.7369 31.8046 16.8619C31.9296 16.987 31.9998 17.1565 31.9998 17.3333Z" fill="#C1694F"/>
  <path d="M17.3333 7.99967C18.0697 7.99967 18.6667 7.40272 18.6667 6.66634C18.6667 5.92996 18.0697 5.33301 17.3333 5.33301C16.597 5.33301 16 5.92996 16 6.66634C16 7.40272 16.597 7.99967 17.3333 7.99967Z" fill="#C1694F"/>
  <path d="M17.3333 13.3327C18.0697 13.3327 18.6667 12.7357 18.6667 11.9993C18.6667 11.263 18.0697 10.666 17.3333 10.666C16.597 10.666 16 11.263 16 11.9993C16 12.7357 16.597 13.3327 17.3333 13.3327Z" fill="#C1694F"/>
  <path d="M17.3333 18.6667C18.0697 18.6667 18.6667 18.0697 18.6667 17.3333C18.6667 16.597 18.0697 16 17.3333 16C16.597 16 16 16.597 16 17.3333C16 18.0697 16.597 18.6667 17.3333 18.6667Z" fill="#C1694F"/>
</svg>