<svg xmlns="http://www.w3.org/2000/svg" width="30" height="30" viewBox="0 0 30 30" fill="none">
  <path d="M7.27883 17.557C7.26412 17.5717 7.24924 17.5865 7.23424 17.6014C7.0401 17.7947 6.82397 18.0099 6.67075 18.2805C6.51754 18.5511 6.44422 18.8471 6.37836 19.1131C6.37284 19.1353 6.36737 19.1574 6.36191 19.1792L5.5325 22.4969C5.52916 22.5102 5.52574 22.5239 5.52225 22.5378C5.47525 22.7251 5.41614 22.9606 5.39611 23.1654C5.37337 23.3978 5.37012 23.8673 5.75141 24.2486C6.1327 24.6299 6.6022 24.6266 6.83458 24.6039C7.03941 24.5839 7.27495 24.5247 7.46224 24.4777C7.47614 24.4743 7.48977 24.4708 7.5031 24.4675L10.8208 23.6381L10.8208 23.6381C10.8223 23.6377 10.8239 23.6373 10.8255 23.6369C10.8458 23.6318 10.8663 23.6268 10.887 23.6216C11.1529 23.5558 11.4489 23.4825 11.7195 23.3292C11.9901 23.176 12.2053 22.9599 12.3986 22.7658C12.4148 22.7495 12.4308 22.7334 12.4468 22.7175L21.4393 13.7249L21.4807 13.6835C21.8617 13.3026 22.2152 12.9492 22.4648 12.6221C22.741 12.2601 22.9822 11.8154 22.9822 11.25C22.9822 10.6846 22.741 10.2399 22.4648 9.87787C22.2152 9.55077 21.8617 9.19738 21.4808 8.81653L21.4393 8.77513L21.2249 8.56066L21.1835 8.51925C20.8026 8.13829 20.4492 7.78482 20.1221 7.53525C19.7601 7.25904 19.3154 7.01777 18.75 7.01777C18.1846 7.01777 17.7399 7.25904 17.3779 7.53525C17.0508 7.78482 16.6974 8.13831 16.3165 8.51927C16.3028 8.53303 16.289 8.54683 16.2751 8.56066L7.28254 17.5533C7.2813 17.5545 7.28006 17.5557 7.27883 17.557Z" stroke="#B7BDCC" stroke-width="2"/>
  <path d="M15.6252 9.37402L19.3752 6.87402L23.1252 10.624L20.6252 14.374L15.6252 9.37402Z" fill="#B7BDCC"/>
</svg>